<?xml version="1.0" encoding="utf-8"?>
<!-- Generator: Adobe Illustrator 17.1.0, SVG Export Plug-In . SVG Version: 6.00 Build 0)  -->
<!DOCTYPE svg PUBLIC "-//W3C//DTD SVG 1.1//EN" "http://www.w3.org/Graphics/SVG/1.1/DTD/svg11.dtd">
<svg version="1.1" id="Capa_1" xmlns="http://www.w3.org/2000/svg" xmlns:xlink="http://www.w3.org/1999/xlink" x="0px" y="0px"
	 viewBox="0 0 285.3 78.8" enable-background="new 0 0 285.3 78.8" xml:space="preserve">
<g>
	<path fill="#231F20" d="M61,57.2c-0.4,0.4-1.2,0.4-1.6,0c-0.2-0.2-0.3-0.5-0.3-0.8v-4.2c0-0.5-0.4-1-1-1c-0.2,0-0.3,0-0.5,0.1
		c-0.2,0.1-0.4,0.2-0.6,0.4l-0.8,0.4c-2.2,0.9-4.6,1.5-7.2,1.5h-8.8h-4.4c-2.5,0-4.5-2-4.5-4.5V26.3c0-2.5,2-4.5,4.5-4.5H48
		c2.7,0,5.2,0.7,7.4,1.8v0c2.5,1.3,4.2,3.9,4.2,6.9c0,2.6-1.3,4.9-3.2,6.3c2,0.8,3.6,2.3,4.5,4.2l8.5-16.4c1-2,3.1-3.4,5.4-3.4
		c2.4,0,4.4,1.4,5.4,3.4l0,0l11.6,22.4h0c0.4,0.7,0.6,1.4,0.6,2.2c0,2.5-2,4.5-4.5,4.5c-1.8,0-3.4-1.1-4.1-2.7
		c-0.4-0.9-1.2-1.5-2.2-1.5H69c-0.2,0-0.5,0.1-0.7,0.3L61,57.2z"/>
	<text transform="matrix(1 0 0 1 97.1383 43.2058)" font-family="'Gotham-Medium'" font-size="14.3753">EN TODO ESTÁS VOS</text>
</g>
</svg>
