<?xml version="1.0" encoding="utf-8"?>
<!-- Generator: Adobe Illustrator 17.1.0, SVG Export Plug-In . SVG Version: 6.00 Build 0)  -->
<!DOCTYPE svg PUBLIC "-//W3C//DTD SVG 1.1//EN" "http://www.w3.org/Graphics/SVG/1.1/DTD/svg11.dtd">
<svg version="1.1" id="Capa_1" xmlns="http://www.w3.org/2000/svg" xmlns:xlink="http://www.w3.org/1999/xlink" x="0px" y="0px"
	 viewBox="0 0 285.3 78.8" enable-background="new 0 0 285.3 78.8" xml:space="preserve">
<g>
	<path fill="#231F20" d="M73.9,42c1.6,0,2.6-0.6,2.6-1.9v0c0-1.1-0.9-1.8-2.8-1.8h-3.8V42H73.9z M73.2,36.2c1.5,0,2.6-0.6,2.6-1.9v0
		c0-1.1-0.9-1.7-2.4-1.7h-3.4v3.6H73.2z M67.6,30.5h6.1c1.6,0,2.8,0.4,3.6,1.2c0.6,0.6,0.9,1.3,0.9,2.3v0c0,1.6-0.9,2.5-2,3
		c1.6,0.5,2.7,1.5,2.7,3.3v0c0,2.4-2,3.7-5.1,3.7h-6.3V30.5z"/>
	<path fill="#231F20" d="M80.9,40.4v-6.6h2.4v5.9c0,1.6,0.8,2.5,2.2,2.5c1.4,0,2.3-1,2.3-2.6v-5.8h2.4v10.3h-2.4v-1.6
		c-0.7,1-1.6,1.8-3.2,1.8C82.2,44.3,80.9,42.8,80.9,40.4"/>
	<path fill="#231F20" d="M99.7,38.2c-0.2-1.5-1.1-2.7-2.6-2.7c-1.4,0-2.5,1.1-2.7,2.7H99.7z M92.1,39L92.1,39c0-3,2.1-5.4,5-5.4
		c3.3,0,4.9,2.6,4.9,5.5c0,0.2,0,0.4,0,0.7h-7.6c0.3,1.7,1.4,2.6,3,2.6c1.2,0,2-0.4,2.8-1.2l1.4,1.2c-1,1.2-2.3,1.9-4.2,1.9
		C94.4,44.4,92.1,42.2,92.1,39"/>
	<path fill="#231F20" d="M104.1,33.8h2.4v1.6c0.7-1,1.6-1.8,3.2-1.8c2.3,0,3.7,1.6,3.7,4v6.6H111v-5.9c0-1.6-0.8-2.5-2.2-2.5
		c-1.4,0-2.3,1-2.3,2.6v5.8h-2.4V33.8z"/>
	<path fill="#231F20" d="M123.8,39L123.8,39c0-1.9-1.3-3.4-3.1-3.4c-1.9,0-3.1,1.5-3.1,3.3v0c0,1.8,1.3,3.3,3.1,3.3
		C122.6,42.3,123.8,40.8,123.8,39 M115.2,39L115.2,39c0-3,2.3-5.4,5.5-5.4c3.2,0,5.5,2.4,5.5,5.3v0c0,2.9-2.3,5.4-5.5,5.4
		C117.5,44.4,115.2,41.9,115.2,39"/>
	<path fill="#231F20" d="M127.4,42.8l1.1-1.6c1.1,0.8,2.3,1.3,3.4,1.3c1,0,1.6-0.4,1.6-1.1v0c0-0.8-1.1-1.1-2.3-1.4
		c-1.5-0.4-3.2-1-3.2-3v0c0-1.9,1.6-3.1,3.7-3.1c1.3,0,2.7,0.4,3.8,1.2l-0.9,1.7c-1-0.6-2-1-2.9-1c-0.9,0-1.4,0.4-1.4,1v0
		c0,0.7,1.1,1,2.3,1.4c1.5,0.5,3.2,1.2,3.2,3v0c0,2.2-1.7,3.2-3.8,3.2C130.3,44.3,128.6,43.8,127.4,42.8"/>
	<path fill="#231F20" d="M151.6,38.7l-2.4-5.5l-2.3,5.5H151.6z M148.1,30.4h2.2l6,13.8h-2.5l-1.4-3.3H146l-1.4,3.3h-2.5L148.1,30.4z
		"/>
	<path fill="#231F20" d="M158.2,33.8h2.4v10.3h-2.4V33.8z M158.1,30h2.5v2.3h-2.5V30z"/>
	<path fill="#231F20" d="M163.2,33.8h2.4v2.3c0.6-1.5,1.8-2.6,3.6-2.5v2.5h-0.1c-2.1,0-3.5,1.3-3.5,4.1v3.9h-2.4V33.8z"/>
	<path fill="#231F20" d="M177.6,38.2c-0.2-1.5-1.1-2.7-2.6-2.7c-1.5,0-2.5,1.1-2.7,2.7H177.6z M170,39L170,39c0-3,2.1-5.4,5-5.4
		c3.3,0,4.9,2.6,4.9,5.5c0,0.2,0,0.4,0,0.7h-7.6c0.2,1.7,1.4,2.6,3,2.6c1.2,0,2-0.4,2.8-1.2l1.4,1.2c-1,1.2-2.3,1.9-4.2,1.9
		C172.3,44.4,170,42.2,170,39"/>
	<path fill="#231F20" d="M181.1,42.8l1.1-1.6c1.1,0.8,2.3,1.3,3.4,1.3c1,0,1.6-0.4,1.6-1.1v0c0-0.8-1.1-1.1-2.3-1.4
		c-1.5-0.4-3.2-1-3.2-3v0c0-1.9,1.6-3.1,3.7-3.1c1.3,0,2.7,0.4,3.8,1.2l-0.9,1.7c-1-0.6-2-1-2.9-1c-0.9,0-1.4,0.4-1.4,1v0
		c0,0.7,1.1,1,2.3,1.4c1.5,0.5,3.2,1.2,3.2,3v0c0,2.2-1.7,3.2-3.8,3.2C184,44.3,182.4,43.8,181.1,42.8"/>
	<path fill="#231F20" d="M196.4,37.3L196.4,37.3c0-3.9,2.9-7.1,7-7.1c2.5,0,4,0.9,5.3,2.1l-1.5,1.8c-1.1-1-2.3-1.7-3.8-1.7
		c-2.6,0-4.5,2.1-4.5,4.8v0c0,2.7,1.9,4.9,4.5,4.9c1.7,0,2.7-0.7,3.9-1.8l1.5,1.6c-1.4,1.5-3,2.4-5.5,2.4
		C199.4,44.4,196.4,41.3,196.4,37.3"/>
	<path fill="#231F20" d="M210.9,33.8h2.4v10.3h-2.4V33.8z M210.8,30h2.5v2.3h-2.5V30z"/>
	<path fill="#231F20" d="M215.8,40.4v-6.6h2.4v5.9c0,1.6,0.8,2.5,2.2,2.5c1.4,0,2.3-1,2.3-2.6v-5.8h2.4v10.3h-2.4v-1.6
		c-0.7,1-1.6,1.8-3.2,1.8C217.2,44.3,215.8,42.8,215.8,40.4"/>
	<path fill="#231F20" d="M235.5,39L235.5,39c0-2-1.4-3.3-3-3.3c-1.6,0-3,1.2-3,3.3v0c0,2,1.4,3.3,3,3.3
		C234.1,42.3,235.5,41,235.5,39 M227.1,39L227.1,39c0-3.5,2.3-5.4,4.8-5.4c1.7,0,2.8,0.9,3.5,1.8v-5.5h2.4v14.2h-2.4v-1.7
		c-0.8,1.1-1.8,1.9-3.5,1.9C229.5,44.3,227.1,42.4,227.1,39"/>
	<path fill="#231F20" d="M246.7,39.8c-0.6-0.2-1.4-0.4-2.4-0.4c-1.5,0-2.4,0.6-2.4,1.6v0c0,1,0.9,1.5,2,1.5c1.6,0,2.7-0.9,2.7-2.2
		V39.8z M246.6,44.1v-1.3c-0.7,0.8-1.8,1.5-3.3,1.5c-2,0-3.7-1.1-3.7-3.2v0c0-2.3,1.8-3.4,4.2-3.4c1.2,0,2,0.2,2.8,0.4V38
		c0-1.4-0.9-2.2-2.5-2.2c-1.1,0-2,0.3-2.9,0.6l-0.7-1.9c1.1-0.5,2.2-0.9,3.9-0.9c3,0,4.5,1.6,4.5,4.3v6.1H246.6z"/>
	<path fill="#231F20" d="M259.2,39L259.2,39c0-2-1.4-3.3-3-3.3c-1.6,0-3,1.2-3,3.3v0c0,2,1.4,3.3,3,3.3
		C257.8,42.3,259.2,41,259.2,39 M250.9,39L250.9,39c0-3.5,2.3-5.4,4.8-5.4c1.7,0,2.8,0.9,3.5,1.8v-5.5h2.4v14.2h-2.4v-1.7
		c-0.8,1.1-1.8,1.9-3.5,1.9C253.2,44.3,250.9,42.4,250.9,39"/>
	<path fill="#231F20" d="M41.1,22.9c-0.1,0-0.2,0.1-0.2,0.2c0,0.1,0.1,0.2,0.2,0.2c0.1,0,0.2-0.1,0.2-0.2
		C41.3,23,41.2,22.9,41.1,22.9"/>
	<path fill="#231F20" d="M49.6,27c-0.5,0.3-1,0.4-1.5,0.4h0c-0.3,0-0.6,0-0.9-0.1c-0.2,0-0.5-0.1-0.8-0.1c-0.6,0-1.1,0.1-1.5,0.3
		c-0.3,0.2-0.5,0.4-0.6,0.6c-0.1,0.2-0.3,0.3-0.4,0.5l-0.2,0.1h0c-0.1,0-0.1,0-0.1-0.1v-0.1c0-0.2,0-0.5-0.1-0.7l0-0.1
		c0-0.4-0.1-0.8-0.2-1.2l-0.1-0.2c-0.1-0.4-0.3-0.8,0-1.1c0.2-0.1,0.5-0.2,0.7-0.2c0,0,0.2,0,0.5,0h0.1c0.3,0,0.5,0,0.8,0.1
		c0.5,0.1,1,0.2,1.6,0.4c0.3,0.1,0.7,0.2,1,0.4c0.8,0.3,1.6,0.6,2.4,0.7C50.1,26.7,49.8,26.9,49.6,27 M42.9,29.1
		c-0.1,0.5-0.2,0.8-0.5,1.1c-0.3,0.2-0.5,0.3-0.9,0.3h-0.2l-0.2,0c-0.2,0-0.4,0.1-0.6,0.2c-0.4,0.4-0.4,1.4-0.4,2.1V33l0,0
		c-0.6-0.5-1.1-1-1.9-1.1c-0.1,0-0.2,0-0.4,0c-0.2,0-0.5,0-0.7,0.1c-0.2,0-0.4,0.1-0.6,0.2l-0.2,0.1c-0.1,0-0.2,0.1-0.3,0.1l0,0v0
		c0.1-0.3,0.4-0.4,0.6-0.6l0.1,0c0.6-0.4,1.1-0.8,1.7-1.2c1-0.8,2.1-1.7,2.6-3c0.3-0.7,0.4-1.6,0.4-2.4v0c0-0.4,0-0.7-0.2-1
		c-0.1-0.3-0.3-0.4-0.5-0.5l-0.1-0.1c0.1-0.2,0.4-0.7,0.7-0.7c0.1,0,0.3,0.1,0.4,0.2c0.4,0.5,0.6,1.2,0.7,1.7c0,0.1,0.1,0.2,0.1,0.3
		C42.6,26,43.1,27.8,42.9,29.1 M37.6,28.3c-0.2-0.3-0.3-0.5-0.5-0.8c-0.5-0.6-1.1-0.8-2-0.8c-0.4,0-0.8,0-1.2,0.1
		c-0.4,0.1-0.8,0.1-1.1,0.1c-0.2,0-0.4,0-0.5,0c0.7-0.2,1.3-0.5,1.9-0.8c0.6-0.3,1.3-0.6,2-0.9c0.4-0.1,0.9-0.2,1.4-0.2
		c0.8,0,1.6,0.2,2.3,0.6c0.5,0.3,0.7,0.7,0.5,1.2c-0.2,0.6-0.5,1.1-1,1.6l-0.1,0.1c-0.2,0.2-0.5,0.6-0.8,0.6l-0.2-0.1
		C37.9,28.9,37.7,28.6,37.6,28.3 M51.2,26L51.2,26c-1.1,0-2.1-0.4-3-0.8c-0.4-0.1-0.8-0.3-1.2-0.4c-0.8-0.2-1.5-0.4-2.2-0.4
		c-0.2,0-0.3,0-0.5,0c-0.4,0-1.1,0-1.5,0.4c-0.1-0.5-0.2-1-0.5-1.6c-0.2-0.5-0.5-1.1-1-1.2l-0.3,0c-0.5,0-0.9,0.5-1.1,0.7l-0.1,0.1
		c-0.2,0.3-0.3,0.5-0.3,0.6c0,0.2,0.2,0.3,0.7,0.5c0.2,0.1,0.2,0.4,0.2,0.6l0,0c0,0.3,0.1,0.6,0.1,0.9c-0.6-0.6-1.5-0.9-2.4-1
		c-0.2,0-0.4-0.1-0.7-0.1c-1,0-1.9,0.4-2.5,0.6c-0.4,0.2-0.7,0.3-1,0.5c-0.7,0.3-1.3,0.6-2,0.9c-0.2,0.1-0.4,0.1-0.7,0.2h0h0l0,0
		c-0.1,0-0.3,0.1-0.3,0.2c0,0.2,0,0.3,0.2,0.5c0.5,0.3,1.1,0.4,1.9,0.4c0.2,0,0.3,0,0.5,0c0.2,0,0.5,0,0.7-0.1
		c0.3,0,0.7-0.1,1.1-0.1c0.2,0,0.5,0,0.6,0.1c0.6,0.1,0.9,0.7,1.2,1.2c0.1,0.1,0.1,0.2,0.2,0.3l0,0c0.1,0.2,0.4,0.6,0.4,0.8
		c0,0.3-0.4,0.5-0.6,0.6l-0.2,0.1l-0.3,0.2c-0.6,0.4-1.4,0.9-1.3,1.5c0,0.3,0.3,0.6,0.7,0.6l0.1,0c0.2,0,0.5-0.1,0.7-0.2l0.3-0.1
		c0.3-0.1,0.6-0.2,0.8-0.2c0.5,0,0.9,0.2,1.3,0.5c0.1,0.1,0.3,0.2,0.4,0.3c0.1,0.1,0.3,0.3,0.4,0.4c0.1,0.1,0.3,0.2,0.5,0.2
		c0.2,0,0.3-0.1,0.4-0.3c0.1-0.3,0.1-0.7,0.1-1c0-0.3,0-0.5,0-0.8c0-0.2,0.1-0.5,0.3-0.6c0.1,0,0.1,0,0.3,0c0.1,0,0.2,0,0.3,0
		c0.2,0,0.3,0,0.4,0c0.6-0.1,1.1-0.6,1.4-1.3c0.1-0.3,0.2-0.4,0.5-0.4c0.3-0.1,0.5-0.3,0.7-0.6l0.1-0.2c0.4-0.5,0.8-0.7,1.5-0.7
		c0.1,0,0.3,0,0.4,0c0.1,0,0.3,0,0.4,0c0.4,0,0.7,0.1,1,0.1c0.4,0,0.7-0.1,1-0.1c0.8-0.3,1.5-0.8,2.1-1.3l0.1-0.1
		c0.2-0.1,0.2-0.2,0.2-0.4C51.5,26,51.3,26,51.2,26"/>
	<path fill="#231F20" d="M56.5,41.8c-0.2,0.9-0.4,1.9-0.7,2.8l-3.1-7.2l1.3-0.6c0.1-0.1,0.1-0.3,0-0.3l-1.4-1l0-2.2
		c0.2,0,0.3-0.1,0.5-0.1c0.2,0,0.3,0,0.5,0c0.2,0,0.3,0,0.5,0c0.2,0,0.3-0.1,0.4-0.2c-0.3,0-0.6-0.2-0.9-0.4
		c-0.2-0.1-0.3-0.1-0.5-0.1c-0.2,0-0.4,0-0.5,0c0-0.1,0-0.3-0.1-0.4h-0.1c-0.1,0.6-0.1,1.3-0.1,1.9c0,0.4,0,0.9,0,1.3l0,0.2l-1.4,1
		c-0.1,0.1-0.1,0.3,0,0.3l1.3,0.6l-2.6,6.4l-1.4-4.1l1.5-0.7c0.2-0.1,0.2-0.3,0-0.4c0,0-1.4-1-1.6-1.1c0-0.5,0-1.1,0-1.6l1.4-0.6v0
		c0.1-0.1,0.1-0.3,0-0.3c0,0-1.2-0.9-1.4-1c0-1,0-2,0-3l0.2-0.1l0.3-0.1c0.2,0,0.3,0,0.5,0c0.2,0,0.3,0,0.5,0c0.1,0,0.3-0.1,0.4-0.2
		c-0.3,0-0.6-0.2-0.9-0.4C48.9,30,48.7,30,48.5,30c-0.2,0-0.4,0-0.5,0c0-0.1,0-0.3-0.1-0.4h-0.1c-0.1,0.6-0.1,1.1-0.1,1.7
		c0,0.5,0,1,0,1.5c0,0.3,0,0.7,0,1l-1.4,1c-0.1,0.1-0.1,0.3,0,0.3l1.4,0.6h0c0,0.5,0,1.1,0,1.6l-1.6,1.1c-0.2,0.1-0.2,0.3,0,0.4
		l1.5,0.7L43,44.7c-0.1,0-0.7,0-0.7,0.1c-0.1,0.1-0.1,0.2-0.1,0.4c0.1,0.2,0.2,0.3,0.4,0.4l0.2,0.1l0,0c0,0,0.4,1.4,2.2,2h0l0,0l0,0
		l0,0c-1.7-0.1-3.4-0.4-5-0.6c-0.6-0.1-1.3-0.2-1.9-0.3c-0.4-0.1-0.9-0.1-1.3-0.2l-0.1-0.1v0v0l0,0l0,0c2.4-0.7,2.8-2.4,2.8-2.4
		l0.1,0l0.2-0.1c0.2-0.1,0.3-0.2,0.4-0.4c0.1-0.1,0-0.3-0.1-0.4c-0.1-0.1-0.7-0.1-0.7-0.1l0,0h-0.1c0-0.4,0-1.3,0-1.9l0.2,0l0.3-0.1
		c0.2-0.1,0.4,0,0.5,0c0.2,0,0.4,0.1,0.5,0c0.2,0,0.3-0.1,0.4-0.2c-0.4,0-0.7-0.2-1-0.4c-0.2-0.1-0.3-0.1-0.5-0.1
		c-0.2,0-0.4,0-0.5,0c0-0.1,0-0.3,0-0.4H39c-0.1,0.5-0.1,2.4-0.1,3.1h-1.2c0-1.3-0.1-3-0.1-4.1l1-2.2c0.1,0.1,0.3,0.1,0.4,0.1
		c0.2,0,0.3,0.1,0.4,0.3c0.1,0.1,0.2,0.2,0.4,0.2c0.2,0.1,0.3,0.1,0.5,0c-0.3-0.2-0.4-0.5-0.6-0.8c-0.1-0.1-0.2-0.3-0.4-0.4
		c-0.1-0.1-0.3-0.2-0.5-0.3c0-0.1,0.1-0.3,0.1-0.4l0,0l0,0l-0.1,0.1c-0.1,0.1-0.2,0.3-0.2,0.4l-1.1,2.3c0-0.4,0-0.7,0-1.1
		c0-0.5,0-0.9-0.1-1.4h-0.1c-0.1,0.6-0.1,1.1-0.1,1.7c0,0.5,0,1,0,1.5l-1.9,3.9L33.7,39c0-0.5,0-1,0-1.5c0-0.6,0-1.2-0.1-1.7h-0.1
		c-0.1,0.6-0.1,1.1-0.1,1.7c0,0.5,0,1,0,1.6l-0.5,1.3l-1.3-3.1c0-0.5,0-1,0-1.5l1.2-0.6c0.1-0.1,0.1-0.2,0-0.3c0,0-1-0.7-1.2-0.9
		c0-1.1,0-2.1,0-3.2l0.2-0.1l0.3-0.1c0.2,0,0.3,0,0.5,0c0.2,0,0.3,0,0.5,0c0.1,0,0.3-0.1,0.4-0.2c-0.3,0-0.6-0.2-0.9-0.4
		C32.3,30,32.1,30,31.9,30c-0.2,0-0.4,0-0.5,0c0-0.1,0-0.3-0.1-0.4h-0.1c-0.1,0.7-0.1,1.4-0.1,2c0,0.7,0,1.3,0,2c0,0.1,0,0.2,0,0.4
		l-1.2,0.9c-0.1,0.1-0.1,0.2,0,0.3l1.2,0.6c0,0.6,0,1.4,0,1.5l-2.4,5.7l-0.4-1.3h0.3h0.2l0.2-0.1l0.2-0.1L29,41.3l-0.2,0h-0.6
		L28,40.4c0-0.4,0-0.8,0-1.1l1.3-0.6c0.1-0.1,0.1-0.3,0-0.3l-1.4-1c0-0.3,0-0.6,0-0.9l1.2-0.6c0.1-0.1,0.1-0.2,0-0.3
		c0,0-1.1-0.8-1.2-0.9c0-0.9,0-1.5,0-1.5c0.1,0,0.3-0.1,0.4-0.1c0.2,0,0.3,0,0.5,0c0.1,0,0.3,0.1,0.4,0c0.1,0,0.3-0.1,0.4-0.2
		c-0.3,0-0.6-0.2-0.8-0.3c-0.1-0.1-0.3-0.1-0.4-0.1c-0.1,0-0.3,0-0.5,0c0-0.1,0-0.2-0.1-0.4h-0.1c-0.1,0.5-0.1,1-0.1,1.5
		c0,0.4,0,0.7,0,1.1l-1.2,0.9c-0.1,0.1-0.1,0.2,0,0.3l1.2,0.6c0,0.2,0,0.6,0,0.9l-1.4,1c-0.1,0.1-0.1,0.3,0,0.3l1.3,0.6
		c0,0.4,0,0.7,0,1.1l-0.2,0.9h-0.6l-0.2,0l-0.2,0.1l0.1,0.1l0.2,0.1h0.2h0h0.3l-0.4,1.6H26c-0.4-1.5-0.7-3.1-0.7-4.7
		c-0.1-1.6,0-3.2,0.2-4.8c0.2-1.5,0.5-2.9,1-4.3c0.5-1.3,1-2.6,1.8-3.8c0.4-0.6,0.8-1.2,1.2-1.8c1.8,0.6,4.2,0.1,4.2,0.1
		c2.1-0.4,3.5-0.3,4.2-0.2l0.4,0.1c0-0.3,0.1-0.4,0.2-0.7c-2.2-0.7-4.7-0.4-4.7-0.4c-1.5,0.1-2.4-0.2-2.9-0.4c0,0,1-1,1.7-1.6
		c0.7,0.5,1.6,0.7,2.4,0.9c0.5,0.1,1.1,0.1,1.6,0.3c0.5,0.1,1.1,0.3,1.6,0.5c0.2,0.1,0.4,0.2,0.5,0.2c0.1-0.2,0.2-0.4,0.4-0.6
		l-0.3-0.2c-0.7-0.4-1.3-0.6-2.1-0.8c-0.5-0.1-0.9-0.3-1.4-0.6c-0.6-0.3-1-0.7-1-0.8c0,0,1.1-0.6,2.1-1c0.5,0.7,1.3,1,1.9,1.5
		c0.8,0.7,1.3,1.4,1.3,1.4c0.2-0.1,0.4-0.2,0.6-0.3c-0.3-0.7-0.8-1.6-1.4-2.1c-0.3-0.2-0.6-0.7-0.8-1.1c0,0,1.3-0.3,2.3-0.4l0.4,3.3
		c0.1,0,0.4,0,0.4,0s0.1,0,0.4,0l0.4-3.3c0,0,0.9,0,1.6,0.2c0.4,0.1,0.7,0.2,0.7,0.2c-0.1,0.4-0.5,0.8-0.7,1.1
		c-0.6,0.5-1,1.3-1.4,2.1c0.2,0.1,0.4,0.2,0.6,0.3c0.4-0.6,0.9-1.1,1.3-1.4c0.6-0.5,1.4-0.9,1.9-1.5c0.1,0.1,0.6,0.2,1.5,0.7
		l0.6,0.4c0,0-0.7,0.6-1,0.8c-0.4,0.3-0.9,0.4-1.4,0.6c-0.7,0.2-1.4,0.4-2.1,0.8l-0.3,0.2c0.1,0.2,0.3,0.4,0.4,0.6
		c0.1-0.1,0.4-0.2,0.5-0.2c0.5-0.2,1.1-0.3,1.6-0.5c0.5-0.1,1.1-0.2,1.6-0.3c0.8-0.1,1.7-0.4,2.3-0.9c0.9,0.7,1.7,1.6,1.7,1.6
		c-0.5,0.3-1.4,0.6-2.9,0.4c0,0-2.5-0.3-4.7,0.4c0.1,0.2,0.1,0.4,0.1,0.7l0.4-0.1c0.8-0.1,2.1-0.2,4.2,0.2c0,0,2.3,0.6,4.2-0.1
		c0.2,0.2,0.4,0.5,0.5,0.7c0.8,1.1,1.4,2.4,2,3.6c0.6,1.3,1,2.7,1.3,4.2c0.3,1.5,0.5,3,0.5,4.6C57,38.5,56.8,40.2,56.5,41.8
		 M54.2,44.6l-1.4-5.8c0-0.4,0-0.2,0.1-0.1l2.6,5.9H54.2z M52.7,39.7L52.7,39.7l1.2,4.9c-0.2,0.6-0.8,1-1.1,1.3
		C52.8,45,52.7,39.7,52.7,39.7 M47.6,40.2c0,1-0.1,4.4-0.1,4.5h-1.2L47.6,40.2z M46.1,44.7h-2.7l4.1-4.6L46.1,44.7z M48.8,45.6
		c-0.3-0.3-0.5-0.7-0.6-0.8c0-1.1,0-2.8-0.1-4.6l1.3,3.9L48.8,45.6z M50.3,46.4c-0.5-0.1-0.9-0.4-1.2-0.6l0.5-1.3L50.3,46.4z
		 M52.1,38.7l-1.7,7.3l-0.7-2l0,0L52.1,38.7C52,38.5,52.1,38.5,52.1,38.7 M52.2,39.7c0,2.3-0.1,4.8-0.1,6.5c-0.6,0.2-1,0.2-1.5,0.2
		l0.9-4.2L52.2,39.7L52.2,39.7z M52.7,35.6l1,0.7h-1C52.7,36.1,52.7,35.8,52.7,35.6 M51.3,36.3l1-0.7c0,0.2,0,0.5,0,0.7H51.3z
		 M51.5,36.7h1.9l0,0l-0.9,0.4h-0.2L51.5,36.7L51.5,36.7z M48.1,37.6l1.2,0.8h-1.1C48.1,38.2,48.1,37.9,48.1,37.6 M48.1,34.1l1,0.7
		h-1C48.1,34.5,48.1,34.3,48.1,34.1 M46.7,34.8l1-0.7v0.7H46.7z M46.9,35.2L46.9,35.2l1.9,0l0,0h0l0,0l0,0L48,35.6h-0.2L46.9,35.2
		L46.9,35.2z M46.5,38.4l1.2-0.8c0,0.2,0,0.8,0,0.8H46.5z M46.8,38.9H49l0,0l-1,0.5h-0.2L46.8,38.9L46.8,38.9z M35.7,43.1l1.5-3.3
		c0,1-0.1,2.3-0.1,3.3h-0.6C36.3,43.1,35.9,43.2,35.7,43.1 M34.3,44.4c-0.1,0.2-0.3,0.3-0.5,0.4c0-0.5,0-1.1,0-1.6L34.3,44.4z
		 M33.8,42.5V42c0-0.9,0-1.3-0.1-2.1l0.1,0l1.3,3.4c-0.2,0.4-0.3,0.6-0.6,1L33.8,42.5z M32.3,41.5l-0.8-3.4l0.1,0l1.1,2.5L32.3,41.5
		z M31.6,43.1c0-1,0-2.2,0-3.4c0-0.1,0-0.2,0.1,0l0.5,2.1L31.6,43.1z M32.2,42.4l0.7,3c-0.3,0.1-0.6,0.2-0.9,0.2c-0.1,0-0.2,0-0.3,0
		l-0.2,0c0-0.4,0-1,0-1.8L32.2,42.4z M33,40.6l0.3-0.7l0.1,0c0,0.5,0,1,0,1.5L33,40.6z M33.3,42c0,1.2-0.1,2.3-0.1,3.2l0,0l-0.8-3.3
		l0.4-1L33.3,42z M31.5,34.2l0.9,0.6h-0.9C31.5,34.6,31.5,34.4,31.5,34.2 M30.2,34.8l0.9-0.6c0,0.2,0,0.4,0,0.6H30.2z M30.4,35.1
		h1.7l0,0l-0.8,0.4l-0.2,0L30.4,35.1L30.4,35.1z M31,39.8c0,2.4-0.1,4.6-0.1,5.7c-0.4-0.1-0.8-0.2-1.2-0.5l1.2-5.3L31,39.8z
		 M29.5,44.8c-0.7-0.5-0.8-1.3-0.8-1.4l2.3-5.3h0.1L29.5,44.8z M52.8,50.2c-1.7,0.4-3.4,0.6-5.1,0.7c-0.9,0-1.7,0.1-2.6,0
		c-0.9,0-1.7-0.2-2.6-0.3c-1.7-0.2-3.5-0.5-5.2-0.7c-1.7-0.2-3.5-0.3-5.2-0.2c-0.9,0.1-1.9,0.2-2.8,0.3c-0.3-0.4-0.6-0.9-0.9-1.4
		c1.5-0.3,3.1-0.5,4.7-0.6c1.6-0.1,3.2,0.1,4.8,0.3c1.5,0.2,3,0.5,4.6,0.7c1.4,0.2,2.8,0.3,4.2,0.3h0c1.5,0,2.9-0.1,4.4-0.4
		c1.1-0.2,2.1-0.4,3.1-0.7C53.7,49,53.3,49.6,52.8,50.2 M48.9,54.1c-1.7,0.2-3.4,0.1-5-0.1c-1.7-0.2-3.3-0.5-5-0.7
		c-1.7-0.2-3.4-0.5-5.2-0.4c-0.6,0-1.2,0-1.8,0.1c-0.5-0.5-1.1-1-1.6-1.6c1.7-0.3,3.5-0.3,5.3-0.1c1.8,0.1,3.5,0.4,5.2,0.7
		c0.9,0.1,1.8,0.3,2.6,0.4c0.4,0,2.2,0.2,2.6,0.2c1.8,0,3.5-0.1,5.2-0.4C50.5,52.8,49.7,53.5,48.9,54.1 M41.1,56.6
		c-2.6,0-5.1-0.8-7.3-2.2c1.7,0,3.4,0.2,5.1,0.5c1.7,0.3,3.4,0.5,5.1,0.7c0.7,0.1,1.3,0.1,2,0.1C44.4,56.3,42.8,56.6,41.1,56.6
		 M28,43.2c0-0.5,0-1,0-1.6c0,0,0-0.1,0.1,0l0.4,1.5H28z M27.9,37.5l1,0.7h-1C27.9,38,27.9,37.8,27.9,37.5 M27.9,34.9l0.9,0.6h-0.9
		C27.9,35.3,27.9,35.1,27.9,34.9 M26.6,35.5l0.9-0.6c0,0.2,0,0.4,0,0.6H26.6z M26.9,35.8h1.7l0,0.1l-0.8,0.3l-0.2,0L26.9,35.8
		L26.9,35.8z M26.5,38.2l1-0.7c0,0.2,0,0.5,0,0.7H26.5z M27.6,39.1l-0.9-0.4l0,0h1.9l0,0l-0.8,0.4H27.6z M27.4,43.2H27l0.4-1.5
		c0-0.1,0.1-0.1,0.1-0.1C27.4,42.2,27.4,42.7,27.4,43.2 M58.1,33.1c-0.2-1.5-0.6-2.9-1.1-4.3c-0.5-1.3-1.1-2.6-1.8-3.8
		c-0.5-0.9-1.2-1.9-1.9-2.7c-0.9-1.1-1.9-2.1-3-2.9c-1.1-0.8-2.3-1.5-3.5-2.1c-1.3-0.5-2.6-0.9-3.9-1.1c-1.4-0.2-2.8-0.2-4.1,0.1
		c-1.3,0.2-2.7,0.6-3.9,1.2c-1.2,0.6-2.4,1.3-3.5,2.2c-1.1,0.9-2.1,1.9-2.9,3c-0.9,1.1-1.6,2.2-2.2,3.5c-0.7,1.3-1.2,2.6-1.6,4
		c-0.4,1.4-0.7,2.9-0.9,4.4c-0.2,1.5-0.2,3.1-0.1,4.6c0.1,1.5,0.4,3,0.7,4.4c0.4,1.4,0.9,2.8,1.5,4.1c0.6,1.3,1.3,2.4,2.1,3.6
		c0.9,1.3,3.3,3.5,3.3,3.5c2.8,2.2,6.1,3.6,9.7,3.6h0c1.4,0,2.7-0.2,4.1-0.6c1.3-0.4,2.6-0.9,3.7-1.6c1.2-0.7,2.3-1.6,3.2-2.6
		c1-1,1.9-2.1,2.6-3.2c0.8-1.2,1.4-2.4,1.9-3.7c0.6-1.3,1-2.8,1.3-4.2c0.3-1.5,0.5-3,0.5-4.5C58.5,36.2,58.4,34.6,58.1,33.1"/>
</g>
</svg>
