<?xml version="1.0" encoding="utf-8"?>
<!-- Generator: Adobe Illustrator 17.1.0, SVG Export Plug-In . SVG Version: 6.00 Build 0)  -->
<!DOCTYPE svg PUBLIC "-//W3C//DTD SVG 1.1//EN" "http://www.w3.org/Graphics/SVG/1.1/DTD/svg11.dtd">
<svg version="1.1" id="Capa_1" xmlns="http://www.w3.org/2000/svg" xmlns:xlink="http://www.w3.org/1999/xlink" x="0px" y="0px"
	 viewBox="0 0 70.6 70.6" enable-background="new 0 0 70.6 70.6" xml:space="preserve">
<path d="M35.3,0C15.8,0,0,15.8,0,35.3c0,19.5,15.8,35.3,35.3,35.3c19.5,0,35.3-15.8,35.3-35.3C70.6,15.8,54.8,0,35.3,0z M46.4,21
	l-4,0c-3.2,0-3.8,1.5-3.8,3.7v4.9h7.5l-1,7.6h-6.6v19.5h-7.9V37.2h-6.6v-7.6h6.6v-5.6c0-6.5,4-10.1,9.8-10.1c2.8,0,5.2,0.2,5.9,0.3
	V21z"/>
</svg>
