<?xml version="1.0" encoding="utf-8"?>
<!-- Generator: Adobe Illustrator 17.1.0, SVG Export Plug-In . SVG Version: 6.00 Build 0)  -->
<!DOCTYPE svg PUBLIC "-//W3C//DTD SVG 1.1//EN" "http://www.w3.org/Graphics/SVG/1.1/DTD/svg11.dtd">
<svg version="1.1" id="Capa_1" xmlns="http://www.w3.org/2000/svg" xmlns:xlink="http://www.w3.org/1999/xlink" x="0px" y="0px"
	 viewBox="0 0 70.6 70.6" enable-background="new 0 0 70.6 70.6" xml:space="preserve">
<g>
	<path d="M35.3,0C15.8,0,0,15.8,0,35.3c0,19.5,15.8,35.3,35.3,35.3c19.5,0,35.3-15.8,35.3-35.3C70.6,15.8,54.8,0,35.3,0z M57.4,51.7
		c0,3.1-2.6,5.7-5.7,5.7H18.8c-3.1,0-5.7-2.6-5.7-5.7V18.8c0-3.1,2.6-5.7,5.7-5.7h32.9c3.1,0,5.7,2.6,5.7,5.7V51.7z"/>
	<ellipse cx="35.3" cy="35.2" rx="8.9" ry="8.6"/>
	<path d="M45.4,26.8h5c1.1,0,2-0.9,2-2v-4.8c0-1.1-0.9-2-2-2h-5c-1.1,0-2,0.9-2,2v4.8C43.4,25.9,44.3,26.8,45.4,26.8z"/>
	<path d="M49.1,35.7C49.1,43,42.9,49,35.3,49s-13.8-6-13.8-13.3c0-1.3,0.2-2.6,0.6-3.8h-4.1v18.7c0,1,0.8,1.8,1.8,1.8h30.8
		c1,0,1.8-0.8,1.8-1.8V31.9h-3.9C48.9,33.1,49.1,34.3,49.1,35.7z"/>
</g>
</svg>
