<?xml version="1.0" encoding="utf-8"?>
<!-- Generator: Adobe Illustrator 17.1.0, SVG Export Plug-In . SVG Version: 6.00 Build 0)  -->
<!DOCTYPE svg PUBLIC "-//W3C//DTD SVG 1.1//EN" "http://www.w3.org/Graphics/SVG/1.1/DTD/svg11.dtd">
<svg version="1.1" id="Layer_1" xmlns="http://www.w3.org/2000/svg" xmlns:xlink="http://www.w3.org/1999/xlink" x="0px" y="0px"
	 viewBox="0 0 566.9 564.9" enable-background="new 0 0 566.9 564.9" xml:space="preserve">
<g>
	<g>
		<g>
			<path d="M114,486.1h3.2l5.2,8l5.2-8h3.2V503h-3v-12.1l-5.3,8h-0.1l-5.3-7.9V503H114V486.1z"/>
			<path d="M134.7,485.5h3.1v2.8h-3.1V485.5z M134.8,490.2h2.9V503h-2.9V490.2z"/>
			<path d="M141.6,490.2h2.9v2c0.8-1.2,2-2.3,4-2.3c2.9,0,4.5,1.9,4.5,4.9v8.1h-2.9v-7.3c0-2-1-3.1-2.7-3.1c-1.7,0-2.9,1.2-2.9,3.2
				v7.2h-2.9V490.2z"/>
			<path d="M156.6,485.5h3.1v2.8h-3.1V485.5z M156.8,490.2h2.9V503h-2.9V490.2z"/>
			<path d="M162.5,501.3l1.3-2c1.4,1,2.9,1.6,4.2,1.6c1.3,0,2-0.5,2-1.4v0c0-1-1.4-1.3-2.9-1.8c-1.9-0.5-4-1.3-4-3.7v0
				c0-2.4,2-3.9,4.5-3.9c1.6,0,3.3,0.6,4.7,1.5l-1.2,2.1c-1.2-0.8-2.5-1.2-3.6-1.2c-1.1,0-1.8,0.5-1.8,1.3v0c0,0.9,1.4,1.3,2.9,1.8
				c1.9,0.6,4,1.4,4,3.7v0c0,2.7-2.1,4-4.7,4C166.1,503.2,164.1,502.6,162.5,501.3z"/>
			<path d="M176,499.5v-6.7h-1.6v-2.5h1.6v-3.5h2.9v3.5h3.4v2.5h-3.4v6.3c0,1.1,0.6,1.6,1.6,1.6c0.7,0,1.2-0.1,1.8-0.4v2.4
				c-0.7,0.4-1.5,0.7-2.6,0.7C177.5,503.2,176,502.3,176,499.5z"/>
			<path d="M184.2,496.7L184.2,496.7c0-3.7,2.6-6.7,6.2-6.7c4.1,0,6.1,3.2,6.1,6.9c0,0.3,0,0.5,0,0.8h-9.4c0.3,2.1,1.8,3.2,3.7,3.2
				c1.4,0,2.4-0.5,3.5-1.5l1.7,1.5c-1.2,1.5-2.9,2.4-5.2,2.4C187.1,503.3,184.2,500.6,184.2,496.7z M193.7,495.7
				c-0.2-1.9-1.3-3.4-3.2-3.4c-1.8,0-3,1.4-3.3,3.4H193.7z"/>
			<path d="M199.5,490.2h2.9v2.9c0.8-1.9,2.3-3.2,4.5-3.1v3.1h-0.2c-2.6,0-4.4,1.7-4.4,5.1v4.9h-2.9V490.2z"/>
			<path d="M209.6,485.5h3.1v2.8h-3.1V485.5z M209.7,490.2h2.9V503h-2.9V490.2z"/>
			<path d="M215.7,496.7L215.7,496.7c0-3.7,2.9-6.7,6.8-6.7c3.9,0,6.8,3,6.8,6.6v0c0,3.6-2.9,6.7-6.8,6.7
				C218.6,503.3,215.7,500.3,215.7,496.7z M226.4,496.7L226.4,496.7c0-2.3-1.6-4.2-3.9-4.2c-2.3,0-3.8,1.8-3.8,4.1v0
				c0,2.2,1.6,4.1,3.9,4.1C224.9,500.7,226.4,498.9,226.4,496.7z"/>
			<path d="M238.9,496.6L238.9,496.6c0-4.3,2.9-6.7,5.9-6.7c2.1,0,3.4,1.1,4.4,2.3v-6.9h2.9V503h-2.9v-2.1c-0.9,1.3-2.3,2.4-4.4,2.4
				C241.8,503.3,238.9,500.9,238.9,496.6z M249.2,496.6L249.2,496.6c0-2.5-1.7-4.1-3.7-4.1c-2,0-3.7,1.5-3.7,4.1v0
				c0,2.5,1.7,4.1,3.7,4.1C247.5,500.7,249.2,499.1,249.2,496.6z"/>
			<path d="M255.1,496.7L255.1,496.7c0-3.7,2.6-6.7,6.2-6.7c4.1,0,6.1,3.2,6.1,6.9c0,0.3,0,0.5,0,0.8H258c0.3,2.1,1.8,3.2,3.7,3.2
				c1.4,0,2.4-0.5,3.5-1.5l1.7,1.5c-1.2,1.5-2.9,2.4-5.2,2.4C257.9,503.3,255.1,500.6,255.1,496.7z M264.5,495.7
				c-0.2-1.9-1.3-3.4-3.2-3.4c-1.8,0-3,1.4-3.3,3.4H264.5z"/>
			<path d="M278,486.1h3.2l5.2,8l5.2-8h3.2V503h-3v-12.1l-5.3,8h-0.1l-5.3-7.9V503H278V486.1z"/>
			<path d="M297.9,496.7L297.9,496.7c0-3.7,2.9-6.7,6.8-6.7s6.8,3,6.8,6.6v0c0,3.6-2.9,6.7-6.8,6.7
				C300.8,503.3,297.9,500.3,297.9,496.7z M308.6,496.7L308.6,496.7c0-2.3-1.6-4.2-3.9-4.2c-2.3,0-3.8,1.8-3.8,4.1v0
				c0,2.2,1.6,4.1,3.9,4.1C307.1,500.7,308.6,498.9,308.6,496.7z"/>
			<path d="M313.9,496.6L313.9,496.6c0-4.3,2.9-6.7,5.9-6.7c2.1,0,3.4,1.1,4.4,2.3v-6.9h2.9V503h-2.9v-2.1c-0.9,1.3-2.3,2.4-4.4,2.4
				C316.8,503.3,313.9,500.9,313.9,496.6z M324.2,496.6L324.2,496.6c0-2.5-1.7-4.1-3.7-4.1c-2,0-3.7,1.5-3.7,4.1v0
				c0,2.5,1.7,4.1,3.7,4.1C322.4,500.7,324.2,499.1,324.2,496.6z"/>
			<path d="M330,496.7L330,496.7c0-3.7,2.6-6.7,6.2-6.7c4.1,0,6.1,3.2,6.1,6.9c0,0.3,0,0.5,0,0.8h-9.4c0.3,2.1,1.8,3.2,3.7,3.2
				c1.4,0,2.4-0.5,3.5-1.5l1.7,1.5c-1.2,1.5-2.9,2.4-5.2,2.4C332.9,503.3,330,500.6,330,496.7z M339.5,495.7
				c-0.2-1.9-1.3-3.4-3.2-3.4c-1.8,0-3,1.4-3.3,3.4H339.5z"/>
			<path d="M345.3,490.2h2.9v2.9c0.8-1.9,2.3-3.2,4.5-3.1v3.1h-0.2c-2.6,0-4.4,1.7-4.4,5.1v4.9h-2.9V490.2z"/>
			<path d="M355.3,490.2h2.9v2c0.8-1.2,2-2.3,4-2.3c2.9,0,4.5,1.9,4.5,4.9v8.1h-2.9v-7.3c0-2-1-3.1-2.7-3.1c-1.7,0-2.9,1.2-2.9,3.2
				v7.2h-2.9V490.2z"/>
			<path d="M370.4,485.5h3.1v2.8h-3.1V485.5z M370.5,490.2h2.9V503h-2.9V490.2z"/>
			<path d="M376.6,501l7.4-8.4h-7.1v-2.4h10.8v2l-7.4,8.4h7.4v2.4h-11.1V501z"/>
			<path d="M398.6,503v-1.6c-0.9,1-2.2,1.8-4.1,1.8c-2.4,0-4.5-1.4-4.5-3.9v0c0-2.8,2.2-4.2,5.2-4.2c1.5,0,2.5,0.2,3.5,0.5v-0.2
				c0-1.8-1.1-2.7-3.1-2.7c-1.4,0-2.5,0.3-3.7,0.8l-0.8-2.3c1.4-0.6,2.8-1.1,4.9-1.1c3.8,0,5.6,2,5.6,5.4v7.6H398.6z M398.7,497.6
				c-0.8-0.3-1.8-0.5-2.9-0.5c-1.8,0-2.9,0.7-2.9,2v0c0,1.2,1.1,1.9,2.5,1.9c1.9,0,3.4-1.1,3.4-2.7V497.6z"/>
			<path d="M404.3,496.7L404.3,496.7c0-3.7,2.8-6.7,6.6-6.7c2.4,0,3.9,0.9,5.1,2.2l-1.8,2c-0.9-0.9-1.8-1.6-3.3-1.6
				c-2.1,0-3.7,1.8-3.7,4.1v0c0,2.3,1.6,4.1,3.8,4.1c1.4,0,2.4-0.7,3.3-1.6l1.8,1.7c-1.3,1.4-2.7,2.4-5.2,2.4
				C407.1,503.3,404.3,500.3,404.3,496.7z"/>
			<path d="M418.8,485.5h3.1v2.8h-3.1V485.5z M418.9,490.2h2.9V503h-2.9V490.2z"/>
			<path d="M425,496.7L425,496.7c0-3.7,2.9-6.7,6.8-6.7c3.9,0,6.8,3,6.8,6.6v0c0,3.6-2.9,6.7-6.8,6.7
				C427.9,503.3,425,500.3,425,496.7z M435.7,496.7L435.7,496.7c0-2.3-1.6-4.2-3.9-4.2c-2.3,0-3.8,1.8-3.8,4.1v0
				c0,2.2,1.6,4.1,3.9,4.1C434.2,500.7,435.7,498.9,435.7,496.7z M433.1,484.6l2.7,1.2l-3,2.8h-2.2L433.1,484.6z"/>
			<path d="M441.6,490.2h2.9v2c0.8-1.2,2-2.3,4-2.3c2.9,0,4.5,1.9,4.5,4.9v8.1h-2.9v-7.3c0-2-1-3.1-2.7-3.1c-1.7,0-2.9,1.2-2.9,3.2
				v7.2h-2.9V490.2z"/>
		</g>
		<g>
			<path d="M51.9,325.1h10.4v49.6h31v9.4H51.9V325.1z"/>
			<path d="M128.1,384.1v-5.5c-3,3.6-7.7,6.4-14.4,6.4c-8.4,0-15.9-4.8-15.9-13.8v-0.2c0-9.9,7.7-14.6,18.1-14.6
				c5.4,0,8.9,0.8,12.3,1.9v-0.8c0-6.2-3.9-9.5-11-9.5c-5,0-8.7,1.1-12.7,2.8l-2.8-8.2c4.9-2.2,9.7-3.7,17-3.7
				c13.2,0,19.6,6.9,19.6,18.8v26.4H128.1z M128.3,365.5c-2.6-1-6.2-1.8-10.2-1.8c-6.4,0-10.2,2.6-10.2,6.9v0.2
				c0,4.2,3.8,6.6,8.6,6.6c6.7,0,11.8-3.8,11.8-9.4V365.5z"/>
			<path d="M158.4,377.2v6.9h-10.2v-61.6h10.2V347c3.3-4.6,7.9-8.4,15.1-8.4c10.5,0,20.8,8.4,20.8,23.1v0.2
				c0,14.8-10.1,23.1-20.8,23.1C166.2,385.1,161.5,381.4,158.4,377.2z M183.9,362v-0.2c0-8.6-5.8-14.3-12.7-14.3
				c-6.9,0-13,5.7-13,14.3v0.2c0,8.6,6.1,14.3,13,14.3C178.2,376.2,183.9,370.7,183.9,362z"/>
			<path d="M200.2,362.1V362c0-12.7,10.1-23.3,23.8-23.3c13.7,0,23.7,10.4,23.7,23.1v0.2c0,12.7-10.1,23.2-23.9,23.2
				C210.2,385.2,200.2,374.8,200.2,362.1z M237.5,362.1V362c0-7.8-5.7-14.3-13.7-14.3c-8.2,0-13.4,6.4-13.4,14.2v0.2
				c0,7.8,5.7,14.3,13.6,14.3C232.2,376.3,237.5,369.8,237.5,362.1z"/>
			<path d="M256,339.6h10.2v10c2.8-6.7,7.9-11.2,15.8-10.9v10.8h-0.6c-8.9,0-15.2,5.8-15.2,17.6v17H256V339.6z"/>
			<path d="M313.8,384.1v-5.5c-3,3.6-7.7,6.4-14.4,6.4c-8.4,0-15.9-4.8-15.9-13.8v-0.2c0-9.9,7.7-14.6,18.1-14.6
				c5.4,0,8.9,0.8,12.3,1.9v-0.8c0-6.2-3.9-9.5-11-9.5c-5,0-8.7,1.1-12.7,2.8l-2.8-8.2c4.9-2.2,9.7-3.7,17-3.7
				c13.2,0,19.6,6.9,19.6,18.8v26.4H313.8z M314.1,365.5c-2.6-1-6.2-1.8-10.2-1.8c-6.4,0-10.2,2.6-10.2,6.9v0.2
				c0,4.2,3.8,6.6,8.6,6.6c6.7,0,11.8-3.8,11.8-9.4V365.5z"/>
			<path d="M335.7,371.8v-23.5H330v-8.8h5.7v-12.2h10.2v12.2h12v8.8h-12v21.8c0,4,2,5.6,5.5,5.6c2.3,0,4.3-0.5,6.3-1.5v8.4
				c-2.5,1.4-5.4,2.3-9.2,2.3C341,384.9,335.7,381.6,335.7,371.8z"/>
			<path d="M362.3,362.1V362c0-12.7,10.1-23.3,23.8-23.3c13.7,0,23.7,10.4,23.7,23.1v0.2c0,12.7-10.1,23.2-23.9,23.2
				C372.4,385.2,362.3,374.8,362.3,362.1z M399.6,362.1V362c0-7.8-5.7-14.3-13.7-14.3c-8.2,0-13.4,6.4-13.4,14.2v0.2
				c0,7.8,5.7,14.3,13.6,14.3C394.4,376.3,399.6,369.8,399.6,362.1z"/>
			<path d="M418.1,339.6h10.2v10c2.8-6.7,7.9-11.2,15.8-10.9v10.8h-0.6c-8.9,0-15.2,5.8-15.2,17.6v17h-10.2V339.6z"/>
			<path d="M451,323.1h11v9.7h-11V323.1z M451.4,339.6h10.2v44.5h-10.2V339.6z"/>
			<path d="M470.4,362.1V362c0-12.7,10.1-23.3,23.8-23.3c13.7,0,23.7,10.4,23.7,23.1v0.2c0,12.7-10.1,23.2-23.9,23.2
				C480.4,385.2,470.4,374.8,470.4,362.1z M507.7,362.1V362c0-7.8-5.7-14.3-13.7-14.3c-8.2,0-13.4,6.4-13.4,14.2v0.2
				c0,7.8,5.7,14.3,13.6,14.3C502.5,376.3,507.7,369.8,507.7,362.1z"/>
			<path d="M49.2,437.3v-0.2c0-13.5,10.2-21.8,20.2-21.8c8.3,0,13.7,4.7,17.1,9.9v-26.9h4V458h-4v-9.3c-3.6,5.5-8.9,10.3-17.1,10.3
				C59.4,458.9,49.2,450.9,49.2,437.3z M86.7,437.3v-0.2c0-10.7-8.3-17.8-17-17.8c-9,0-16.3,6.6-16.3,17.8v0.2
				c0,10.9,7.6,17.9,16.3,17.9C78.4,455.1,86.7,447.9,86.7,437.3z"/>
			<path d="M100.8,437.3v-0.2c0-12.1,8.5-21.7,19.7-21.7c11.7,0,19.1,9.5,19.1,21.8c0,0.7,0,1-0.1,1.6H105
				c0.7,10.4,8.2,16.4,16.3,16.4c6.4,0,10.8-2.9,14.3-6.5l2.8,2.4c-4.2,4.6-9.2,7.8-17.2,7.8C110.2,458.9,100.8,450.2,100.8,437.3z
				 M135.2,435.2c-0.6-8.4-5.4-16.1-14.9-16.1c-8.2,0-14.6,6.9-15.3,16.1H135.2z"/>
			<path d="M170,429.6v-0.2c0-15.4,11.2-29.5,28.2-29.5c9.3,0,15.2,2.8,20.9,7.5l-2.8,3.2c-4.5-3.9-9.7-6.8-18.3-6.8
				c-13.9,0-23.6,11.7-23.6,25.5v0.2c0,14.8,9.2,25.8,24.5,25.8c7.3,0,14-3,18.2-6.5v-16.4h-19.1v-3.9h23.1v22
				c-5.1,4.6-13.1,8.6-22.4,8.6C180.6,458.9,170,445.7,170,429.6z"/>
			<path d="M230.6,437.3v-0.2c0-11.7,9-21.8,21.4-21.8c12.3,0,21.3,9.9,21.3,21.6v0.2c0,11.7-9,21.8-21.4,21.8
				C239.6,458.9,230.6,449,230.6,437.3z M269,437.3v-0.2c0-10-7.5-18-17.1-18c-9.9,0-17,8.1-17,17.9v0.2c0,10,7.5,18,17.1,18
				C261.9,455.2,269,447.1,269,437.3z"/>
			<path d="M287.6,449v9h-4v-59.5h4v27.2c3.6-5.5,8.9-10.3,17.1-10.3c10,0,20.2,8.1,20.2,21.6v0.2c0,13.5-10.2,21.8-20.2,21.8
				C296.4,458.9,291,454.2,287.6,449z M320.6,437.3v-0.2c0-10.9-7.6-17.9-16.3-17.9c-8.6,0-17,7.3-17,17.8v0.2
				c0,10.7,8.3,17.9,17,17.9C313.3,455.1,320.6,448.5,320.6,437.3z"/>
			<path d="M335.4,400.1h5v5.5h-5V400.1z M335.9,416.4h4V458h-4V416.4z"/>
			<path d="M350.7,437.3v-0.2c0-12.1,8.5-21.7,19.7-21.7c11.7,0,19.1,9.5,19.1,21.8c0,0.7,0,1-0.1,1.6H355
				c0.7,10.4,8.2,16.4,16.3,16.4c6.4,0,10.8-2.9,14.3-6.5l2.8,2.4c-4.2,4.6-9.2,7.8-17.2,7.8C360.2,458.9,350.7,450.2,350.7,437.3z
				 M385.2,435.2c-0.6-8.4-5.4-16.1-14.9-16.1c-8.2,0-14.6,6.9-15.3,16.1H385.2z"/>
			<path d="M399.1,416.4h4v11.8c3.3-7.4,10.2-12.8,18.4-12.5v4.4h-0.4c-9.6,0-18,7.3-18,20.8v17h-4V416.4z"/>
			<path d="M429.7,416.4h4v7.7c2.8-4.9,7.4-8.7,15-8.7c10.5,0,16.6,7.2,16.6,17.1V458h-4v-24.7c0-8.6-4.8-14.2-13.2-14.2
				c-8.2,0-14.4,6.2-14.4,14.8v24h-4V416.4z"/>
			<path d="M474.8,437.3v-0.2c0-11.7,9-21.8,21.4-21.8c12.3,0,21.3,9.9,21.3,21.6v0.2c0,11.7-9,21.8-21.4,21.8
				C483.7,458.9,474.8,449,474.8,437.3z M513.2,437.3v-0.2c0-10-7.5-18-17.1-18c-9.9,0-17,8.1-17,17.9v0.2c0,10,7.5,18,17.1,18
				C506.1,455.2,513.2,447.1,513.2,437.3z"/>
		</g>
	</g>
	<g>
		<g>
			<g>
				<g>
					<g>
						<g>
							<g>
								<g>
									<path stroke="#000000" stroke-width="1.4" stroke-miterlimit="10" d="M274.7,283.7c-2.7,0-5.3-1.1-7.2-3
										c-1.9-1.9-3-4.5-3-7.2v-23c0-0.7-0.5-1.2-1.2-1.2c-0.2,0-0.3,0-0.5,0.1c-1.2,0.7-2.5,1.5-3.7,2l-4.7,2.3
										c-12.9,5.5-26.5,8.3-40.7,8.3h-71.9c-15.8,0-28.7-12.9-28.7-28.7V109.6c0-15.8,12.9-28.7,28.7-28.7h66.5
										c14.6,0,29.1,3.5,41.9,10.2c0.1,0,0.2,0.1,0.2,0.1c15.5,8,25.2,23.8,25.2,41.3c0,12.7-5.2,24.8-14.3,33.5
										c6.7,3.8,12.5,9.1,16.7,15.5l42.9-82.8c6.3-12.6,19-20.4,33.1-20.4c14.1,0,26.8,7.8,33.2,20.5c0,0.1,0,0.1,0.1,0.2
										l63,121.5c2.4,4.3,3.7,9.2,3.7,14.2c0,15.8-12.9,28.7-28.7,28.7c-11.2,0-21.5-6.6-26.1-16.9c-0.1-0.1-0.1-0.2-0.1-0.3
										c-1.4-3.2-4.7-5.4-8.3-5.4h-68.5c-0.3,0-0.6,0.1-0.8,0.3l-39.4,39.5C279.9,282.6,277.4,283.7,274.7,283.7z M263.3,246.6
										c2.1,0,3.9,1.7,3.9,3.9v23c0,2,0.8,3.9,2.2,5.3c1.4,1.4,3.3,2.2,5.3,2.2c2,0,3.9-0.8,5.3-2.2l39.4-39.4
										c0.7-0.8,1.7-1.1,2.7-1.1h68.5c4.7,0,8.9,2.8,10.8,7.1l0.1,0.2c4.2,9.3,13.5,15.3,23.7,15.3c14.4,0,26.1-11.7,26.1-26
										c0-4.5-1.2-9-3.4-12.8c0,0,0-0.1-0.1-0.1l-63-121.6c0,0-0.1-0.1-0.1-0.1C378.9,88.3,367.1,81,354,81
										c-13.1,0-24.9,7.3-30.7,19l-43.9,84.8c-0.2,0.4-0.7,0.7-1.1,0.8c-0.5,0-0.9-0.2-1.2-0.7c-4.4-7.5-10.9-13.5-18.6-17.4
										c-0.4-0.2-0.7-0.6-0.7-1c-0.1-0.4,0.1-0.9,0.4-1.2c9.4-8.3,14.8-20.3,14.8-32.8c0-16.4-9.1-31.4-23.7-38.9l-0.1,0
										c0,0-0.1,0-0.1-0.1c-12.5-6.5-26.6-9.9-40.7-9.9h-66.5c-14.4,0-26,11.6-26,26v123.7c0,14.4,11.7,26,26,26h71.9
										c13.8,0,27.1-2.7,39.6-8.1l4.6-2.2c1.2-0.6,2.4-1.3,3.6-2c0,0,0.1-0.1,0.1-0.1C262.1,246.7,262.7,246.6,263.3,246.6z
										 M275.5,275.6c-1.3,0-2.5-0.5-3.4-1.3c-0.9-0.9-1.4-2.1-1.4-3.3v-22.4c0-3.5-2.6-6.4-8.2-6.4c-1.1,0-2.2,0.3-3.1,0.8
										c0,0-0.1,0-0.1,0c-1.1,0.7-2.2,1.3-3.3,1.8l-4.4,2.1c-12.1,5.1-24.9,7.7-38.1,7.7h-70c-12.7,0-23.1-10.2-23.1-22.7V111.6
										c0-12.6,10.4-22.7,22.1-22.7h64.7c14.7,0,27.2,3.3,39.2,9.5c0,0,0.2,0.1,0.2,0.1c13.4,6.9,21.8,20.5,21.8,35.4
										c0,12.8-6.3,24.9-16.9,32.4c-0.4,0.3-0.6,0.8-0.5,1.2c0,0.5,0.4,0.9,0.8,1.1c10.2,4,19.7,11.8,24.2,21.7
										c0.2,0.5,1.6,0.8,2.2,0.8c0.5,0,2-0.3,2.2-0.7l45.7-87c5.4-10.5,16.1-17,28-17c11.8,0,21.5,6.5,26.9,16.8
										c0,0.1,0,0.1,0,0.1c0,0,0,0.1,0,0.1L443.5,222c0,0.1,0.1,0.1,0.1,0.1c1.9,3.4,2.9,7.3,2.9,11.1c0,12.5-8.3,22.7-21,22.7
										c-9,0-17.2-5.2-21-13.2c0,0,0-0.1,0-0.1c-2.3-5.2-7.4-8.6-13.2-8.6h-68.9c-1.7,0-3.4,0.7-4.6,1.9l-39,38.4
										C278,275.1,276.7,275.6,275.5,275.6z M263.5,239.6c5,0,9.8,4,9.8,9v22.4c0,0.6,0.2,1.1,0.6,1.5c0.7,0.7,2.2,0.7,3,0
										l38.9-38.4c1.7-1.7,4-2.7,6.4-2.7h68.9c6.8,0,12.9,4,15.6,10.2c0,0,0,0.1,0,0.1c3.3,7,10.6,11.6,18.6,11.6
										c11.3,0,18.4-9,18.4-20.1c0-3.4-0.9-6.8-2.6-9.8c0,0-0.1-0.2-0.2-0.3l-62.4-118.6c-0.1-0.1-0.1-0.2-0.1-0.3
										c-5-9.5-13.7-15.4-24.5-15.4c-10.9,0-20.7,6-25.6,15.6l-45.8,87c-0.8,1.7-2.8,2.1-3.5,2.1c-3.9,0.3-5-0.9-5.7-2.3
										c-4.2-9.3-13.2-16.7-22.8-20.4c-1.4-0.5-2.3-1.7-2.5-3.1c-0.2-1.4,0.4-2.8,1.6-3.6c9.9-7,15.8-18.4,15.8-30.3
										c0-14-7.8-26.6-20.3-33.1c-0.1,0-0.2-0.1-0.3-0.1c-11.6-6-24.7-9.2-37.9-9.2h-63.6c-11.3,0-20.4,9-20.4,20.1v120.3
										c0,11.1,9.2,20.1,20.4,20.1h70c12.8,0,25.3-2.5,37-7.4l4.4-2.1c1-0.5,2-1,3-1.6c0,0,0.1-0.1,0.2-0.1
										C259.4,240,261,239.6,263.5,239.6z"/>
								</g>
							</g>
							<path d="M459.3,257.4h-0.8v-0.8h0.8V257.4z M455.3,257.4h-1.1v-0.8h1.1V257.4z M446.8,257.4h-1.1v-0.8h1.1V257.4z M404,257.4
								h-1.1v-0.8h1.1V257.4z M399.7,257.4h-1.1v-0.8h1.1V257.4z M395.4,257.4h-1.1v-0.8h1.1V257.4z M391.2,257.4h-1.1v-0.8h1.1
								V257.4z M386.9,257.4h-1.1v-0.8h1.1V257.4z M382.6,257.4h-1.1v-0.8h1.1V257.4z M378.3,257.4h-1.1v-0.8h1.1V257.4z M374,257.4
								H373v-0.8h1.1V257.4z M369.8,257.4h-1.1v-0.8h1.1V257.4z M365.5,257.4h-1.1v-0.8h1.1V257.4z M361.2,257.4h-1.1v-0.8h1.1
								V257.4z M356.9,257.4h-1.1v-0.8h1.1V257.4z M352.6,257.4h-1.1v-0.8h1.1V257.4z M348.4,257.4h-1.1v-0.8h1.1V257.4z
								 M344.1,257.4H343v-0.8h1.1V257.4z M339.8,257.4h-1.1v-0.8h1.1V257.4z M335.5,257.4h-1.1v-0.8h1.1V257.4z M331.3,257.4h-1.1
								v-0.8h1.1V257.4z M327,257.4h-1.1v-0.8h1.1V257.4z M322.7,257.4h-1.1v-0.8h1.1V257.4z M318.4,257.4h-1.1v-0.8h1.1V257.4z
								 M314.2,257.4h-1.1v-0.8h1.1V257.4z M309.9,257.4h-1.1v-0.8h1.1V257.4z M288.5,257.4h-1.1v-0.8h1.1V257.4z M284.2,257.4h-1.1
								v-0.8h1.1V257.4z M279.9,257.4h-1v-0.8h1V257.4z M275.6,257.4h-1v-0.8h1V257.4z M262.8,257.4h-1.1v-0.8h1.1V257.4z
								 M258.5,257.4h-1v-0.8h1V257.4z M254.2,257.4h-1v-0.8h1V257.4z M250,257.4h-1.1v-0.8h1.1V257.4z M245.7,257.4h-1.1v-0.8h1.1
								V257.4z M241.4,257.4h-1.1v-0.8h1.1V257.4z M237.1,257.4h-1.1v-0.8h1.1V257.4z M232.8,257.4h-1v-0.8h1V257.4z M228.6,257.4
								h-1.1v-0.8h1.1V257.4z M224.3,257.4h-1.1v-0.8h1.1V257.4z M220,257.4h-1.1v-0.8h1.1V257.4z M215.7,257.4h-1.1v-0.8h1.1V257.4
								z M211.5,257.4h-1.1v-0.8h1.1V257.4z M207.2,257.4h-1.1v-0.8h1.1V257.4z M202.9,257.4h-1.1v-0.8h1.1V257.4z M198.6,257.4
								h-1.1v-0.8h1.1V257.4z M194.4,257.4h-1.1v-0.8h1.1V257.4z M190.1,257.4H189v-0.8h1.1V257.4z M185.8,257.4h-1.1v-0.8h1.1
								V257.4z M181.5,257.4h-1.1v-0.8h1.1V257.4z M177.2,257.4h-1.1v-0.8h1.1V257.4z M173,257.4h-1.1v-0.8h1.1V257.4z M168.7,257.4
								h-1.1v-0.8h1.1V257.4z M164.4,257.4h-1.1v-0.8h1.1V257.4z M160.1,257.4h-1.1v-0.8h1.1V257.4z M155.8,257.4h-1.1v-0.8h1.1
								V257.4z M151.6,257.4h-1.1v-0.8h1.1V257.4z M147.3,257.4h-1.1v-0.8h1.1V257.4z M143,257.4h-1.1v-0.8h1.1V257.4z M138.7,257.4
								h-1.1v-0.8h1.1V257.4z M134.5,257.4h-1.1v-0.8h1.1V257.4z M130.2,257.4h-1.1v-0.8h1.1V257.4z M125.9,257.4h-1.1v-0.8h1.1
								V257.4z M121.6,257.4h-1.1v-0.8h1.1V257.4z M117.3,257.4h-1.1v-0.8h1.1V257.4z M113.1,257.4H112v-0.8h1.1V257.4z
								 M108.8,257.4h-1.1v-0.8h1.1V257.4z"/>
							<path d="M268.9,295.1h-0.8v-0.5h0.8V295.1z M268.9,291.3h-0.8v-1.1h0.8V291.3z M268.9,287.1h-0.8V286h0.8V287.1z
								 M268.9,282.8h-0.8v-1.1h0.8V282.8z M268.9,274.2h-0.8v-1.1h0.8V274.2z M268.9,269.9h-0.8v-1h0.8V269.9z M268.9,265.7h-0.8
								v-1.1h0.8V265.7z M268.9,261.4h-0.8v-1.1h0.8V261.4z M268.9,257.1h-0.8V256h0.8V257.1z M268.9,252.8h-0.8v-1.1h0.8V252.8z
								 M268.9,248.6h-0.8v-1.1h0.8V248.6z M268.9,240h-0.8v-1.1h0.8V240z M268.9,235.7h-0.8v-1.1h0.8V235.7z M268.9,231.4h-0.8
								v-1.1h0.8V231.4z M268.9,227.1h-0.8v-1h0.8V227.1z M268.9,222.9h-0.8v-1.1h0.8V222.9z M268.9,218.6h-0.8v-1.1h0.8V218.6z
								 M268.9,214.3h-0.8v-1h0.8V214.3z M268.9,210.1h-0.8V209h0.8V210.1z M268.9,205.8h-0.8v-1.1h0.8V205.8z M268.9,201.5h-0.8
								v-1.1h0.8V201.5z M268.9,197.2h-0.8v-1.1h0.8V197.2z M268.9,192.9h-0.8v-1.1h0.8V192.9z M268.9,188.7h-0.8v-1.1h0.8V188.7z
								 M268.9,184.4h-0.8v-1h0.8V184.4z M268.9,180.1h-0.8V179h0.8V180.1z M268.9,175.8h-0.8v-1.1h0.8V175.8z M268.9,171.5h-0.8v-1
								h0.8V171.5z M268.9,167.3h-0.8v-1.1h0.8V167.3z M268.9,163h-0.8v-1.1h0.8V163z M268.9,158.7h-0.8v-1.1h0.8V158.7z
								 M268.9,154.4h-0.8v-1.1h0.8V154.4z M268.9,150.2h-0.8v-1.1h0.8V150.2z M268.9,145.9h-0.8v-1.1h0.8V145.9z M268.9,141.6h-0.8
								v-1.1h0.8V141.6z M268.9,137.3h-0.8v-1.1h0.8V137.3z M268.9,133.1h-0.8V132h0.8V133.1z M268.9,128.7h-0.8v-1h0.8V128.7z
								 M268.9,124.5h-0.8v-1.1h0.8V124.5z M268.9,120.2h-0.8v-1.1h0.8V120.2z M268.9,115.9h-0.8v-1.1h0.8V115.9z M268.9,111.7h-0.8
								v-1.1h0.8V111.7z M268.9,107.4h-0.8v-1.1h0.8V107.4z M268.9,103.1h-0.8V102h0.8V103.1z M268.9,98.8h-0.8v-1.1h0.8V98.8z
								 M268.9,94.5h-0.8v-1.1h0.8V94.5z M268.9,90.3h-0.8v-1.1h0.8V90.3z M268.9,81.7h-0.8v-1.1h0.8V81.7z M268.9,77.4h-0.8v-1.1
								h0.8V77.4z M268.9,73.1h-0.8v-1h0.8V73.1z"/>
							<path d="M450.3,269.9h-0.8v-1h0.8V269.9z M450.3,265.7h-0.8v-1.1h0.8V265.7z M450.3,261.4h-0.8v-1.1h0.8V261.4z M450.3,257.1
								h-0.8V256h0.8V257.1z M450.3,252.8h-0.8v-1.1h0.8V252.8z M450.3,218.6h-0.8v-1.1h0.8V218.6z M450.3,214.3h-0.8v-1h0.8V214.3z
								 M450.3,210.1h-0.8V209h0.8V210.1z M450.3,205.8h-0.8v-1.1h0.8V205.8z M450.3,201.5h-0.8v-1.1h0.8V201.5z M450.3,197.2h-0.8
								v-1.1h0.8V197.2z M450.3,192.9h-0.8v-1.1h0.8V192.9z M450.3,188.7h-0.8v-1.1h0.8V188.7z M450.3,184.4h-0.8v-1h0.8V184.4z
								 M450.3,180.1h-0.8V179h0.8V180.1z M450.3,175.8h-0.8v-1.1h0.8V175.8z M450.3,171.5h-0.8v-1h0.8V171.5z M450.3,167.3h-0.8
								v-1.1h0.8V167.3z M450.3,163h-0.8v-1.1h0.8V163z M450.3,158.7h-0.8v-1.1h0.8V158.7z M450.3,154.4h-0.8v-1.1h0.8V154.4z
								 M450.3,150.2h-0.8v-1.1h0.8V150.2z M450.3,145.9h-0.8v-1.1h0.8V145.9z M450.3,141.6h-0.8v-1.1h0.8V141.6z M450.3,137.3h-0.8
								v-1.1h0.8V137.3z M450.3,133.1h-0.8V132h0.8V133.1z M450.3,128.7h-0.8v-1h0.8V128.7z M450.3,124.5h-0.8v-1.1h0.8V124.5z
								 M450.3,120.2h-0.8v-1.1h0.8V120.2z M450.3,115.9h-0.8v-1.1h0.8V115.9z M450.3,111.7h-0.8v-1.1h0.8V111.7z M450.3,107.4h-0.8
								v-1.1h0.8V107.4z M450.3,103.1h-0.8V102h0.8V103.1z M450.3,98.8h-0.8v-1.1h0.8V98.8z M450.3,94.5h-0.8v-1.1h0.8V94.5z
								 M450.3,90.3h-0.8v-1.1h0.8V90.3z M450.3,81.7h-0.8v-1.1h0.8V81.7z M450.3,77.4h-0.8v-1.1h0.8V77.4z M450.3,73.1h-0.8v-1h0.8
								V73.1z"/>
							<path d="M118.5,270.2h-0.8v-1.1h0.8V270.2z M118.5,265.9h-0.8v-1h0.8V265.9z M118.5,261.7h-0.8v-1.1h0.8V261.7z M118.5,253.1
								h-0.8V252h0.8V253.1z M118.5,223.2h-0.8v-1h0.8V223.2z M118.5,218.9h-0.8v-1.1h0.8V218.9z M118.5,214.6h-0.8v-1.1h0.8V214.6z
								 M118.5,210.3h-0.8v-1.1h0.8V210.3z M118.5,206.1h-0.8V205h0.8V206.1z M118.5,201.8h-0.8v-1.1h0.8V201.8z M118.5,197.5h-0.8
								v-1.1h0.8V197.5z M118.5,193.2h-0.8v-1.1h0.8V193.2z M118.5,188.9h-0.8v-1.1h0.8V188.9z M118.5,184.7h-0.8v-1.1h0.8V184.7z
								 M118.5,180.4h-0.8v-1h0.8V180.4z M118.5,176.1h-0.8V175h0.8V176.1z M118.5,171.9h-0.8v-1.1h0.8V171.9z M118.5,167.5h-0.8v-1
								h0.8V167.5z M118.5,163.3h-0.8v-1.1h0.8V163.3z M118.5,159h-0.8v-1.1h0.8V159z M118.5,154.7h-0.8v-1.1h0.8V154.7z
								 M118.5,150.5h-0.8v-1.1h0.8V150.5z M118.5,146.2h-0.8v-1.1h0.8V146.2z M118.5,141.9h-0.8v-1.1h0.8V141.9z M118.5,137.6h-0.8
								v-1h0.8V137.6z M118.5,133.3h-0.8v-1.1h0.8V133.3z M118.5,129.1h-0.8V128h0.8V129.1z M118.5,124.8h-0.8v-1h0.8V124.8z
								 M118.5,120.5h-0.8v-1.1h0.8V120.5z M118.5,103.4h-0.8v-1.1h0.8V103.4z M118.5,90.5h-0.8v-1.1h0.8V90.5z M118.5,82h-0.8v-1
								h0.8V82z M118.5,77.7h-0.8v-1.1h0.8V77.7z M118.5,73.5h-0.8v-1.1h0.8V73.5z"/>
							<path d="M354.4,269.9h-0.8v-1h0.8V269.9z M354.4,265.7h-0.8v-1.1h0.8V265.7z M354.4,261.4h-0.8v-1.1h0.8V261.4z M354.4,252.8
								h-0.8v-1.1h0.8V252.8z M354.4,248.6h-0.8v-1.1h0.8V248.6z M354.4,244.3h-0.8v-1.1h0.8V244.3z M354.4,240h-0.8v-1.1h0.8V240z
								 M354.4,235.7h-0.8v-1.1h0.8V235.7z M354.4,231.4h-0.8v-1.1h0.8V231.4z M354.4,227.1h-0.8v-1h0.8V227.1z M354.4,222.9h-0.8
								v-1.1h0.8V222.9z M354.4,218.6h-0.8v-1.1h0.8V218.6z M354.4,214.3h-0.8v-1h0.8V214.3z M354.4,210.1h-0.8V209h0.8V210.1z
								 M354.4,205.8h-0.8v-1.1h0.8V205.8z M354.4,201.5h-0.8v-1.1h0.8V201.5z M354.4,197.2h-0.8v-1.1h0.8V197.2z M354.4,192.9h-0.8
								v-1.1h0.8V192.9z M354.4,188.7h-0.8v-1.1h0.8V188.7z M354.4,184.4h-0.8v-1h0.8V184.4z M354.4,180.1h-0.8V179h0.8V180.1z
								 M354.4,175.8h-0.8v-1.1h0.8V175.8z M354.4,171.5h-0.8v-1h0.8V171.5z M354.4,167.3h-0.8v-1.1h0.8V167.3z M354.4,163h-0.8
								v-1.1h0.8V163z M354.4,158.7h-0.8v-1.1h0.8V158.7z M354.4,154.4h-0.8v-1.1h0.8V154.4z M354.4,150.2h-0.8v-1.1h0.8V150.2z
								 M354.4,145.9h-0.8v-1.1h0.8V145.9z M354.4,141.6h-0.8v-1.1h0.8V141.6z M354.4,137.3h-0.8v-1.1h0.8V137.3z M354.4,133.1h-0.8
								V132h0.8V133.1z M354.4,128.7h-0.8v-1h0.8V128.7z M354.4,124.5h-0.8v-1.1h0.8V124.5z M354.4,120.2h-0.8v-1.1h0.8V120.2z
								 M354.4,115.9h-0.8v-1.1h0.8V115.9z M354.4,111.7h-0.8v-1.1h0.8V111.7z M354.4,107.4h-0.8v-1.1h0.8V107.4z M354.4,103.1h-0.8
								V102h0.8V103.1z M354.4,98.8h-0.8v-1.1h0.8V98.8z M354.4,94.5h-0.8v-1.1h0.8V94.5z M354.4,90.3h-0.8v-1.1h0.8V90.3z
								 M354.4,86h-0.8v-1h0.8V86z M354.4,81.7h-0.8v-1.1h0.8V81.7z M354.4,77.4h-0.8v-1.1h0.8V77.4z M354.4,73.1h-0.8v-1h0.8V73.1z
								"/>
							<g>
								<path d="M228.5,175.5l0-1.1c1.4,0,2.8-0.1,4.2-0.3l0.1,1.1C231.4,175.4,230,175.5,228.5,175.5z M225.3,175.4
									c-1.5-0.1-2.9-0.2-4.3-0.5l0.2-1.1c1.4,0.2,2.8,0.4,4.2,0.5L225.3,175.4z M236.1,174.7l-0.2-1.1c1.4-0.3,2.7-0.6,4.1-1
									l0.3,1C238.9,174.1,237.5,174.4,236.1,174.7z M217.8,174.3c-1.4-0.3-2.8-0.7-4.2-1.2l0.3-1c1.3,0.5,2.7,0.9,4.1,1.2
									L217.8,174.3z M243.3,172.6l-0.4-1c1.3-0.5,2.6-1.1,3.9-1.7l0.5,0.9C246,171.5,244.7,172.1,243.3,172.6z M210.6,171.9
									c-1.3-0.6-2.6-1.3-3.9-1.9l0.5-0.9c1.2,0.7,2.5,1.3,3.8,1.9L210.6,171.9z M250.2,169.3l-0.6-0.9c1.2-0.7,2.4-1.5,3.5-2.4
									l0.6,0.9C252.6,167.7,251.4,168.5,250.2,169.3z M204,168.3c-1.2-0.8-2.4-1.7-3.5-2.6l0.7-0.8c1.1,0.9,2.2,1.7,3.4,2.5
									L204,168.3z M256.2,164.8l-0.7-0.8c1.1-0.9,2.1-1.9,3-2.9l0.8,0.7C258.4,162.8,257.3,163.8,256.2,164.8z M198.1,163.5
									c-1-1-2-2-3-3.1l0.8-0.7c0.9,1.1,1.9,2.1,2.9,3.1L198.1,163.5z M261.5,159.3l-0.8-0.7c0.9-1.1,1.7-2.2,2.5-3.5l0.9,0.6
									C263.2,157,262.4,158.2,261.5,159.3z M193.1,157.8c-0.9-1.1-1.6-2.4-2.4-3.6l0.9-0.6c0.7,1.2,1.5,2.4,2.3,3.5L193.1,157.8z
									 M265.7,153l-0.9-0.5c0.7-1.2,1.3-2.5,1.8-3.8l1,0.4C267,150.4,266.4,151.7,265.7,153z M189.2,151.3c-0.6-1.3-1.2-2.6-1.7-4
									l1-0.4c0.5,1.3,1.1,2.6,1.7,3.9L189.2,151.3z M268.7,146.1l-1-0.4c0.4-1.3,0.8-2.7,1.1-4.1l1,0.2
									C269.5,143.3,269.1,144.7,268.7,146.1z M186.5,144.3c-0.4-1.4-0.7-2.8-1-4.2l1.1-0.2c0.2,1.4,0.6,2.7,0.9,4.1L186.5,144.3z
									 M270.4,138.7l-1-0.2c0.2-1.4,0.3-2.8,0.4-4.2l1.1,0C270.8,135.8,270.6,137.3,270.4,138.7z M185.1,136.8
									c-0.1-1.4-0.2-2.9-0.2-4.3h1.1c0,1.4,0.1,2.8,0.2,4.2L185.1,136.8z M186,132l-1.1,0c0-1.4,0.1-2.9,0.3-4.3l1.1,0.1
									C186.1,129.2,186,130.6,186,132z M269.8,131.2c-0.1-1.4-0.2-2.8-0.3-4.2l1-0.1c0.2,1.4,0.3,2.9,0.4,4.3L269.8,131.2z
									 M186.7,124.7l-1.1-0.2c0.3-1.4,0.6-2.8,1-4.2l1,0.3C187.3,122,186.9,123.3,186.7,124.7z M268.9,123.8
									c-0.3-1.4-0.6-2.7-1.1-4.1l1-0.3c0.4,1.4,0.8,2.8,1.1,4.2L268.9,123.8z M188.7,117.6l-1-0.4c0.5-1.3,1.1-2.7,1.8-4l1,0.5
									C189.7,115,189.2,116.3,188.7,117.6z M266.7,116.8c-0.5-1.3-1.1-2.6-1.8-3.8l1-0.5c0.7,1.3,1.3,2.6,1.8,3.9L266.7,116.8z
									 M191.9,111l-0.9-0.6c0.7-1.2,1.6-2.4,2.4-3.6l0.9,0.6C193.4,108.6,192.6,109.7,191.9,111z M263.3,110.2
									c-0.7-1.2-1.6-2.3-2.4-3.4l0.8-0.7c0.9,1.1,1.7,2.3,2.5,3.5L263.3,110.2z M196.2,105l-0.8-0.7c1-1.1,2-2.1,3-3.1l0.7,0.8
									C198.2,102.9,197.2,103.9,196.2,105z M258.9,104.3c-0.9-1-2-2.1-3-3l0.7-0.8c1.1,1,2.1,2,3.1,3L258.9,104.3z M201.6,99.9
									l-0.7-0.8c1.1-0.9,2.3-1.8,3.5-2.6l0.6,0.9C203.8,98.2,202.7,99,201.6,99.9z M253.5,99.3c-1.1-0.9-2.3-1.7-3.5-2.4l0.6-0.9
									c1.2,0.7,2.4,1.6,3.6,2.5L253.5,99.3z M207.7,95.8l-0.5-1c1.3-0.7,2.6-1.3,3.9-1.9l0.4,1C210.2,94.5,208.9,95.1,207.7,95.8z
									 M247.2,95.3c-1.2-0.6-2.5-1.3-3.8-1.8l0.4-1c1.4,0.6,2.7,1.2,3.9,1.8L247.2,95.3z M214.5,92.8l-0.3-1
									c1.4-0.5,2.8-0.9,4.2-1.2l0.2,1C217.2,92,215.8,92.3,214.5,92.8z M240.4,92.5c-1.3-0.4-2.7-0.8-4.1-1.1l0.2-1
									c1.4,0.3,2.8,0.7,4.2,1.1L240.4,92.5z M221.6,91.1l-0.1-1.1c1.4-0.2,2.9-0.4,4.3-0.4l0.1,1.1
									C224.4,90.7,223,90.8,221.6,91.1z M233.2,90.9c-1.4-0.2-2.8-0.3-4.2-0.3l0-1.1c1.4,0,2.9,0.1,4.3,0.3L233.2,90.9z"/>
								<path d="M238.9,251.3c-0.7,0-1.3,0-2-0.1l0-1c1.4,0,2.7,0,4.1,0l0.1,1C240.4,251.3,239.7,251.3,238.9,251.3z M233.8,251
									c-1.4-0.2-2.8-0.4-4.1-0.7l0.2-1c1.3,0.3,2.7,0.5,4,0.7L233.8,251z M244.3,250.9l-0.1-1c1.4-0.1,2.7-0.4,4-0.7l0.2,1
									C247.1,250.5,245.7,250.7,244.3,250.9z M226.6,249.5c-1.3-0.4-2.7-0.9-4-1.4l0.4-0.9c1.3,0.5,2.6,0.9,3.9,1.3L226.6,249.5z
									 M251.5,249.4l-0.3-1c1.3-0.4,2.6-0.9,3.9-1.4l0.4,1C254.1,248.5,252.8,249,251.5,249.4z M219.8,246.8
									c-1.2-0.6-2.5-1.3-3.7-2.1l0.5-0.9c1.2,0.8,2.4,1.4,3.6,2L219.8,246.8z M258.3,246.7l-0.5-1c1.2-0.6,2.4-1.3,3.6-2l0.6,0.9
									C260.8,245.4,259.6,246.1,258.3,246.7z M213.5,243c-1.1-0.8-2.2-1.7-3.3-2.6l0.7-0.8c1,0.9,2.1,1.8,3.2,2.6L213.5,243z
									 M264.6,242.9l-0.6-0.8c1.1-0.8,2.2-1.7,3.2-2.6l0.7,0.8C266.8,241.2,265.7,242.1,264.6,242.9z M207.9,238.2
									c-1-1-1.9-2.1-2.8-3.2l0.8-0.6c0.9,1.1,1.8,2.1,2.7,3L207.9,238.2z M270.1,238.1l-0.8-0.7c1-1,1.9-2,2.7-3.1l0.8,0.6
									C272,236,271.1,237,270.1,238.1z M203.2,232.6c-0.8-1.2-1.6-2.4-2.2-3.6l0.9-0.5c0.7,1.2,1.4,2.4,2.2,3.5L203.2,232.6z
									 M274.8,232.4l-0.8-0.6c0.8-1.1,1.5-2.3,2.2-3.5l0.9,0.5C276.3,230,275.5,231.2,274.8,232.4z M199.6,226.2
									c-0.6-1.3-1.1-2.6-1.6-3.9l1-0.4c0.4,1.3,1,2.6,1.6,3.8L199.6,226.2z M278.4,226l-0.9-0.4c0.6-1.3,1.1-2.5,1.5-3.8l1,0.4
									C279.5,223.4,279,224.7,278.4,226z M197,219.3c-0.4-1.4-0.7-2.7-0.9-4.1l1-0.1c0.2,1.3,0.5,2.7,0.9,4L197,219.3z
									 M280.9,219.1l-1-0.3c0.4-1.3,0.6-2.6,0.9-4l1,0.2C281.6,216.4,281.2,217.7,280.9,219.1z M195.7,212.1
									c-0.1-1.4-0.2-2.8-0.2-4.2l0-0.7l1,0l0,0.6c0,1.4,0.1,2.8,0.2,4.1L195.7,212.1z M282.2,211.9l-1-0.1
									c0.1-1.3,0.2-2.6,0.2-3.9v-0.2h1v0.2C282.4,209.2,282.3,210.5,282.2,211.9z M281.2,204.6c-0.1-1.4-0.3-2.8-0.5-4.1l1-0.2
									c0.2,1.4,0.4,2.8,0.5,4.2L281.2,204.6z M196.7,204.1l-1-0.1c0.1-1.4,0.3-2.8,0.6-4.1l1,0.2
									C197,201.4,196.8,202.8,196.7,204.1z M280.1,197.5c-0.3-1.3-0.7-2.6-1.2-3.9l1-0.4c0.5,1.3,0.9,2.6,1.2,4L280.1,197.5z
									 M198,197.1l-1-0.3c0.4-1.4,0.8-2.7,1.3-4l1,0.4C198.7,194.5,198.3,195.8,198,197.1z M277.7,190.7c-0.5-1.3-1.2-2.5-1.8-3.7
									l0.9-0.5c0.7,1.2,1.3,2.5,1.9,3.7L277.7,190.7z M200.4,190.3l-0.9-0.4c0.6-1.3,1.2-2.5,1.9-3.7l0.9,0.5
									C201.6,187.9,200.9,189.1,200.4,190.3z M274.3,184.4c-0.8-1.1-1.6-2.3-2.4-3.3l0.8-0.7c0.9,1.1,1.7,2.2,2.5,3.4L274.3,184.4
									z M203.9,184.1l-0.9-0.6c0.8-1.1,1.6-2.2,2.5-3.3l0.8,0.7C205.5,181.8,204.6,182.9,203.9,184.1z M269.8,178.8
									c-0.9-1-1.9-1.9-2.9-2.9l0.7-0.8c1.1,0.9,2.1,1.9,3,2.9L269.8,178.8z M208.4,178.5l-0.7-0.7c1-1,2-2,3-2.9l0.7,0.8
									C210.3,176.6,209.3,177.5,208.4,178.5z M264.5,174c-1.1-0.8-2.2-1.6-3.4-2.3l0.5-0.9c1.2,0.8,2.4,1.5,3.5,2.4L264.5,174z
									 M213.8,173.8l-0.6-0.8c1.1-0.8,2.3-1.6,3.5-2.3l0.5,0.9C216,172.2,214.9,172.9,213.8,173.8z M258.4,170.2
									c-1.2-0.6-2.5-1.2-3.7-1.7l0.4-0.9c1.3,0.5,2.6,1.1,3.8,1.7L258.4,170.2z M219.9,170l-0.5-0.9c1.3-0.6,2.6-1.2,3.8-1.7
									l0.4,1C222.4,168.8,221.1,169.4,219.9,170z M251.8,167.5c-1.3-0.4-2.6-0.8-4-1.1l0.2-1c1.4,0.3,2.7,0.7,4.1,1.1L251.8,167.5
									z M226.5,167.3l-0.3-1c1.3-0.4,2.7-0.7,4.1-1l0.2,1C229.2,166.6,227.8,166.9,226.5,167.3z M244.8,165.9
									c-1.4-0.2-2.7-0.3-4.1-0.4l0-1c1.4,0,2.8,0.1,4.2,0.3L244.8,165.9z M233.6,165.8l-0.1-1c1.4-0.2,2.8-0.3,4.2-0.3l0,1
									C236.3,165.5,234.9,165.6,233.6,165.8z"/>
								<path d="M142.7,257.6c-0.5,0-0.9,0-1.4,0l0.1-1.1c0.4,0,0.9,0,1.3,0c1,0,1.9,0,2.8-0.2l0.1,1.1
									C144.7,257.5,143.7,257.6,142.7,257.6z M138.1,257.2c-1.4-0.3-2.9-0.7-4.2-1.2l0.4-1c1.3,0.5,2.6,0.9,4,1.1L138.1,257.2z
									 M148.9,256.8l-0.3-1c1.3-0.4,2.7-0.8,3.9-1.4l0.4,1C151.7,256,150.4,256.5,148.9,256.8z M130.9,254.7
									c-1.3-0.7-2.5-1.5-3.7-2.4l0.7-0.8c1.1,0.9,2.3,1.6,3.5,2.3L130.9,254.7z M156,253.9l-0.6-0.9c1.2-0.8,2.3-1.6,3.4-2.5
									l0.7,0.8C158.4,252.2,157.2,253.1,156,253.9z M124.8,250.1c-1-1.1-2-2.2-2.8-3.3l0.9-0.6c0.8,1.1,1.7,2.2,2.7,3.2
									L124.8,250.1z M161.8,249l-0.8-0.7c0.9-1,1.8-2.2,2.5-3.4l0.9,0.6C163.6,246.7,162.7,247.9,161.8,249z M120.3,243.9
									c-0.7-1.3-1.2-2.6-1.7-4.1l1-0.3c0.4,1.3,0.9,2.6,1.6,3.9L120.3,243.9z M165.9,242.5l-1-0.4c0.6-1.2,1-2.6,1.3-3.9l1,0.2
									C166.9,239.8,166.5,241.2,165.9,242.5z M117.9,236.7c-0.2-1.4-0.4-2.9-0.4-4.4h1.1c0,1.4,0.1,2.8,0.4,4.2L117.9,236.7z
									 M167.9,235.2l-1.1-0.1c0.1-0.9,0.1-1.8,0.1-2.7c0-0.5,0-1,0-1.4l1.1-0.1c0,0.5,0,1,0,1.5C168,233.3,168,234.3,167.9,235.2z
									 M118.6,231.1l-1.1-0.1c0.1-1.4,0.3-2.9,0.6-4.3l1,0.2C118.9,228.3,118.7,229.7,118.6,231.1z M166.5,227.8
									c-0.3-1.4-0.6-2.7-1.1-4l1-0.4c0.5,1.4,0.9,2.8,1.2,4.2L166.5,227.8z M120.1,224l-1-0.4c0.5-1.4,1.1-2.7,1.9-3.9l0.9,0.5
									C121.2,221.4,120.6,222.6,120.1,224z M164.1,220.9c-0.7-1.2-1.4-2.4-2.3-3.5l0.8-0.6c0.9,1.1,1.7,2.3,2.4,3.6L164.1,220.9z
									 M123.6,217.6l-0.8-0.7c0.9-1.1,1.9-2.2,3-3.2l0.7,0.8C125.4,215.5,124.5,216.5,123.6,217.6z M159.7,215.1
									c-1-1-2.1-1.8-3.2-2.7l0.6-0.9c1.2,0.8,2.3,1.8,3.4,2.8L159.7,215.1z M128.9,212.5l-0.6-0.9c1.2-0.8,2.5-1.5,3.8-2.2l0.5,1
									C131.3,211.1,130.1,211.8,128.9,212.5z M153.8,210.8c-1.2-0.6-2.5-1.2-3.9-1.6l0.3-1c1.4,0.4,2.8,1,4,1.6L153.8,210.8z
									 M135.5,209.3l-0.3-1c1.4-0.4,2.8-0.7,4.2-0.9l0.2,1.1C138.1,208.6,136.8,208.9,135.5,209.3z M146.8,208.5
									c-1.3-0.2-2.7-0.3-4.1-0.3h-0.1v-1.1h0.1c1.4,0,2.9,0.1,4.3,0.4L146.8,208.5z"/>
								<path d="M392.1,262.3l-0.1-1.1c1.4-0.2,2.7-0.5,3.9-1.1l0.4,1C395,261.8,393.6,262.2,392.1,262.3z M388.8,262.3
									c-1.5-0.2-2.9-0.6-4.2-1.3l0.5-1c1.2,0.6,2.5,1,3.9,1.2L388.8,262.3z M399.2,259.4l-0.7-0.8c1.1-0.9,2-1.9,2.7-3l0.9,0.6
									C401.4,257.4,400.4,258.5,399.2,259.4z M381.8,259.2c-1.1-1-2.1-2.1-2.9-3.4l0.9-0.5c0.7,1.2,1.6,2.2,2.6,3.1L381.8,259.2z
									 M377.5,252.7c-0.4-1.3-0.6-2.6-0.6-4c0-0.1,0-0.3,0-0.4l1.1,0l0,0.4c0,1.3,0.2,2.5,0.6,3.7L377.5,252.7z M378.5,245.3
									l-1-0.3c0.4-1.5,1-2.8,1.9-4.1l0.9,0.6C379.5,242.8,378.8,244,378.5,245.3z M399.1,239.4c-1-0.9-2.2-1.7-3.4-2.2l0.4-1
									c1.4,0.6,2.6,1.4,3.7,2.4L399.1,239.4z M382.2,239.3l-0.7-0.8c1.1-1,2.4-1.8,3.7-2.4l0.4,1
									C384.4,237.7,383.3,238.4,382.2,239.3z M392.7,236.3c-1.3-0.2-2.7-0.2-4.1,0l-0.2-1.1c1.4-0.2,3-0.2,4.4,0L392.7,236.3z"/>
								<path d="M424.4,259c-1,0-2,0-3-0.2l0.1-1c1,0.1,1.9,0.1,2.9,0.1c0.4,0,0.9,0,1.3,0l0.1,1.1C425.3,259,424.8,259,424.4,259z
									 M429,258.6l-0.2-1.1c1.4-0.2,2.7-0.6,4-1.1l0.4,1C431.8,257.9,430.4,258.3,429,258.6z M418.2,258.3
									c-1.4-0.4-2.8-0.8-4.1-1.5l0.4-1c1.3,0.6,2.6,1,3.9,1.4L418.2,258.3z M436.2,256.1l-0.5-0.9c1.2-0.7,2.4-1.4,3.5-2.3
									l0.7,0.8C438.7,254.6,437.5,255.4,436.2,256.1z M411.1,255.3c-1.2-0.7-2.4-1.6-3.5-2.6l0.7-0.8c1.1,0.9,2.2,1.8,3.3,2.5
									L411.1,255.3z M442.3,251.5l-0.8-0.7c1-1,1.9-2.1,2.7-3.2l0.9,0.6C444.3,249.3,443.3,250.5,442.3,251.5z M405.3,250.4
									c-0.9-1.1-1.8-2.3-2.6-3.5l0.9-0.5c0.7,1.2,1.6,2.3,2.5,3.4L405.3,250.4z M446.8,245.4l-0.9-0.5c0.6-1.2,1.1-2.5,1.6-3.9
									l1,0.3C448,242.7,447.4,244.1,446.8,245.4z M401.2,244c-0.6-1.3-1.1-2.7-1.4-4.1l1.1-0.3c0.3,1.4,0.8,2.7,1.3,4L401.2,244z
									 M449.2,238.1l-1-0.1c0.2-1.4,0.4-2.8,0.4-4.2h1.1C449.6,235.2,449.4,236.7,449.2,238.1z M399.3,236.6
									c-0.1-1-0.2-1.9-0.2-2.8c0-0.5,0-1,0-1.5l1.1,0c0,0.5,0,1,0,1.5c0,0.9,0,1.8,0.1,2.7L399.3,236.6z M448.5,232.5
									c-0.1-1.4-0.3-2.8-0.6-4.1l1.1-0.2c0.3,1.4,0.5,2.9,0.6,4.4L448.5,232.5z M400.6,229.2l-1.1-0.2c0.3-1.4,0.7-2.8,1.2-4.2
									l1,0.4C401.2,226.5,400.9,227.9,400.6,229.2z M447,225.4c-0.5-1.3-1.1-2.6-1.8-3.8l0.9-0.6c0.7,1.3,1.4,2.6,1.9,3.9
									L447,225.4z M403,222.4l-0.9-0.5c0.7-1.2,1.5-2.5,2.4-3.6l0.8,0.7C404.5,219.9,403.7,221.1,403,222.4z M443.5,219
									c-0.9-1.1-1.8-2.2-2.8-3.1l0.7-0.8c1.1,1,2.1,2.1,3,3.2L443.5,219z M407.4,216.5l-0.8-0.7c1-1,2.2-2,3.4-2.8l0.6,0.9
									C409.5,214.7,408.4,215.5,407.4,216.5z M438.2,214c-1.1-0.8-2.4-1.5-3.6-2.1l0.5-1c1.3,0.6,2.6,1.3,3.8,2.2L438.2,214z
									 M413.3,212.3l-0.5-0.9c1.3-0.7,2.6-1.2,4-1.7l0.3,1C415.9,211.1,414.6,211.6,413.3,212.3z M431.6,210.7
									c-1.3-0.4-2.7-0.7-4.1-0.9l0.2-1.1c1.4,0.2,2.9,0.5,4.2,1L431.6,210.7z M420.3,210l-0.2-1.1c1.4-0.2,2.8-0.4,4.2-0.4
									l0.1,1.1C423,209.6,421.6,209.7,420.3,210z"/>
								<path d="M285,260.6c-0.5,0-1,0-1.5,0l0.1-1.2c0.5,0,1,0,1.5,0c1,0,2,0,3-0.1l0.1,1.1C287.1,260.6,286.1,260.6,285,260.6
									C285,260.6,285,260.6,285,260.6z M280.1,260.1c-1.5-0.3-3-0.7-4.5-1.2l0.4-1.1c1.4,0.6,2.8,0.9,4.3,1.2L280.1,260.1z
									 M299.1,256.6l-0.6-1c1.3-0.8,2.5-1.7,3.6-2.6l0.8,0.8C301.7,254.9,300.4,255.8,299.1,256.6z M305.3,251.4l-0.8-0.7
									c1-1.1,1.8-2.3,2.6-3.6l1,0.6C307.2,249,306.3,250.2,305.3,251.4z M258.5,238.3c-0.3-1.5-0.4-3.1-0.4-4.6h1.1
									c0,1.5,0.2,3,0.4,4.4L258.5,238.3z M311.8,236.7l-1.1-0.2c0.1-0.9,0.2-1.9,0.2-2.9c0-0.6,0-1.1-0.1-1.6l1.1,0
									c0,0.5,0,1,0,1.6C311.9,234.7,311.9,235.7,311.8,236.7z M259.3,232.4l-1.1,0c0.1-1.6,0.3-3.1,0.6-4.6l1.1,0.2
									C259.6,229.4,259.4,230.9,259.3,232.4z M310.3,228.8c-0.3-1.5-0.7-2.9-1.2-4.3l1.1-0.4c0.5,1.4,1,2.9,1.2,4.5L310.3,228.8z
									 M260.9,224.8l-1.1-0.4c0.5-1.4,1.2-2.9,2-4.2l1,0.6C262,222,261.4,223.4,260.9,224.8z M307.7,221.5
									c-0.7-1.3-1.5-2.6-2.5-3.7l0.9-0.7c1,1.2,1.8,2.5,2.5,3.9L307.7,221.5z M264.6,218l-0.9-0.7c1-1.2,2-2.4,3.2-3.4l0.8,0.9
									C266.6,215.7,265.6,216.8,264.6,218z M303,215.3c-1.1-1-2.2-2-3.4-2.8l0.6-0.9c1.3,0.9,2.5,1.9,3.6,3L303,215.3z
									 M270.3,212.6l-0.7-0.9c1.3-0.9,2.6-1.7,4-2.3l0.5,1C272.8,211,271.5,211.7,270.3,212.6z M296.7,210.7
									c-1.3-0.7-2.7-1.2-4.1-1.7l0.3-1.1c1.5,0.5,2.9,1.1,4.3,1.8L296.7,210.7z M277.2,209.1l-0.3-1.1c1.5-0.5,3-0.8,4.5-1.1
									l0.1,1.1C280.1,208.4,278.6,208.7,277.2,209.1z M289.3,208.3c-1.4-0.2-2.9-0.4-4.3-0.4h-0.1v-1.1h0.1c1.5,0,3,0.1,4.5,0.4
									L289.3,208.3z"/>
								<path d="M354.6,150.8l0-1.1c1.4,0,2.8-0.2,4.2-0.3l0.1,1C357.4,150.6,356,150.8,354.6,150.8z M351.3,150.7
									c-1.4-0.1-2.9-0.3-4.3-0.6l0.2-1c1.4,0.3,2.8,0.5,4.2,0.6L351.3,150.7z M362.1,149.8l-0.3-1.1c1.4-0.3,2.7-0.7,4-1.3l0.4,1
									C364.9,149,363.5,149.5,362.1,149.8z M343.8,149.2c-1.4-0.4-2.7-1-4-1.6l0.5-1c1.3,0.6,2.6,1.1,3.9,1.5L343.8,149.2z
									 M369.2,147.2l-0.5-1c1.3-0.6,2.5-1.3,3.6-2.1l0.6,0.9C371.7,145.8,370.5,146.5,369.2,147.2z M336.9,146.1
									c-1.3-0.8-2.4-1.6-3.6-2.4l0.7-0.9c1.1,0.9,2.2,1.6,3.5,2.3L336.9,146.1z M375.5,143l-0.7-0.8c1.1-0.9,2.1-1.9,3.1-2.9
									l0.8,0.7C377.7,141.1,376.6,142.1,375.5,143z M330.9,141.5c-1-1-2-2.1-3-3.2l0.8-0.7c0.9,1.1,1.8,2.1,2.9,3.1L330.9,141.5z
									 M380.8,137.5l-0.9-0.7c0.9-1.1,1.6-2.3,2.3-3.5l0.9,0.6C382.5,135.1,381.7,136.4,380.8,137.5z M326,135.7
									c-0.8-1.2-1.5-2.5-2.1-3.8l0.9-0.5c0.6,1.3,1.3,2.5,2.1,3.7L326,135.7z M384.7,131l-1-0.4c0.6-1.3,1.1-2.6,1.5-3.9l1,0.3
									C385.8,128.3,385.2,129.7,384.7,131z M322.6,128.9c-0.5-1.4-0.9-2.8-1.3-4.2l1.1-0.2c0.3,1.4,0.7,2.7,1.2,4L322.6,128.9z
									 M387,123.8l-1.1-0.2c0.3-1.4,0.5-2.8,0.6-4.2l1.1,0.1C387.4,120.9,387.2,122.3,387,123.8z M320.8,121.5
									c-0.2-1.4-0.3-2.9-0.3-4.3h1.1c0,1.4,0.1,2.8,0.3,4.2L320.8,121.5z M386.5,116.3c0-1.4-0.2-2.8-0.4-4.2l1.1-0.1
									c0.2,1.4,0.3,2.9,0.4,4.3L386.5,116.3z M321.6,115.9l-1.1,0c0-1.5,0.2-2.9,0.4-4.3l1.1,0.2
									C321.7,113.1,321.6,114.5,321.6,115.9z M385.5,108.9c-0.3-1.3-0.8-2.7-1.3-4l1-0.4c0.5,1.4,1,2.7,1.4,4.1L385.5,108.9z
									 M322.7,108.7l-1-0.3c0.4-1.4,0.8-2.8,1.4-4.1l1,0.4C323.5,106,323,107.3,322.7,108.7z M382.8,102.1
									c-0.6-1.2-1.4-2.5-2.2-3.6l0.9-0.6c0.8,1.2,1.6,2.4,2.3,3.7L382.8,102.1z M325.4,101.8l-1-0.5c0.7-1.3,1.5-2.5,2.3-3.7
									l0.9,0.6C326.8,99.4,326.1,100.6,325.4,101.8z M378.7,96c-0.9-1.1-1.9-2.1-2.9-3l0.7-0.8c1.1,1,2.1,2,3,3.1L378.7,96z
									 M329.6,95.8l-0.8-0.7c0.9-1.1,2-2.1,3.1-3.1l0.7,0.8C331.5,93.8,330.5,94.7,329.6,95.8z M373.3,91
									c-1.1-0.8-2.3-1.6-3.5-2.3l0.5-0.9c1.3,0.7,2.5,1.5,3.6,2.3L373.3,91z M335,90.8l-0.6-0.9c1.2-0.8,2.4-1.6,3.7-2.3l0.5,0.9
									C337.3,89.3,336.1,90,335,90.8z M367,87.3c-1.3-0.5-2.6-1-4-1.4l0.3-1c1.4,0.4,2.8,0.9,4.1,1.5L367,87.3z M341.4,87.2
									l-0.4-1c1.3-0.6,2.7-1.1,4.1-1.5l0.3,1.1C344,86.2,342.7,86.7,341.4,87.2z M359.9,85.2c-1.4-0.2-2.8-0.4-4.2-0.5l0.1-1.1
									c1.4,0.1,2.9,0.2,4.3,0.5L359.9,85.2z M348.4,85.2l-0.2-1c1.4-0.3,2.9-0.4,4.3-0.5l0,1C351.2,84.8,349.8,84.9,348.4,85.2z"
									/>
								<path d="M142.7,135.7c-0.5,0-0.9,0-1.4,0l0.1-1.1c0.4,0,0.9,0,1.4,0c1,0,1.9,0,2.8-0.2l0.1,1.1
									C144.7,135.7,143.7,135.7,142.7,135.7z M138,135.3c-1.4-0.3-2.9-0.7-4.2-1.2l0.4-1c1.3,0.5,2.7,0.9,4,1.1L138,135.3z
									 M148.9,135l-0.3-1c1.3-0.4,2.7-0.8,3.9-1.4l0.4,1C151.7,134.1,150.3,134.6,148.9,135z M130.8,132.8
									c-1.3-0.7-2.5-1.5-3.7-2.4l0.7-0.8c1.1,0.9,2.3,1.6,3.5,2.3L130.8,132.8z M155.9,132l-0.6-0.9c1.2-0.7,2.3-1.6,3.4-2.5
									l0.7,0.8C158.3,130.4,157.1,131.3,155.9,132z M124.7,128.2c-1-1.1-2-2.2-2.8-3.3l0.9-0.6c0.8,1.1,1.7,2.2,2.7,3.2
									L124.7,128.2z M161.7,127.1l-0.8-0.7c0.9-1.1,1.8-2.2,2.5-3.4l0.9,0.6C163.5,124.8,162.7,126,161.7,127.1z M120.3,122.1
									c-0.7-1.3-1.2-2.6-1.7-4l1-0.3c0.4,1.3,0.9,2.6,1.6,3.9L120.3,122.1z M165.8,120.7l-1-0.4c0.6-1.3,1-2.6,1.3-4l1,0.2
									C166.9,118,166.4,119.4,165.8,120.7z M117.8,114.8c-0.2-1.4-0.4-2.9-0.4-4.3h1.1c0,1.4,0.1,2.8,0.4,4.1L117.8,114.8z
									 M167.8,113.3l-1.1-0.1c0.1-0.9,0.1-1.8,0.1-2.7c0-0.5,0-1,0-1.5l1.1-0.1c0,0.5,0,1,0,1.5
									C167.9,111.4,167.9,112.4,167.8,113.3z M118.6,109.2l-1.1,0c0.1-1.5,0.3-3,0.6-4.3l1.1,0.2
									C118.8,106.4,118.6,107.8,118.6,109.2z M166.4,105.9c-0.3-1.4-0.6-2.7-1.1-4l1-0.4c0.5,1.4,0.9,2.8,1.2,4.2L166.4,105.9z
									 M120,102.1l-1-0.4c0.5-1.4,1.1-2.7,1.9-4l0.9,0.5C121.1,99.5,120.5,100.8,120,102.1z M164,99.1c-0.7-1.3-1.4-2.4-2.3-3.5
									l0.8-0.7c0.9,1.1,1.7,2.4,2.4,3.6L164,99.1z M123.6,95.7l-0.8-0.6c0.9-1.2,1.9-2.2,3-3.2l0.7,0.8
									C125.4,93.6,124.4,94.6,123.6,95.7z M159.6,93.2c-1-1-2.1-1.9-3.2-2.7l0.6-0.9c1.2,0.8,2.3,1.8,3.4,2.8L159.6,93.2z
									 M128.9,90.7l-0.6-0.9c1.2-0.8,2.5-1.6,3.8-2.2l0.4,1C131.2,89.2,130,89.9,128.9,90.7z M153.7,88.9
									c-1.2-0.6-2.5-1.2-3.9-1.6l0.3-1c1.4,0.4,2.8,1,4.1,1.7L153.7,88.9z M135.4,87.4l-0.3-1c1.4-0.4,2.8-0.7,4.3-0.9l0.2,1.1
									C138.1,86.7,136.7,87,135.4,87.4z M146.8,86.7c-1.3-0.3-2.7-0.4-4.1-0.4h-0.1v-1.1h0.1c1.4,0,2.9,0.1,4.3,0.4L146.8,86.7z"
									/>
							</g>
							<path d="M459.3,86.3h-0.8v-0.8h0.8V86.3z M455.3,86.3h-1.1v-0.8h1.1V86.3z M451,86.3H450v-0.8h1.1V86.3z M446.8,86.3h-1.1
								v-0.8h1.1V86.3z M442.5,86.3h-1.1v-0.8h1.1V86.3z M438.2,86.3h-1.1v-0.8h1.1V86.3z M433.9,86.3h-1.1v-0.8h1.1V86.3z
								 M429.6,86.3h-1.1v-0.8h1.1V86.3z M425.4,86.3h-1.1v-0.8h1.1V86.3z M421.1,86.3H420v-0.8h1.1V86.3z M416.8,86.3h-1.1v-0.8
								h1.1V86.3z M412.6,86.3h-1.1v-0.8h1.1V86.3z M408.3,86.3h-1.1v-0.8h1.1V86.3z M404,86.3h-1.1v-0.8h1.1V86.3z M399.7,86.3
								h-1.1v-0.8h1.1V86.3z M395.4,86.3h-1.1v-0.8h1.1V86.3z M391.2,86.3h-1.1v-0.8h1.1V86.3z M386.9,86.3h-1.1v-0.8h1.1V86.3z
								 M382.6,86.3h-1.1v-0.8h1.1V86.3z M378.3,86.3h-1.1v-0.8h1.1V86.3z M331.3,86.3h-1.1v-0.8h1.1V86.3z M327,86.3h-1.1v-0.8h1.1
								V86.3z M322.7,86.3h-1.1v-0.8h1.1V86.3z M318.4,86.3h-1.1v-0.8h1.1V86.3z M314.2,86.3h-1.1v-0.8h1.1V86.3z M309.9,86.3h-1.1
								v-0.8h1.1V86.3z M305.6,86.3h-1.1v-0.8h1.1V86.3z M301.3,86.3h-1.1v-0.8h1.1V86.3z M297,86.3H296v-0.8h1.1V86.3z M292.8,86.3
								h-1.1v-0.8h1.1V86.3z M288.5,86.3h-1.1v-0.8h1.1V86.3z M284.2,86.3h-1.1v-0.8h1.1V86.3z M279.9,86.3h-1v-0.8h1V86.3z
								 M275.6,86.3h-1v-0.8h1V86.3z M271.4,86.3h-1.1v-0.8h1.1V86.3z M267.1,86.3H266v-0.8h1.1V86.3z M262.8,86.3h-1.1v-0.8h1.1
								V86.3z M258.5,86.3h-1v-0.8h1V86.3z M254.2,86.3h-1v-0.8h1V86.3z M250,86.3h-1.1v-0.8h1.1V86.3z M245.7,86.3h-1.1v-0.8h1.1
								V86.3z M241.4,86.3h-1.1v-0.8h1.1V86.3z M237.1,86.3h-1.1v-0.8h1.1V86.3z M232.8,86.3h-1v-0.8h1V86.3z M228.6,86.3h-1.1v-0.8
								h1.1V86.3z M224.3,86.3h-1.1v-0.8h1.1V86.3z M220,86.3h-1.1v-0.8h1.1V86.3z M215.7,86.3h-1.1v-0.8h1.1V86.3z M211.5,86.3
								h-1.1v-0.8h1.1V86.3z M207.2,86.3h-1.1v-0.8h1.1V86.3z M202.9,86.3h-1.1v-0.8h1.1V86.3z M198.6,86.3h-1.1v-0.8h1.1V86.3z
								 M194.4,86.3h-1.1v-0.8h1.1V86.3z M190.1,86.3H189v-0.8h1.1V86.3z M185.8,86.3h-1.1v-0.8h1.1V86.3z M181.5,86.3h-1.1v-0.8
								h1.1V86.3z M177.2,86.3h-1.1v-0.8h1.1V86.3z M173,86.3h-1.1v-0.8h1.1V86.3z M168.7,86.3h-1.1v-0.8h1.1V86.3z M164.4,86.3
								h-1.1v-0.8h1.1V86.3z M160.1,86.3h-1.1v-0.8h1.1V86.3z M155.8,86.3h-1.1v-0.8h1.1V86.3z M151.6,86.3h-1.1v-0.8h1.1V86.3z
								 M147.3,86.3h-1.1v-0.8h1.1V86.3z M143,86.3h-1.1v-0.8h1.1V86.3z M138.7,86.3h-1.1v-0.8h1.1V86.3z M134.5,86.3h-1.1v-0.8h1.1
								V86.3z M130.2,86.3h-1.1v-0.8h1.1V86.3z M125.9,86.3h-1.1v-0.8h1.1V86.3z M121.6,86.3h-1.1v-0.8h1.1V86.3z M117.3,86.3h-1.1
								v-0.8h1.1V86.3z M113.1,86.3H112v-0.8h1.1V86.3z M108.8,86.3h-1.1v-0.8h1.1V86.3z"/>
							<path d="M459.3,168h-0.8v-0.8h0.8V168z M455.3,168h-1.1v-0.8h1.1V168z M446.8,168h-1.1v-0.8h1.1V168z M442.5,168h-1.1v-0.8
								h1.1V168z M438.2,168h-1.1v-0.8h1.1V168z M433.9,168h-1.1v-0.8h1.1V168z M429.6,168h-1.1v-0.8h1.1V168z M425.4,168h-1.1v-0.8
								h1.1V168z M421.1,168H420v-0.8h1.1V168z M416.8,168h-1.1v-0.8h1.1V168z M412.6,168h-1.1v-0.8h1.1V168z M408.3,168h-1.1v-0.8
								h1.1V168z M404,168h-1.1v-0.8h1.1V168z M399.7,168h-1.1v-0.8h1.1V168z M395.4,168h-1.1v-0.8h1.1V168z M391.2,168h-1.1v-0.8
								h1.1V168z M386.9,168h-1.1v-0.8h1.1V168z M382.6,168h-1.1v-0.8h1.1V168z M378.3,168h-1.1v-0.8h1.1V168z M374,168H373v-0.8
								h1.1V168z M369.8,168h-1.1v-0.8h1.1V168z M365.5,168h-1.1v-0.8h1.1V168z M361.2,168h-1.1v-0.8h1.1V168z M356.9,168h-1.1v-0.8
								h1.1V168z M352.6,168h-1.1v-0.8h1.1V168z M348.4,168h-1.1v-0.8h1.1V168z M344.1,168H343v-0.8h1.1V168z M339.8,168h-1.1v-0.8
								h1.1V168z M335.5,168h-1.1v-0.8h1.1V168z M331.3,168h-1.1v-0.8h1.1V168z M327,168h-1.1v-0.8h1.1V168z M322.7,168h-1.1v-0.8
								h1.1V168z M318.4,168h-1.1v-0.8h1.1V168z M314.2,168h-1.1v-0.8h1.1V168z M309.9,168h-1.1v-0.8h1.1V168z M305.6,168h-1.1v-0.8
								h1.1V168z M301.3,168h-1.1v-0.8h1.1V168z M297,168H296v-0.8h1.1V168z M292.8,168h-1.1v-0.8h1.1V168z M288.5,168h-1.1v-0.8
								h1.1V168z M284.2,168h-1.1v-0.8h1.1V168z M279.9,168h-1v-0.8h1V168z M275.6,168h-1v-0.8h1V168z M271.4,168h-1.1v-0.8h1.1V168
								z M267.1,168H266v-0.8h1.1V168z M262.8,168h-1.1v-0.8h1.1V168z M258.5,168h-1v-0.8h1V168z M254.2,168h-1v-0.8h1V168z
								 M250,168h-1.1v-0.8h1.1V168z M245.7,168h-1.1v-0.8h1.1V168z M241.4,168h-1.1v-0.8h1.1V168z M237.1,168h-1.1v-0.8h1.1V168z
								 M232.8,168h-1v-0.8h1V168z M228.6,168h-1.1v-0.8h1.1V168z M224.3,168h-1.1v-0.8h1.1V168z M220,168h-1.1v-0.8h1.1V168z
								 M215.7,168h-1.1v-0.8h1.1V168z M211.5,168h-1.1v-0.8h1.1V168z M207.2,168h-1.1v-0.8h1.1V168z M202.9,168h-1.1v-0.8h1.1V168z
								 M198.6,168h-1.1v-0.8h1.1V168z M194.4,168h-1.1v-0.8h1.1V168z M190.1,168H189v-0.8h1.1V168z M185.8,168h-1.1v-0.8h1.1V168z
								 M181.5,168h-1.1v-0.8h1.1V168z M177.2,168h-1.1v-0.8h1.1V168z M173,168h-1.1v-0.8h1.1V168z M168.7,168h-1.1v-0.8h1.1V168z
								 M164.4,168h-1.1v-0.8h1.1V168z M160.1,168h-1.1v-0.8h1.1V168z M155.8,168h-1.1v-0.8h1.1V168z M151.6,168h-1.1v-0.8h1.1V168z
								 M147.3,168h-1.1v-0.8h1.1V168z M143,168h-1.1v-0.8h1.1V168z M138.7,168h-1.1v-0.8h1.1V168z M134.5,168h-1.1v-0.8h1.1V168z
								 M130.2,168h-1.1v-0.8h1.1V168z M125.9,168h-1.1v-0.8h1.1V168z M121.6,168h-1.1v-0.8h1.1V168z M117.3,168h-1.1v-0.8h1.1V168z
								 M113.1,168H112v-0.8h1.1V168z M108.8,168h-1.1v-0.8h1.1V168z"/>
							<path d="M262.6,293.8l-0.6-0.6l0.8-0.7l0.6,0.6L262.6,293.8z M265.6,290.8l-0.6-0.6l0.7-0.7l0.6,0.6L265.6,290.8z
								 M271.7,284.8l-0.6-0.6l0.8-0.7l0.6,0.5L271.7,284.8z M277.7,278.7l-0.6-0.5l0.8-0.8l0.6,0.6L277.7,278.7z M280.7,275.7
								l-0.6-0.5l0.8-0.8l0.6,0.6L280.7,275.7z M283.7,272.7l-0.6-0.6l0.8-0.7l0.6,0.5L283.7,272.7z M286.8,269.6l-0.6-0.6l0.7-0.7
								l0.6,0.6L286.8,269.6z M289.8,266.6l-0.6-0.6l0.8-0.8l0.6,0.6L289.8,266.6z M292.8,263.6l-0.6-0.6l0.8-0.7l0.6,0.5
								L292.8,263.6z M295.9,260.6l-0.6-0.6l0.8-0.7l0.6,0.5L295.9,260.6z M311,245.4l-0.6-0.5l0.8-0.8l0.6,0.6L311,245.4z
								 M314,242.4l-0.6-0.6l0.8-0.7l0.6,0.5L314,242.4z M317,239.4l-0.6-0.6l0.7-0.7l0.6,0.5L317,239.4z M320,236.3l-0.6-0.5
								l0.7-0.8l0.6,0.6L320,236.3z M323.1,233.3l-0.6-0.5l0.8-0.8l0.5,0.6L323.1,233.3z M326.1,230.3l-0.6-0.6l0.8-0.7l0.6,0.5
								L326.1,230.3z"/>
						</g>
						<path d="M92.3,116.8h-6.4v-57h57v6.4H92.3V116.8z M88,114.7h2.1V64.1h50.6v-2.1H88V114.7z"/>
						<path d="M481.2,282.8h-57v-6.4h50.6v-50.7h6.4V282.8z M426.3,280.7h52.8v-52.8H477v50.6h-50.6V280.7z"/>
					</g>
				</g>
			</g>
		</g>
	</g>
</g>
</svg>
