<?xml version="1.0" encoding="utf-8"?>
<!-- Generator: Adobe Illustrator 19.1.0, SVG Export Plug-In . SVG Version: 6.00 Build 0)  -->
<svg version="1.1" id="Layer_1" xmlns="http://www.w3.org/2000/svg" xmlns:xlink="http://www.w3.org/1999/xlink" x="0px" y="0px"
	 viewBox="0 0 190 184.3" style="enable-background:new 0 0 190 184.3;" xml:space="preserve">
<style type="text/css">
	.st0{fill:#FFFFFF;}
</style>
<g>
	<g>
		<g>
			<g>
				<path class="st0" d="M26.3,172.8h1.3l2.1,3.2l2.1-3.2H33v6.9h-1.2v-4.9l-2.2,3.2h0l-2.1-3.2v4.9h-1.2V172.8z"/>
				<path class="st0" d="M34.7,172.6H36v1.1h-1.3V172.6z M34.7,174.5h1.2v5.2h-1.2V174.5z"/>
				<path class="st0" d="M37.5,174.5h1.2v0.8c0.3-0.5,0.8-0.9,1.6-0.9c1.2,0,1.8,0.8,1.8,2v3.3h-1.2v-2.9c0-0.8-0.4-1.3-1.1-1.3
					c-0.7,0-1.2,0.5-1.2,1.3v2.9h-1.2V174.5z"/>
				<path class="st0" d="M43.6,172.6h1.3v1.1h-1.3V172.6z M43.6,174.5h1.2v5.2h-1.2V174.5z"/>
				<path class="st0" d="M45.9,179l0.5-0.8c0.6,0.4,1.2,0.6,1.7,0.6c0.5,0,0.8-0.2,0.8-0.6v0c0-0.4-0.5-0.5-1.2-0.7
					c-0.8-0.2-1.6-0.5-1.6-1.5v0c0-1,0.8-1.6,1.8-1.6c0.6,0,1.4,0.2,1.9,0.6l-0.5,0.8c-0.5-0.3-1-0.5-1.5-0.5
					c-0.5,0-0.7,0.2-0.7,0.5v0c0,0.4,0.6,0.5,1.2,0.7c0.8,0.2,1.6,0.6,1.6,1.5v0c0,1.1-0.8,1.6-1.9,1.6
					C47.4,179.7,46.6,179.5,45.9,179z"/>
				<path class="st0" d="M51.4,178.2v-2.7h-0.7v-1h0.7v-1.4h1.2v1.4H54v1h-1.4v2.5c0,0.5,0.2,0.6,0.6,0.6c0.3,0,0.5-0.1,0.7-0.2v1
					c-0.3,0.2-0.6,0.3-1.1,0.3C52,179.7,51.4,179.4,51.4,178.2z"/>
				<path class="st0" d="M54.7,177.1L54.7,177.1c0-1.5,1-2.7,2.5-2.7c1.6,0,2.5,1.3,2.5,2.8c0,0.1,0,0.2,0,0.3h-3.8
					c0.1,0.8,0.7,1.3,1.5,1.3c0.6,0,1-0.2,1.4-0.6l0.7,0.6c-0.5,0.6-1.2,1-2.1,1C55.9,179.8,54.7,178.7,54.7,177.1z M58.6,176.7
					c-0.1-0.8-0.5-1.4-1.3-1.4c-0.7,0-1.2,0.6-1.3,1.4H58.6z"/>
				<path class="st0" d="M60.9,174.5h1.2v1.2c0.3-0.8,0.9-1.3,1.8-1.3v1.3h-0.1c-1,0-1.8,0.7-1.8,2v2h-1.2V174.5z"/>
				<path class="st0" d="M65,172.6h1.3v1.1H65V172.6z M65.1,174.5h1.2v5.2h-1.2V174.5z"/>
				<path class="st0" d="M67.5,177.1L67.5,177.1c0-1.5,1.2-2.7,2.8-2.7s2.8,1.2,2.8,2.7v0c0,1.5-1.2,2.7-2.8,2.7
					C68.7,179.8,67.5,178.6,67.5,177.1z M71.8,177.1L71.8,177.1c0-0.9-0.7-1.7-1.6-1.7c-1,0-1.6,0.7-1.6,1.6v0
					c0,0.9,0.7,1.7,1.6,1.7C71.2,178.7,71.8,178,71.8,177.1z"/>
				<path class="st0" d="M76.9,177.1L76.9,177.1c0-1.7,1.2-2.7,2.4-2.7c0.9,0,1.4,0.4,1.8,0.9v-2.8h1.2v7.2h-1.2v-0.9
					c-0.4,0.5-0.9,1-1.8,1C78.1,179.8,76.9,178.8,76.9,177.1z M81.1,177.1L81.1,177.1c0-1-0.7-1.7-1.5-1.7c-0.8,0-1.5,0.6-1.5,1.7v0
					c0,1,0.7,1.7,1.5,1.7C80.4,178.7,81.1,178.1,81.1,177.1z"/>
				<path class="st0" d="M83.5,177.1L83.5,177.1c0-1.5,1-2.7,2.5-2.7c1.6,0,2.5,1.3,2.5,2.8c0,0.1,0,0.2,0,0.3h-3.8
					c0.1,0.8,0.7,1.3,1.5,1.3c0.6,0,1-0.2,1.4-0.6l0.7,0.6c-0.5,0.6-1.2,1-2.1,1C84.6,179.8,83.5,178.7,83.5,177.1z M87.3,176.7
					c-0.1-0.8-0.5-1.4-1.3-1.4c-0.7,0-1.2,0.6-1.3,1.4H87.3z"/>
				<path class="st0" d="M92.7,172.8H94l2.1,3.2l2.1-3.2h1.3v6.9h-1.2v-4.9l-2.2,3.2h0l-2.1-3.2v4.9h-1.2V172.8z"/>
				<path class="st0" d="M100.8,177.1L100.8,177.1c0-1.5,1.2-2.7,2.8-2.7c1.6,0,2.8,1.2,2.8,2.7v0c0,1.5-1.2,2.7-2.8,2.7
					C102,179.8,100.8,178.6,100.8,177.1z M105.2,177.1L105.2,177.1c0-0.9-0.7-1.7-1.6-1.7c-1,0-1.6,0.7-1.6,1.6v0
					c0,0.9,0.7,1.7,1.6,1.7C104.6,178.7,105.2,178,105.2,177.1z"/>
				<path class="st0" d="M107.3,177.1L107.3,177.1c0-1.7,1.2-2.7,2.4-2.7c0.9,0,1.4,0.4,1.8,0.9v-2.8h1.2v7.2h-1.2v-0.9
					c-0.4,0.5-0.9,1-1.8,1C108.5,179.8,107.3,178.8,107.3,177.1z M111.5,177.1L111.5,177.1c0-1-0.7-1.7-1.5-1.7
					c-0.8,0-1.5,0.6-1.5,1.7v0c0,1,0.7,1.7,1.5,1.7C110.8,178.7,111.5,178.1,111.5,177.1z"/>
				<path class="st0" d="M113.8,177.1L113.8,177.1c0-1.5,1-2.7,2.5-2.7c1.6,0,2.5,1.3,2.5,2.8c0,0.1,0,0.2,0,0.3H115
					c0.1,0.8,0.7,1.3,1.5,1.3c0.6,0,1-0.2,1.4-0.6l0.7,0.6c-0.5,0.6-1.2,1-2.1,1C115,179.8,113.8,178.7,113.8,177.1z M117.7,176.7
					c-0.1-0.8-0.5-1.4-1.3-1.4c-0.7,0-1.2,0.6-1.3,1.4H117.7z"/>
				<path class="st0" d="M120,174.5h1.2v1.2c0.3-0.8,0.9-1.3,1.8-1.3v1.3H123c-1,0-1.8,0.7-1.8,2v2H120V174.5z"/>
				<path class="st0" d="M124.1,174.5h1.2v0.8c0.3-0.5,0.8-0.9,1.6-0.9c1.2,0,1.8,0.8,1.8,2v3.3h-1.2v-2.9c0-0.8-0.4-1.3-1.1-1.3
					c-0.7,0-1.2,0.5-1.2,1.3v2.9h-1.2V174.5z"/>
				<path class="st0" d="M130.2,172.6h1.3v1.1h-1.3V172.6z M130.2,174.5h1.2v5.2h-1.2V174.5z"/>
				<path class="st0" d="M132.7,178.8l3-3.4h-2.9v-1h4.4v0.8l-3,3.4h3v1h-4.5V178.8z"/>
				<path class="st0" d="M141.6,179.7V179c-0.4,0.4-0.9,0.7-1.7,0.7c-1,0-1.8-0.6-1.8-1.6v0c0-1.1,0.9-1.7,2.1-1.7
					c0.6,0,1,0.1,1.4,0.2v-0.1c0-0.7-0.5-1.1-1.3-1.1c-0.6,0-1,0.1-1.5,0.3l-0.3-1c0.6-0.3,1.1-0.4,2-0.4c1.5,0,2.3,0.8,2.3,2.2v3.1
					H141.6z M141.7,177.5c-0.3-0.1-0.7-0.2-1.2-0.2c-0.7,0-1.2,0.3-1.2,0.8v0c0,0.5,0.4,0.8,1,0.8c0.8,0,1.4-0.4,1.4-1.1V177.5z"/>
				<path class="st0" d="M143.9,177.1L143.9,177.1c0-1.5,1.1-2.7,2.7-2.7c1,0,1.6,0.4,2.1,0.9l-0.7,0.8c-0.4-0.4-0.7-0.6-1.3-0.6
					c-0.9,0-1.5,0.7-1.5,1.6v0c0,0.9,0.6,1.7,1.5,1.7c0.6,0,1-0.3,1.3-0.6l0.7,0.7c-0.5,0.6-1.1,1-2.1,1
					C145.1,179.8,143.9,178.6,143.9,177.1z"/>
				<path class="st0" d="M149.8,172.6h1.3v1.1h-1.3V172.6z M149.9,174.5h1.2v5.2h-1.2V174.5z"/>
				<path class="st0" d="M152.3,177.1L152.3,177.1c0-1.5,1.2-2.7,2.8-2.7c1.6,0,2.8,1.2,2.8,2.7v0c0,1.5-1.2,2.7-2.8,2.7
					C153.5,179.8,152.3,178.6,152.3,177.1z M156.7,177.1L156.7,177.1c0-0.9-0.7-1.7-1.6-1.7c-1,0-1.6,0.7-1.6,1.6v0
					c0,0.9,0.7,1.7,1.6,1.7C156.1,178.7,156.7,178,156.7,177.1z M155.6,172.2l1.1,0.5l-1.2,1.1h-0.9L155.6,172.2z"/>
				<path class="st0" d="M159.1,174.5h1.2v0.8c0.3-0.5,0.8-0.9,1.6-0.9c1.2,0,1.8,0.8,1.8,2v3.3h-1.2v-2.9c0-0.8-0.4-1.3-1.1-1.3
					c-0.7,0-1.2,0.5-1.2,1.3v2.9h-1.2V174.5z"/>
			</g>
			<g>
				<path class="st0" d="M1.1,107.5h4.2v20.1h12.6v3.8H1.1V107.5z"/>
				<path class="st0" d="M32,131.5v-2.2c-1.2,1.5-3.1,2.6-5.8,2.6c-3.4,0-6.4-1.9-6.4-5.6v-0.1c0-4,3.1-5.9,7.3-5.9
					c2.2,0,3.6,0.3,5,0.8v-0.3c0-2.5-1.6-3.9-4.4-3.9c-2,0-3.5,0.4-5.2,1.1l-1.1-3.3c2-0.9,3.9-1.5,6.9-1.5c5.3,0,7.9,2.8,7.9,7.6
					v10.7H32z M32.1,123.9c-1.1-0.4-2.5-0.7-4.1-0.7c-2.6,0-4.1,1.1-4.1,2.8v0.1c0,1.7,1.5,2.7,3.5,2.7c2.7,0,4.8-1.5,4.8-3.8V123.9
					z"/>
				<path class="st0" d="M44.3,128.7v2.8h-4.1v-25h4.1v9.9c1.3-1.9,3.2-3.4,6.1-3.4c4.3,0,8.4,3.4,8.4,9.4v0.1c0,6-4.1,9.4-8.4,9.4
					C47.4,131.9,45.6,130.3,44.3,128.7z M54.6,122.5L54.6,122.5c0-3.6-2.4-5.8-5.2-5.8c-2.8,0-5.3,2.3-5.3,5.8v0.1
					c0,3.5,2.5,5.8,5.3,5.8C52.3,128.3,54.6,126,54.6,122.5z"/>
				<path class="st0" d="M61.2,122.6L61.2,122.6c0-5.2,4.1-9.5,9.6-9.5c5.5,0,9.6,4.2,9.6,9.4v0.1c0,5.1-4.1,9.4-9.7,9.4
					C65.3,131.9,61.2,127.7,61.2,122.6z M76.3,122.6L76.3,122.6c0-3.2-2.3-5.9-5.5-5.9c-3.3,0-5.4,2.6-5.4,5.7v0.1
					c0,3.1,2.3,5.8,5.5,5.8C74.2,128.3,76.3,125.7,76.3,122.6z"/>
				<path class="st0" d="M83.8,113.4H88v4.1c1.1-2.7,3.2-4.5,6.4-4.4v4.4h-0.2c-3.6,0-6.2,2.4-6.2,7.1v6.9h-4.1V113.4z"/>
				<path class="st0" d="M107.3,131.5v-2.2c-1.2,1.5-3.1,2.6-5.8,2.6c-3.4,0-6.4-1.9-6.4-5.6v-0.1c0-4,3.1-5.9,7.3-5.9
					c2.2,0,3.6,0.3,5,0.8v-0.3c0-2.5-1.6-3.9-4.4-3.9c-2,0-3.5,0.4-5.2,1.1l-1.1-3.3c2-0.9,3.9-1.5,6.9-1.5c5.3,0,7.9,2.8,7.9,7.6
					v10.7H107.3z M107.4,123.9c-1.1-0.4-2.5-0.7-4.1-0.7c-2.6,0-4.1,1.1-4.1,2.8v0.1c0,1.7,1.5,2.7,3.5,2.7c2.7,0,4.8-1.5,4.8-3.8
					V123.9z"/>
				<path class="st0" d="M116.1,126.5V117h-2.3v-3.6h2.3v-5h4.1v5h4.9v3.6h-4.9v8.9c0,1.6,0.8,2.3,2.2,2.3c0.9,0,1.7-0.2,2.6-0.6
					v3.4c-1,0.6-2.2,0.9-3.7,0.9C118.3,131.8,116.1,130.5,116.1,126.5z"/>
				<path class="st0" d="M126.9,122.6L126.9,122.6c0-5.2,4.1-9.5,9.6-9.5c5.5,0,9.6,4.2,9.6,9.4v0.1c0,5.1-4.1,9.4-9.7,9.4
					C131,131.9,126.9,127.7,126.9,122.6z M142.1,122.6L142.1,122.6c0-3.2-2.3-5.9-5.5-5.9c-3.3,0-5.4,2.6-5.4,5.7v0.1
					c0,3.1,2.3,5.8,5.5,5.8C139.9,128.3,142.1,125.7,142.1,122.6z"/>
				<path class="st0" d="M149.5,113.4h4.1v4.1c1.1-2.7,3.2-4.5,6.4-4.4v4.4h-0.2c-3.6,0-6.2,2.4-6.2,7.1v6.9h-4.1V113.4z"/>
				<path class="st0" d="M162.9,106.7h4.4v3.9h-4.4V106.7z M163.1,113.4h4.1v18.1h-4.1V113.4z"/>
				<path class="st0" d="M170.7,122.6L170.7,122.6c0-5.2,4.1-9.5,9.6-9.5c5.5,0,9.6,4.2,9.6,9.4v0.1c0,5.1-4.1,9.4-9.7,9.4
					C174.8,131.9,170.7,127.7,170.7,122.6z M185.9,122.6L185.9,122.6c0-3.2-2.3-5.9-5.5-5.9c-3.3,0-5.4,2.6-5.4,5.7v0.1
					c0,3.1,2.3,5.8,5.5,5.8C183.7,128.3,185.9,125.7,185.9,122.6z"/>
				<path class="st0" d="M0,153L0,153c0-5.6,4.1-8.9,8.2-8.9c3.4,0,5.6,1.9,6.9,4v-10.9h1.6v24.1h-1.6v-3.8
					c-1.5,2.2-3.6,4.2-6.9,4.2C4.1,161.8,0,158.5,0,153z M15.2,153L15.2,153c0-4.4-3.4-7.3-6.9-7.3c-3.7,0-6.6,2.7-6.6,7.2v0.1
					c0,4.4,3.1,7.3,6.6,7.3C11.9,160.2,15.2,157.3,15.2,153z"/>
				<path class="st0" d="M20.9,153L20.9,153c0-5,3.4-8.9,8-8.9c4.7,0,7.7,3.8,7.7,8.8c0,0.3,0,0.4,0,0.7h-14
					c0.3,4.2,3.3,6.6,6.6,6.6c2.6,0,4.4-1.2,5.8-2.6l1.1,1c-1.7,1.9-3.7,3.2-7,3.2C24.7,161.8,20.9,158.3,20.9,153z M34.9,152.2
					c-0.2-3.4-2.2-6.5-6-6.5c-3.3,0-5.9,2.8-6.2,6.5H34.9z"/>
				<path class="st0" d="M49,149.9L49,149.9c0-6.3,4.5-12,11.4-12c3.8,0,6.1,1.1,8.5,3l-1.1,1.3c-1.8-1.6-3.9-2.8-7.4-2.8
					c-5.6,0-9.5,4.8-9.5,10.3v0.1c0,6,3.7,10.4,9.9,10.4c2.9,0,5.7-1.2,7.4-2.6V151h-7.7v-1.6h9.4v8.9c-2.1,1.9-5.3,3.5-9.1,3.5
					C53.3,161.8,49,156.4,49,149.9z"/>
				<path class="st0" d="M73.5,153L73.5,153c0-4.8,3.7-8.9,8.7-8.9c5,0,8.6,4,8.6,8.8v0.1c0,4.7-3.7,8.8-8.7,8.8
					C77.2,161.8,73.5,157.8,73.5,153z M89.1,153L89.1,153c0-4.1-3-7.4-6.9-7.4c-4,0-6.9,3.3-6.9,7.2v0.1c0,4.1,3,7.3,6.9,7.3
					C86.2,160.3,89.1,157,89.1,153z"/>
				<path class="st0" d="M96.6,157.8v3.6H95v-24.1h1.6v11c1.5-2.2,3.6-4.2,6.9-4.2c4.1,0,8.2,3.3,8.2,8.8v0.1c0,5.5-4.1,8.8-8.2,8.8
					C100.2,161.8,98,159.9,96.6,157.8z M110,153L110,153c0-4.5-3.1-7.3-6.6-7.3c-3.5,0-6.9,2.9-6.9,7.2v0.1c0,4.3,3.4,7.2,6.9,7.2
					C107.1,160.2,110,157.6,110,153z"/>
				<path class="st0" d="M116,137.9h2v2.2h-2V137.9z M116.2,144.5h1.6v16.8h-1.6V144.5z"/>
				<path class="st0" d="M122.2,153L122.2,153c0-5,3.4-8.9,8-8.9c4.7,0,7.7,3.8,7.7,8.8c0,0.3,0,0.4,0,0.7h-14
					c0.3,4.2,3.3,6.6,6.6,6.6c2.6,0,4.4-1.2,5.8-2.6l1.1,1c-1.7,1.9-3.7,3.2-7,3.2C126.1,161.8,122.2,158.3,122.2,153z M136.2,152.2
					c-0.2-3.4-2.2-6.5-6-6.5c-3.3,0-5.9,2.8-6.2,6.5H136.2z"/>
				<path class="st0" d="M141.9,144.5h1.6v4.8c1.3-3,4.1-5.2,7.5-5.1v1.8h-0.2c-3.9,0-7.3,2.9-7.3,8.4v6.9h-1.6V144.5z"/>
				<path class="st0" d="M154.3,144.5h1.6v3.1c1.1-2,3-3.5,6.1-3.5c4.3,0,6.7,2.9,6.7,6.9v10.3h-1.6v-10c0-3.5-1.9-5.7-5.4-5.7
					c-3.3,0-5.8,2.5-5.8,6v9.7h-1.6V144.5z"/>
				<path class="st0" d="M172.5,153L172.5,153c0-4.8,3.7-8.9,8.7-8.9c5,0,8.6,4,8.6,8.8v0.1c0,4.7-3.7,8.8-8.7,8.8
					C176.2,161.8,172.5,157.8,172.5,153z M188.1,153L188.1,153c0-4.1-3-7.4-6.9-7.4c-4,0-6.9,3.3-6.9,7.2v0.1c0,4.1,3,7.3,6.9,7.3
					C185.2,160.3,188.1,157,188.1,153z"/>
			</g>
		</g>
		<g>
			<g>
				<g>
					<g>
						<g>
							<g>
								<g>
									<g>
										<path class="st0" d="M91.4,90.8c-1.1,0-2.1-0.4-2.9-1.2c-0.8-0.8-1.2-1.8-1.2-2.9v-9.3c0-0.3-0.2-0.5-0.5-0.5
											c-0.1,0-0.1,0-0.2,0c-0.5,0.3-1,0.6-1.5,0.8l-1.9,0.9C78,80.8,72.4,82,66.7,82H37.6c-6.4,0-11.6-5.2-11.6-11.6V20.2
											c0-6.4,5.2-11.6,11.6-11.6h27c5.9,0,11.8,1.4,17,4.1c0,0,0.1,0,0.1,0c6.3,3.3,10.2,9.7,10.2,16.7c0,5.1-2.1,10-5.8,13.6
											c2.7,1.5,5.1,3.7,6.8,6.3l17.4-33.6c2.6-5.1,7.7-8.3,13.4-8.3c5.7,0,10.9,3.2,13.4,8.3c0,0,0,0.1,0,0.1l25.5,49.3
											c1,1.8,1.5,3.7,1.5,5.8c0,6.4-5.2,11.6-11.6,11.6c-4.6,0-8.7-2.7-10.6-6.8c0,0,0-0.1-0.1-0.1c-0.6-1.3-1.9-2.2-3.4-2.2
											h-27.8c-0.1,0-0.3,0-0.3,0.1l-16,16C93.5,90.3,92.5,90.8,91.4,90.8z M86.8,75.7c0.9,0,1.6,0.7,1.6,1.6v9.3
											c0,0.8,0.3,1.6,0.9,2.2c0.6,0.6,1.3,0.9,2.1,0.9c0.8,0,1.6-0.3,2.1-0.9l16-16c0.3-0.3,0.7-0.5,1.1-0.5h27.8
											c1.9,0,3.6,1.1,4.4,2.9l0,0.1c1.7,3.8,5.5,6.2,9.6,6.2c5.8,0,10.6-4.7,10.6-10.6c0-1.8-0.5-3.6-1.4-5.2c0,0,0-0.1,0-0.1
											l-25.5-49.3c0,0,0,0,0,0c-2.4-4.8-7.2-7.7-12.5-7.7c-5.3,0-10.1,2.9-12.5,7.7L93.3,50.7C93.2,50.8,93,51,92.8,51
											c-0.2,0-0.4-0.1-0.5-0.3c-1.8-3-4.4-5.5-7.5-7.1c-0.2-0.1-0.3-0.2-0.3-0.4c0-0.2,0-0.4,0.2-0.5c3.8-3.4,6-8.2,6-13.3
											c0-6.7-3.7-12.7-9.6-15.8l0,0c0,0,0,0,0,0c-5.1-2.6-10.8-4-16.5-4h-27C31.7,9.6,27,14.4,27,20.2v50.1
											c0,5.8,4.7,10.6,10.6,10.6h29.1c5.6,0,11-1.1,16-3.3l1.9-0.9c0.5-0.2,1-0.5,1.5-0.8c0,0,0,0,0,0
											C86.3,75.8,86.6,75.7,86.8,75.7z M91.7,87.5c-0.5,0-1-0.2-1.4-0.5c-0.4-0.4-0.6-0.8-0.6-1.4v-9.1c0-1.4-1.1-2.6-3.3-2.6
											c-0.4,0-0.9,0.1-1.3,0.3c0,0,0,0,0,0c-0.4,0.3-0.9,0.5-1.3,0.7L82,75.8C77.1,77.9,71.9,79,66.6,79H38.2
											c-5.2,0-9.4-4.1-9.4-9.2V21c0-5.1,4.2-9.2,8.9-9.2H64c5.9,0,11,1.3,15.9,3.8c0,0,0.1,0,0.1,0c5.4,2.8,8.8,8.3,8.8,14.4
											c0,5.2-2.6,10.1-6.8,13.1c-0.2,0.1-0.2,0.3-0.2,0.5c0,0.2,0.1,0.4,0.3,0.4c4.2,1.6,8,4.8,9.8,8.8c0.1,0.2,0.6,0.3,0.9,0.3
											c0.2,0,0.8-0.1,0.9-0.3l18.5-35.3c2.2-4.3,6.5-6.9,11.4-6.9c4.8,0,8.7,2.6,10.9,6.8c0,0,0,0,0,0.1c0,0,0,0,0,0l25.3,48.1
											c0,0,0,0,0,0.1c0.8,1.4,1.2,2.9,1.2,4.5c0,5.1-3.4,9.2-8.5,9.2c-3.6,0-7-2.1-8.5-5.4c0,0,0,0,0,0c-0.9-2.1-3-3.5-5.3-3.5
											h-27.9c-0.7,0-1.4,0.3-1.9,0.8L93.1,86.9C92.7,87.3,92.2,87.5,91.7,87.5z M86.9,72.9c2,0,4,1.6,4,3.6v9.1
											c0,0.2,0.1,0.5,0.3,0.6c0.3,0.3,0.9,0.3,1.2,0l15.8-15.5c0.7-0.7,1.6-1.1,2.6-1.1h27.9c2.8,0,5.2,1.6,6.3,4.1c0,0,0,0,0,0
											c1.3,2.9,4.3,4.7,7.5,4.7c4.6,0,7.5-3.7,7.5-8.1c0-1.4-0.4-2.8-1-4c0,0,0-0.1-0.1-0.1l-25.3-48.1c0,0,0-0.1-0.1-0.1
											c-2-3.8-5.6-6.2-9.9-6.2c-4.4,0-8.4,2.4-10.4,6.3L94.7,53.4c-0.3,0.7-1.2,0.8-1.4,0.9c-1.6,0.1-2-0.4-2.3-0.9
											c-1.7-3.8-5.3-6.8-9.2-8.3c-0.6-0.2-0.9-0.7-1-1.3c-0.1-0.6,0.2-1.1,0.6-1.5c4-2.9,6.4-7.4,6.4-12.3
											c0-5.7-3.1-10.8-8.2-13.4c0,0-0.1,0-0.1-0.1c-4.7-2.4-10-3.7-15.4-3.7H38.2c-4.6,0-8.3,3.7-8.3,8.2v48.8
											c0,4.5,3.7,8.2,8.3,8.2h28.4c5.2,0,10.2-1,15-3l1.8-0.8c0.4-0.2,0.8-0.4,1.2-0.7c0,0,0.1,0,0.1-0.1
											C85.2,73,85.9,72.9,86.9,72.9z"/>
									</g>
								</g>
								<path class="st0" d="M166.3,80.1h-0.3v-0.3h0.3V80.1z M164.6,80.1h-0.4v-0.3h0.4V80.1z M161.2,80.1h-0.4v-0.3h0.4V80.1z
									 M143.8,80.1h-0.4v-0.3h0.4V80.1z M142.1,80.1h-0.4v-0.3h0.4V80.1z M140.4,80.1h-0.4v-0.3h0.4V80.1z M138.6,80.1h-0.4v-0.3
									h0.4V80.1z M136.9,80.1h-0.4v-0.3h0.4V80.1z M135.2,80.1h-0.4v-0.3h0.4V80.1z M133.4,80.1H133v-0.3h0.4V80.1z M131.7,80.1
									h-0.4v-0.3h0.4V80.1z M130,80.1h-0.4v-0.3h0.4V80.1z M128.2,80.1h-0.4v-0.3h0.4V80.1z M126.5,80.1H126v-0.3h0.4V80.1z
									 M124.8,80.1h-0.4v-0.3h0.4V80.1z M123,80.1h-0.4v-0.3h0.4V80.1z M121.3,80.1h-0.4v-0.3h0.4V80.1z M119.5,80.1h-0.4v-0.3
									h0.4V80.1z M117.8,80.1h-0.4v-0.3h0.4V80.1z M116.1,80.1h-0.4v-0.3h0.4V80.1z M114.3,80.1h-0.4v-0.3h0.4V80.1z M112.6,80.1
									h-0.4v-0.3h0.4V80.1z M110.9,80.1h-0.4v-0.3h0.4V80.1z M109.1,80.1h-0.4v-0.3h0.4V80.1z M107.4,80.1H107v-0.3h0.4V80.1z
									 M105.7,80.1h-0.4v-0.3h0.4V80.1z M97,80.1h-0.4v-0.3H97V80.1z M95.3,80.1h-0.4v-0.3h0.4V80.1z M93.5,80.1h-0.4v-0.3h0.4
									V80.1z M91.8,80.1h-0.4v-0.3h0.4V80.1z M86.6,80.1h-0.4v-0.3h0.4V80.1z M84.9,80.1h-0.4v-0.3h0.4V80.1z M83.1,80.1h-0.4
									v-0.3h0.4V80.1z M81.4,80.1H81v-0.3h0.4V80.1z M79.7,80.1h-0.4v-0.3h0.4V80.1z M77.9,80.1h-0.4v-0.3h0.4V80.1z M76.2,80.1
									h-0.4v-0.3h0.4V80.1z M74.5,80.1H74v-0.3h0.4V80.1z M72.7,80.1h-0.4v-0.3h0.4V80.1z M71,80.1h-0.4v-0.3H71V80.1z M69.3,80.1
									h-0.4v-0.3h0.4V80.1z M67.5,80.1h-0.4v-0.3h0.4V80.1z M65.8,80.1h-0.4v-0.3h0.4V80.1z M64.1,80.1h-0.4v-0.3h0.4V80.1z
									 M62.3,80.1h-0.4v-0.3h0.4V80.1z M60.6,80.1h-0.4v-0.3h0.4V80.1z M58.9,80.1h-0.4v-0.3h0.4V80.1z M57.1,80.1h-0.4v-0.3h0.4
									V80.1z M55.4,80.1h-0.4v-0.3h0.4V80.1z M53.6,80.1h-0.4v-0.3h0.4V80.1z M51.9,80.1h-0.4v-0.3h0.4V80.1z M50.2,80.1h-0.4
									v-0.3h0.4V80.1z M48.4,80.1H48v-0.3h0.4V80.1z M46.7,80.1h-0.4v-0.3h0.4V80.1z M45,80.1h-0.4v-0.3H45V80.1z M43.2,80.1h-0.4
									v-0.3h0.4V80.1z M41.5,80.1h-0.4v-0.3h0.4V80.1z M39.8,80.1h-0.4v-0.3h0.4V80.1z M38,80.1h-0.4v-0.3H38V80.1z M36.3,80.1
									h-0.4v-0.3h0.4V80.1z M34.6,80.1h-0.4v-0.3h0.4V80.1z M32.8,80.1h-0.4v-0.3h0.4V80.1z M31.1,80.1h-0.4v-0.3h0.4V80.1z
									 M29.4,80.1h-0.4v-0.3h0.4V80.1z M27.6,80.1h-0.4v-0.3h0.4V80.1z M25.9,80.1h-0.4v-0.3h0.4V80.1z M24.2,80.1h-0.4v-0.3h0.4
									V80.1z"/>
								<path class="st0" d="M89.1,95.4h-0.3v-0.2h0.3V95.4z M89.1,93.9h-0.3v-0.4h0.3V93.9z M89.1,92.1h-0.3v-0.4h0.3V92.1z
									 M89.1,90.4h-0.3V90h0.3V90.4z M89.1,86.9h-0.3v-0.4h0.3V86.9z M89.1,85.2h-0.3v-0.4h0.3V85.2z M89.1,83.5h-0.3V83h0.3V83.5
									z M89.1,81.7h-0.3v-0.4h0.3V81.7z M89.1,80h-0.3v-0.4h0.3V80z M89.1,78.3h-0.3v-0.4h0.3V78.3z M89.1,76.5h-0.3v-0.4h0.3
									V76.5z M89.1,73h-0.3v-0.4h0.3V73z M89.1,71.3h-0.3v-0.4h0.3V71.3z M89.1,69.6h-0.3v-0.4h0.3V69.6z M89.1,67.8h-0.3v-0.4
									h0.3V67.8z M89.1,66.1h-0.3v-0.4h0.3V66.1z M89.1,64.4h-0.3v-0.4h0.3V64.4z M89.1,62.6h-0.3v-0.4h0.3V62.6z M89.1,60.9h-0.3
									v-0.4h0.3V60.9z M89.1,59.2h-0.3v-0.4h0.3V59.2z M89.1,57.4h-0.3V57h0.3V57.4z M89.1,55.7h-0.3v-0.4h0.3V55.7z M89.1,54
									h-0.3v-0.4h0.3V54z M89.1,52.2h-0.3v-0.4h0.3V52.2z M89.1,50.5h-0.3v-0.4h0.3V50.5z M89.1,48.8h-0.3v-0.4h0.3V48.8z
									 M89.1,47h-0.3v-0.4h0.3V47z M89.1,45.3h-0.3v-0.4h0.3V45.3z M89.1,43.6h-0.3v-0.4h0.3V43.6z M89.1,41.8h-0.3v-0.4h0.3V41.8
									z M89.1,40.1h-0.3v-0.4h0.3V40.1z M89.1,38.4h-0.3v-0.4h0.3V38.4z M89.1,36.6h-0.3v-0.4h0.3V36.6z M89.1,34.9h-0.3v-0.4h0.3
									V34.9z M89.1,33.2h-0.3v-0.4h0.3V33.2z M89.1,31.4h-0.3V31h0.3V31.4z M89.1,29.7h-0.3v-0.4h0.3V29.7z M89.1,28h-0.3v-0.4
									h0.3V28z M89.1,26.2h-0.3v-0.4h0.3V26.2z M89.1,24.5h-0.3v-0.4h0.3V24.5z M89.1,22.7h-0.3v-0.4h0.3V22.7z M89.1,21h-0.3
									v-0.4h0.3V21z M89.1,19.3h-0.3v-0.4h0.3V19.3z M89.1,17.6h-0.3v-0.4h0.3V17.6z M89.1,15.8h-0.3v-0.4h0.3V15.8z M89.1,14.1
									h-0.3v-0.4h0.3V14.1z M89.1,12.4h-0.3v-0.4h0.3V12.4z M89.1,8.9h-0.3V8.4h0.3V8.9z M89.1,7.2h-0.3V6.7h0.3V7.2z M89.1,5.4
									h-0.3V5h0.3V5.4z"/>
								<path class="st0" d="M162.6,85.2h-0.3v-0.4h0.3V85.2z M162.6,83.5h-0.3V83h0.3V83.5z M162.6,81.7h-0.3v-0.4h0.3V81.7z
									 M162.6,80h-0.3v-0.4h0.3V80z M162.6,78.3h-0.3v-0.4h0.3V78.3z M162.6,64.4h-0.3v-0.4h0.3V64.4z M162.6,62.6h-0.3v-0.4h0.3
									V62.6z M162.6,60.9h-0.3v-0.4h0.3V60.9z M162.6,59.2h-0.3v-0.4h0.3V59.2z M162.6,57.4h-0.3V57h0.3V57.4z M162.6,55.7h-0.3
									v-0.4h0.3V55.7z M162.6,54h-0.3v-0.4h0.3V54z M162.6,52.2h-0.3v-0.4h0.3V52.2z M162.6,50.5h-0.3v-0.4h0.3V50.5z M162.6,48.8
									h-0.3v-0.4h0.3V48.8z M162.6,47h-0.3v-0.4h0.3V47z M162.6,45.3h-0.3v-0.4h0.3V45.3z M162.6,43.6h-0.3v-0.4h0.3V43.6z
									 M162.6,41.8h-0.3v-0.4h0.3V41.8z M162.6,40.1h-0.3v-0.4h0.3V40.1z M162.6,38.4h-0.3v-0.4h0.3V38.4z M162.6,36.6h-0.3v-0.4
									h0.3V36.6z M162.6,34.9h-0.3v-0.4h0.3V34.9z M162.6,33.2h-0.3v-0.4h0.3V33.2z M162.6,31.4h-0.3V31h0.3V31.4z M162.6,29.7
									h-0.3v-0.4h0.3V29.7z M162.6,28h-0.3v-0.4h0.3V28z M162.6,26.2h-0.3v-0.4h0.3V26.2z M162.6,24.5h-0.3v-0.4h0.3V24.5z
									 M162.6,22.7h-0.3v-0.4h0.3V22.7z M162.6,21h-0.3v-0.4h0.3V21z M162.6,19.3h-0.3v-0.4h0.3V19.3z M162.6,17.6h-0.3v-0.4h0.3
									V17.6z M162.6,15.8h-0.3v-0.4h0.3V15.8z M162.6,14.1h-0.3v-0.4h0.3V14.1z M162.6,12.4h-0.3v-0.4h0.3V12.4z M162.6,8.9h-0.3
									V8.4h0.3V8.9z M162.6,7.2h-0.3V6.7h0.3V7.2z M162.6,5.4h-0.3V5h0.3V5.4z"/>
								<path class="st0" d="M28.1,85.3h-0.3v-0.4h0.3V85.3z M28.1,83.6h-0.3v-0.4h0.3V83.6z M28.1,81.8h-0.3v-0.4h0.3V81.8z
									 M28.1,78.4h-0.3v-0.4h0.3V78.4z M28.1,66.2h-0.3v-0.4h0.3V66.2z M28.1,64.5h-0.3v-0.4h0.3V64.5z M28.1,62.8h-0.3v-0.4h0.3
									V62.8z M28.1,61h-0.3v-0.4h0.3V61z M28.1,59.3h-0.3v-0.4h0.3V59.3z M28.1,57.6h-0.3v-0.4h0.3V57.6z M28.1,55.8h-0.3v-0.4
									h0.3V55.8z M28.1,54.1h-0.3v-0.4h0.3V54.1z M28.1,52.4h-0.3v-0.4h0.3V52.4z M28.1,50.6h-0.3v-0.4h0.3V50.6z M28.1,48.9h-0.3
									v-0.4h0.3V48.9z M28.1,47.1h-0.3v-0.4h0.3V47.1z M28.1,45.4h-0.3V45h0.3V45.4z M28.1,43.7h-0.3v-0.4h0.3V43.7z M28.1,42
									h-0.3v-0.4h0.3V42z M28.1,40.2h-0.3v-0.4h0.3V40.2z M28.1,38.5h-0.3V38h0.3V38.5z M28.1,36.8h-0.3v-0.4h0.3V36.8z M28.1,35
									h-0.3v-0.4h0.3V35z M28.1,33.3h-0.3v-0.4h0.3V33.3z M28.1,31.5h-0.3v-0.4h0.3V31.5z M28.1,29.8h-0.3v-0.4h0.3V29.8z
									 M28.1,28.1h-0.3v-0.4h0.3V28.1z M28.1,26.3h-0.3v-0.4h0.3V26.3z M28.1,24.6h-0.3v-0.4h0.3V24.6z M28.1,17.7h-0.3v-0.4h0.3
									V17.7z M28.1,12.5h-0.3V12h0.3V12.5z M28.1,9h-0.3V8.6h0.3V9z M28.1,7.3h-0.3V6.8h0.3V7.3z M28.1,5.5h-0.3V5.1h0.3V5.5z"/>
								<path class="st0" d="M123.7,85.2h-0.3v-0.4h0.3V85.2z M123.7,83.5h-0.3V83h0.3V83.5z M123.7,81.7h-0.3v-0.4h0.3V81.7z
									 M123.7,78.3h-0.3v-0.4h0.3V78.3z M123.7,76.5h-0.3v-0.4h0.3V76.5z M123.7,74.8h-0.3v-0.4h0.3V74.8z M123.7,73h-0.3v-0.4
									h0.3V73z M123.7,71.3h-0.3v-0.4h0.3V71.3z M123.7,69.6h-0.3v-0.4h0.3V69.6z M123.7,67.8h-0.3v-0.4h0.3V67.8z M123.7,66.1
									h-0.3v-0.4h0.3V66.1z M123.7,64.4h-0.3v-0.4h0.3V64.4z M123.7,62.6h-0.3v-0.4h0.3V62.6z M123.7,60.9h-0.3v-0.4h0.3V60.9z
									 M123.7,59.2h-0.3v-0.4h0.3V59.2z M123.7,57.4h-0.3V57h0.3V57.4z M123.7,55.7h-0.3v-0.4h0.3V55.7z M123.7,54h-0.3v-0.4h0.3
									V54z M123.7,52.2h-0.3v-0.4h0.3V52.2z M123.7,50.5h-0.3v-0.4h0.3V50.5z M123.7,48.8h-0.3v-0.4h0.3V48.8z M123.7,47h-0.3
									v-0.4h0.3V47z M123.7,45.3h-0.3v-0.4h0.3V45.3z M123.7,43.6h-0.3v-0.4h0.3V43.6z M123.7,41.8h-0.3v-0.4h0.3V41.8z
									 M123.7,40.1h-0.3v-0.4h0.3V40.1z M123.7,38.4h-0.3v-0.4h0.3V38.4z M123.7,36.6h-0.3v-0.4h0.3V36.6z M123.7,34.9h-0.3v-0.4
									h0.3V34.9z M123.7,33.2h-0.3v-0.4h0.3V33.2z M123.7,31.4h-0.3V31h0.3V31.4z M123.7,29.7h-0.3v-0.4h0.3V29.7z M123.7,28h-0.3
									v-0.4h0.3V28z M123.7,26.2h-0.3v-0.4h0.3V26.2z M123.7,24.5h-0.3v-0.4h0.3V24.5z M123.7,22.7h-0.3v-0.4h0.3V22.7z M123.7,21
									h-0.3v-0.4h0.3V21z M123.7,19.3h-0.3v-0.4h0.3V19.3z M123.7,17.6h-0.3v-0.4h0.3V17.6z M123.7,15.8h-0.3v-0.4h0.3V15.8z
									 M123.7,14.1h-0.3v-0.4h0.3V14.1z M123.7,12.4h-0.3v-0.4h0.3V12.4z M123.7,10.6h-0.3v-0.4h0.3V10.6z M123.7,8.9h-0.3V8.4
									h0.3V8.9z M123.7,7.2h-0.3V6.7h0.3V7.2z M123.7,5.4h-0.3V5h0.3V5.4z"/>
								<g>
									<path class="st0" d="M72.7,46.9l0-0.4c0.6,0,1.1,0,1.7-0.1l0,0.4C73.9,46.9,73.3,46.9,72.7,46.9z M71.4,46.9
										c-0.6,0-1.2-0.1-1.7-0.2l0.1-0.4c0.6,0.1,1.1,0.2,1.7,0.2L71.4,46.9z M75.8,46.6l-0.1-0.4c0.6-0.1,1.1-0.3,1.7-0.4l0.1,0.4
										C76.9,46.3,76.3,46.5,75.8,46.6z M68.4,46.4c-0.6-0.1-1.1-0.3-1.7-0.5l0.1-0.4c0.5,0.2,1.1,0.3,1.6,0.5L68.4,46.4z
										 M78.7,45.7l-0.1-0.4c0.5-0.2,1.1-0.4,1.6-0.7l0.2,0.4C79.8,45.3,79.3,45.5,78.7,45.7z M65.5,45.4
										c-0.5-0.2-1.1-0.5-1.6-0.8l0.2-0.4c0.5,0.3,1,0.5,1.5,0.8L65.5,45.4z M81.5,44.4L81.2,44c0.5-0.3,1-0.6,1.4-1l0.3,0.3
										C82.5,43.7,82,44.1,81.5,44.4z M62.8,44c-0.5-0.3-1-0.7-1.4-1.1l0.3-0.3c0.4,0.4,0.9,0.7,1.4,1L62.8,44z M83.9,42.6
										l-0.3-0.3c0.4-0.4,0.8-0.8,1.2-1.2l0.3,0.3C84.8,41.8,84.4,42.2,83.9,42.6z M60.4,42c-0.4-0.4-0.8-0.8-1.2-1.3l0.3-0.3
										c0.4,0.4,0.8,0.9,1.2,1.2L60.4,42z M86.1,40.3l-0.3-0.3c0.4-0.4,0.7-0.9,1-1.4l0.4,0.2C86.8,39.4,86.4,39.9,86.1,40.3z
										 M58.4,39.7c-0.3-0.5-0.7-1-1-1.5l0.4-0.2c0.3,0.5,0.6,1,0.9,1.4L58.4,39.7z M87.8,37.8l-0.4-0.2c0.3-0.5,0.5-1,0.7-1.5
										l0.4,0.2C88.3,36.7,88,37.3,87.8,37.8z M56.8,37.1c-0.3-0.5-0.5-1.1-0.7-1.6l0.4-0.2c0.2,0.5,0.4,1.1,0.7,1.6L56.8,37.1z
										 M89,35l-0.4-0.1c0.2-0.5,0.3-1.1,0.5-1.6l0.4,0.1C89.3,33.8,89.2,34.4,89,35z M55.7,34.2c-0.2-0.6-0.3-1.1-0.4-1.7
										l0.4-0.1c0.1,0.6,0.2,1.1,0.4,1.7L55.7,34.2z M89.7,32l-0.4-0.1c0.1-0.6,0.1-1.1,0.2-1.7l0.4,0
										C89.8,30.8,89.8,31.4,89.7,32z M55.1,31.2C55,30.6,55,30.1,55,29.5h0.4c0,0.6,0,1.1,0.1,1.7L55.1,31.2z M55.4,29.3l-0.4,0
										c0-0.6,0-1.2,0.1-1.7l0.4,0C55.5,28.1,55.5,28.7,55.4,29.3z M89.4,28.9c0-0.6-0.1-1.1-0.1-1.7l0.4,0
										c0.1,0.6,0.1,1.2,0.1,1.7L89.4,28.9z M55.7,26.3l-0.4-0.1c0.1-0.6,0.2-1.2,0.4-1.7l0.4,0.1C56,25.2,55.8,25.8,55.7,26.3z
										 M89.1,26c-0.1-0.6-0.3-1.1-0.4-1.6l0.4-0.1c0.2,0.6,0.3,1.1,0.4,1.7L89.1,26z M56.6,23.4l-0.4-0.2
										c0.2-0.5,0.4-1.1,0.7-1.6l0.4,0.2C57,22.4,56.8,22.9,56.6,23.4z M88.2,23.1c-0.2-0.5-0.5-1.1-0.7-1.5l0.4-0.2
										c0.3,0.5,0.5,1.1,0.7,1.6L88.2,23.1z M57.9,20.7l-0.4-0.2c0.3-0.5,0.6-1,1-1.5l0.3,0.3C58.5,19.8,58.2,20.2,57.9,20.7z
										 M86.8,20.4c-0.3-0.5-0.6-0.9-1-1.4l0.3-0.3c0.4,0.5,0.7,0.9,1,1.4L86.8,20.4z M59.6,18.3L59.3,18c0.4-0.5,0.8-0.9,1.2-1.3
										l0.3,0.3C60.4,17.5,60,17.9,59.6,18.3z M85,18.1c-0.4-0.4-0.8-0.8-1.2-1.2l0.3-0.3c0.4,0.4,0.8,0.8,1.2,1.2L85,18.1z
										 M61.8,16.2l-0.3-0.3c0.5-0.4,0.9-0.7,1.4-1l0.2,0.4C62.7,15.6,62.2,15.9,61.8,16.2z M82.8,16c-0.4-0.4-0.9-0.7-1.4-1
										l0.2-0.4c0.5,0.3,1,0.6,1.4,1L82.8,16z M64.3,14.6l-0.2-0.4c0.5-0.3,1-0.5,1.6-0.8l0.2,0.4C65.3,14.1,64.8,14.3,64.3,14.6z
										 M80.3,14.4c-0.5-0.3-1-0.5-1.6-0.7l0.2-0.4c0.5,0.2,1.1,0.5,1.6,0.7L80.3,14.4z M67,13.4L66.9,13c0.6-0.2,1.1-0.4,1.7-0.5
										l0.1,0.4C68.1,13,67.5,13.2,67,13.4z M77.5,13.3c-0.5-0.2-1.1-0.3-1.7-0.4l0.1-0.4c0.6,0.1,1.1,0.3,1.7,0.5L77.5,13.3z
										 M69.9,12.7l-0.1-0.4c0.6-0.1,1.2-0.1,1.7-0.2l0,0.4C71,12.5,70.5,12.6,69.9,12.7z M74.6,12.6c-0.6-0.1-1.1-0.1-1.7-0.1
										l0-0.4c0.6,0,1.2,0.1,1.7,0.1L74.6,12.6z"/>
									<path class="st0" d="M76.9,77.6c-0.3,0-0.5,0-0.8,0l0-0.4c0.6,0,1.1,0,1.7,0l0,0.4C77.5,77.6,77.2,77.6,76.9,77.6z
										 M74.8,77.5c-0.6-0.1-1.1-0.2-1.7-0.3l0.1-0.4c0.5,0.1,1.1,0.2,1.6,0.3L74.8,77.5z M79.1,77.5l0-0.4
										c0.6-0.1,1.1-0.2,1.6-0.3l0.1,0.4C80.2,77.3,79.6,77.4,79.1,77.5z M71.9,76.9c-0.5-0.1-1.1-0.3-1.6-0.6l0.2-0.4
										c0.5,0.2,1,0.4,1.6,0.5L71.9,76.9z M82,76.9l-0.1-0.4c0.5-0.2,1.1-0.3,1.6-0.6l0.2,0.4C83.1,76.5,82.5,76.7,82,76.9z
										 M69.1,75.8c-0.5-0.3-1-0.5-1.5-0.8l0.2-0.4c0.5,0.3,1,0.6,1.5,0.8L69.1,75.8z M84.8,75.8l-0.2-0.4c0.5-0.2,1-0.5,1.4-0.8
										l0.2,0.4C85.8,75.2,85.3,75.5,84.8,75.8z M66.6,74.3c-0.5-0.3-0.9-0.7-1.3-1.1l0.3-0.3c0.4,0.4,0.9,0.7,1.3,1L66.6,74.3z
										 M87.3,74.2l-0.2-0.3c0.4-0.3,0.9-0.7,1.3-1l0.3,0.3C88.2,73.5,87.8,73.9,87.3,74.2z M64.3,72.3c-0.4-0.4-0.8-0.8-1.1-1.3
										l0.3-0.3c0.3,0.4,0.7,0.8,1.1,1.2L64.3,72.3z M89.6,72.3L89.3,72c0.4-0.4,0.8-0.8,1.1-1.2l0.3,0.2
										C90.3,71.4,89.9,71.8,89.6,72.3z M62.5,70c-0.3-0.5-0.6-1-0.9-1.5l0.4-0.2c0.3,0.5,0.6,1,0.9,1.4L62.5,70z M91.4,70
										l-0.3-0.2c0.3-0.5,0.6-0.9,0.9-1.4l0.4,0.2C92.1,69,91.8,69.5,91.4,70z M61,67.4c-0.2-0.5-0.5-1-0.6-1.6l0.4-0.2
										c0.2,0.5,0.4,1,0.6,1.6L61,67.4z M92.9,67.4l-0.4-0.2c0.2-0.5,0.4-1,0.6-1.5l0.4,0.1C93.4,66.3,93.2,66.9,92.9,67.4z
										 M59.9,64.7c-0.1-0.6-0.3-1.1-0.4-1.7l0.4-0.1c0.1,0.5,0.2,1.1,0.4,1.6L59.9,64.7z M93.9,64.6l-0.4-0.1
										c0.1-0.5,0.3-1.1,0.4-1.6l0.4,0.1C94.2,63.5,94.1,64,93.9,64.6z M59.4,61.7c-0.1-0.6-0.1-1.1-0.1-1.7l0-0.3l0.4,0l0,0.3
										c0,0.6,0,1.1,0.1,1.7L59.4,61.7z M94.5,61.6L94,61.6c0-0.5,0.1-1.1,0.1-1.6v-0.1h0.4V60C94.5,60.5,94.5,61.1,94.5,61.6z
										 M94.1,58.7c0-0.6-0.1-1.1-0.2-1.7l0.4-0.1c0.1,0.6,0.2,1.1,0.2,1.7L94.1,58.7z M59.8,58.5l-0.4,0c0.1-0.6,0.1-1.1,0.2-1.7
										l0.4,0.1C59.9,57.4,59.9,57.9,59.8,58.5z M93.6,55.8c-0.1-0.5-0.3-1.1-0.5-1.6l0.4-0.2c0.2,0.5,0.4,1.1,0.5,1.6L93.6,55.8z
										 M60.3,55.6l-0.4-0.1c0.2-0.5,0.3-1.1,0.5-1.6l0.4,0.2C60.6,54.6,60.5,55.1,60.3,55.6z M92.6,53.1c-0.2-0.5-0.5-1-0.7-1.5
										l0.4-0.2c0.3,0.5,0.5,1,0.8,1.5L92.6,53.1z M61.3,52.9l-0.4-0.2c0.2-0.5,0.5-1,0.8-1.5l0.4,0.2
										C61.8,51.9,61.5,52.4,61.3,52.9z M91.2,50.5c-0.3-0.5-0.6-0.9-1-1.3l0.3-0.3c0.4,0.4,0.7,0.9,1,1.4L91.2,50.5z M62.7,50.4
										l-0.3-0.2c0.3-0.5,0.7-0.9,1-1.3l0.3,0.3C63.4,49.5,63,49.9,62.7,50.4z M89.4,48.2c-0.4-0.4-0.8-0.8-1.2-1.2l0.3-0.3
										c0.4,0.4,0.8,0.8,1.2,1.2L89.4,48.2z M64.5,48.1l-0.3-0.3c0.4-0.4,0.8-0.8,1.2-1.2l0.3,0.3C65.3,47.3,64.9,47.7,64.5,48.1z
										 M87.3,46.3c-0.4-0.3-0.9-0.6-1.4-0.9l0.2-0.4c0.5,0.3,1,0.6,1.4,1L87.3,46.3z M66.7,46.2l-0.2-0.3c0.5-0.3,0.9-0.6,1.4-1
										l0.2,0.4C67.6,45.6,67.2,45.9,66.7,46.2z M84.8,44.7c-0.5-0.2-1-0.5-1.5-0.7l0.2-0.4c0.5,0.2,1,0.4,1.5,0.7L84.8,44.7z
										 M69.2,44.7L69,44.3c0.5-0.3,1-0.5,1.6-0.7l0.2,0.4C70.2,44.2,69.7,44.4,69.2,44.7z M82.1,43.6c-0.5-0.2-1.1-0.3-1.6-0.4
										l0.1-0.4c0.6,0.1,1.1,0.3,1.6,0.4L82.1,43.6z M71.9,43.6l-0.1-0.4c0.5-0.2,1.1-0.3,1.7-0.4l0.1,0.4
										C73,43.3,72.4,43.4,71.9,43.6z M79.3,43c-0.5-0.1-1.1-0.1-1.7-0.2l0-0.4c0.6,0,1.1,0.1,1.7,0.1L79.3,43z M74.7,43l-0.1-0.4
										c0.6-0.1,1.1-0.1,1.7-0.1l0,0.4C75.8,42.9,75.3,42.9,74.7,43z"/>
									<path class="st0" d="M37.9,80.2c-0.2,0-0.4,0-0.6,0l0-0.4c0.2,0,0.4,0,0.5,0c0.4,0,0.8,0,1.1-0.1l0.1,0.4
										C38.7,80.1,38.3,80.2,37.9,80.2z M36.1,80c-0.6-0.1-1.2-0.3-1.7-0.5l0.1-0.4c0.5,0.2,1.1,0.4,1.6,0.5L36.1,80z M40.4,79.9
										l-0.1-0.4c0.5-0.1,1.1-0.3,1.6-0.6l0.2,0.4C41.6,79.5,41,79.7,40.4,79.9z M33.1,79c-0.5-0.3-1-0.6-1.5-1l0.3-0.3
										c0.4,0.3,0.9,0.7,1.4,0.9L33.1,79z M43.3,78.7l-0.2-0.4c0.5-0.3,0.9-0.6,1.4-1l0.3,0.3C44.3,78,43.8,78.4,43.3,78.7z
										 M30.7,77.1c-0.4-0.4-0.8-0.9-1.1-1.4l0.4-0.3c0.3,0.5,0.7,0.9,1.1,1.3L30.7,77.1z M45.7,76.7l-0.3-0.3
										c0.4-0.4,0.7-0.9,1-1.4l0.4,0.2C46.4,75.8,46,76.2,45.7,76.7z M28.8,74.6c-0.3-0.5-0.5-1.1-0.7-1.6l0.4-0.1
										c0.2,0.5,0.4,1.1,0.6,1.6L28.8,74.6z M47.3,74.1l-0.4-0.2c0.2-0.5,0.4-1,0.5-1.6l0.4,0.1C47.7,73,47.5,73.5,47.3,74.1z
										 M27.9,71.7c-0.1-0.6-0.2-1.2-0.2-1.8h0.4c0,0.6,0,1.1,0.1,1.7L27.9,71.7z M48.1,71.1l-0.4,0c0-0.4,0.1-0.7,0.1-1.1
										c0-0.2,0-0.4,0-0.6l0.4,0c0,0.2,0,0.4,0,0.6C48.2,70.3,48.2,70.7,48.1,71.1z M28.2,69.4l-0.4,0c0-0.6,0.1-1.2,0.2-1.7
										l0.4,0.1C28.3,68.3,28.2,68.9,28.2,69.4z M47.6,68.1c-0.1-0.6-0.3-1.1-0.5-1.6l0.4-0.1c0.2,0.6,0.4,1.1,0.5,1.7L47.6,68.1z
										 M28.8,66.5l-0.4-0.1c0.2-0.6,0.5-1.1,0.8-1.6l0.4,0.2C29.2,65.5,28.9,66,28.8,66.5z M46.6,65.3c-0.3-0.5-0.6-1-0.9-1.4
										l0.3-0.3c0.4,0.5,0.7,0.9,1,1.5L46.6,65.3z M30.2,64l-0.3-0.3c0.4-0.5,0.8-0.9,1.2-1.3l0.3,0.3
										C30.9,63.1,30.5,63.5,30.2,64z M44.8,62.9c-0.4-0.4-0.8-0.7-1.3-1.1l0.2-0.4c0.5,0.3,0.9,0.7,1.4,1.1L44.8,62.9z
										 M32.3,61.9l-0.3-0.4c0.5-0.3,1-0.6,1.5-0.9l0.2,0.4C33.3,61.3,32.8,61.6,32.3,61.9z M42.4,61.2c-0.5-0.3-1-0.5-1.6-0.6
										l0.1-0.4c0.6,0.2,1.1,0.4,1.6,0.7L42.4,61.2z M35,60.6l-0.1-0.4c0.6-0.2,1.1-0.3,1.7-0.4l0.1,0.4
										C36.1,60.3,35.5,60.4,35,60.6z M39.6,60.3c-0.5-0.1-1.1-0.1-1.6-0.1h0v-0.4h0c0.6,0,1.2,0,1.7,0.1L39.6,60.3z"/>
									<path class="st0" d="M139,82.1l0-0.4c0.6-0.1,1.1-0.2,1.6-0.4l0.2,0.4C140.2,81.9,139.6,82,139,82.1z M137.7,82.1
										c-0.6-0.1-1.2-0.3-1.7-0.5l0.2-0.4c0.5,0.2,1,0.4,1.6,0.5L137.7,82.1z M141.9,80.9l-0.3-0.3c0.4-0.3,0.8-0.8,1.1-1.2
										l0.4,0.2C142.8,80.1,142.4,80.5,141.9,80.9z M134.8,80.8c-0.5-0.4-0.8-0.9-1.2-1.4l0.4-0.2c0.3,0.5,0.6,0.9,1.1,1.3
										L134.8,80.8z M133.1,78.2c-0.2-0.5-0.2-1.1-0.2-1.6c0,0,0-0.1,0-0.2l0.4,0l0,0.1c0,0.5,0.1,1,0.2,1.5L133.1,78.2z
										 M133.5,75.2l-0.4-0.1c0.2-0.6,0.4-1.1,0.8-1.6l0.4,0.2C133.9,74.2,133.6,74.7,133.5,75.2z M141.8,72.8
										c-0.4-0.4-0.9-0.7-1.4-0.9l0.2-0.4c0.6,0.2,1.1,0.6,1.5,1L141.8,72.8z M135,72.8l-0.3-0.3c0.4-0.4,1-0.7,1.5-1l0.2,0.4
										C135.9,72.1,135.4,72.4,135,72.8z M139.3,71.5c-0.5-0.1-1.1-0.1-1.7,0l-0.1-0.4c0.6-0.1,1.2-0.1,1.8,0L139.3,71.5z"/>
									<path class="st0" d="M152.1,80.8c-0.4,0-0.8,0-1.2-0.1l0-0.4c0.4,0,0.8,0.1,1.2,0.1c0.2,0,0.4,0,0.5,0l0,0.4
										C152.5,80.8,152.3,80.8,152.1,80.8z M154,80.6l-0.1-0.4c0.6-0.1,1.1-0.2,1.6-0.4l0.2,0.4C155.1,80.3,154.5,80.5,154,80.6z
										 M149.6,80.5c-0.6-0.1-1.1-0.3-1.7-0.6l0.2-0.4c0.5,0.2,1,0.4,1.6,0.6L149.6,80.5z M156.9,79.6l-0.2-0.4
										c0.5-0.3,1-0.6,1.4-0.9l0.3,0.3C157.9,79,157.4,79.3,156.9,79.6z M146.7,79.2c-0.5-0.3-1-0.7-1.4-1.1l0.3-0.3
										c0.4,0.4,0.9,0.7,1.4,1L146.7,79.2z M159.4,77.7l-0.3-0.3c0.4-0.4,0.8-0.9,1.1-1.3l0.4,0.3
										C160.1,76.8,159.8,77.3,159.4,77.7z M144.4,77.3c-0.4-0.4-0.7-0.9-1-1.4l0.4-0.2c0.3,0.5,0.6,0.9,1,1.4L144.4,77.3z
										 M161.2,75.2l-0.4-0.2c0.3-0.5,0.5-1,0.6-1.6l0.4,0.1C161.7,74.1,161.4,74.7,161.2,75.2z M142.7,74.7
										c-0.2-0.5-0.4-1.1-0.6-1.7l0.4-0.1c0.1,0.5,0.3,1.1,0.5,1.6L142.7,74.7z M162.1,72.3l-0.4-0.1c0.1-0.6,0.1-1.1,0.1-1.7h0.4
										C162.3,71.1,162.2,71.7,162.1,72.3z M141.9,71.7c-0.1-0.4-0.1-0.8-0.1-1.2c0-0.2,0-0.4,0-0.6l0.4,0c0,0.2,0,0.4,0,0.6
										c0,0.4,0,0.7,0.1,1.1L141.9,71.7z M161.9,70c0-0.6-0.1-1.1-0.2-1.7l0.4-0.1c0.1,0.6,0.2,1.2,0.2,1.8L161.9,70z M142.5,68.7
										l-0.4-0.1c0.1-0.6,0.3-1.2,0.5-1.7l0.4,0.2C142.7,67.6,142.6,68.1,142.5,68.7z M161.3,67.1c-0.2-0.5-0.4-1-0.7-1.5l0.4-0.2
										c0.3,0.5,0.6,1.1,0.8,1.6L161.3,67.1z M143.4,65.9l-0.4-0.2c0.3-0.5,0.6-1,1-1.5l0.3,0.3C144,64.9,143.7,65.4,143.4,65.9z
										 M159.8,64.5c-0.3-0.4-0.7-0.9-1.1-1.2L159,63c0.4,0.4,0.8,0.8,1.2,1.3L159.8,64.5z M145.2,63.5l-0.3-0.3
										c0.4-0.4,0.9-0.8,1.4-1.1l0.2,0.4C146.1,62.8,145.6,63.1,145.2,63.5z M157.7,62.5c-0.5-0.3-1-0.6-1.5-0.8l0.2-0.4
										c0.5,0.3,1,0.5,1.5,0.9L157.7,62.5z M147.6,61.8l-0.2-0.4c0.5-0.3,1.1-0.5,1.6-0.7l0.1,0.4
										C148.6,61.3,148.1,61.5,147.6,61.8z M155,61.2c-0.5-0.2-1.1-0.3-1.7-0.4l0.1-0.4c0.6,0.1,1.2,0.2,1.7,0.4L155,61.2z
										 M150.4,60.9l-0.1-0.4c0.6-0.1,1.1-0.1,1.7-0.1l0,0.4C151.5,60.7,151,60.8,150.4,60.9z"/>
									<path class="st0" d="M95.6,81.4c-0.2,0-0.4,0-0.6,0l0-0.5c0.2,0,0.4,0,0.6,0c0.4,0,0.8,0,1.2-0.1l0,0.4
										C96.5,81.4,96,81.4,95.6,81.4C95.6,81.4,95.6,81.4,95.6,81.4z M93.6,81.2c-0.6-0.1-1.2-0.3-1.8-0.5l0.2-0.4
										c0.6,0.2,1.1,0.4,1.7,0.5L93.6,81.2z M101.3,79.8l-0.2-0.4c0.5-0.3,1-0.7,1.5-1.1l0.3,0.3
										C102.3,79.1,101.8,79.5,101.3,79.8z M103.8,77.7l-0.3-0.3c0.4-0.5,0.7-0.9,1.1-1.5l0.4,0.2
										C104.6,76.7,104.2,77.2,103.8,77.7z M84.9,72.4c-0.1-0.6-0.2-1.2-0.2-1.9h0.5c0,0.6,0.1,1.2,0.2,1.8L84.9,72.4z
										 M106.4,71.7l-0.5-0.1c0-0.4,0.1-0.8,0.1-1.2c0-0.2,0-0.4,0-0.6l0.5,0c0,0.2,0,0.4,0,0.7C106.5,70.9,106.5,71.3,106.4,71.7
										z M85.2,70l-0.5,0c0-0.6,0.1-1.3,0.3-1.9l0.5,0.1C85.3,68.7,85.2,69.4,85.2,70z M105.9,68.5c-0.1-0.6-0.3-1.2-0.5-1.7
										l0.4-0.2c0.2,0.6,0.4,1.2,0.5,1.8L105.9,68.5z M85.8,66.9l-0.4-0.2c0.2-0.6,0.5-1.2,0.8-1.7l0.4,0.2
										C86.3,65.8,86,66.3,85.8,66.9z M104.8,65.6c-0.3-0.5-0.6-1-1-1.5l0.4-0.3c0.4,0.5,0.7,1,1,1.6L104.8,65.6z M87.3,64.1
										L87,63.8c0.4-0.5,0.8-1,1.3-1.4l0.3,0.4C88.1,63.2,87.7,63.6,87.3,64.1z M102.9,63c-0.4-0.4-0.9-0.8-1.4-1.1l0.3-0.4
										c0.5,0.4,1,0.8,1.5,1.2L102.9,63z M89.6,61.9l-0.3-0.4c0.5-0.4,1.1-0.7,1.6-0.9l0.2,0.4C90.6,61.3,90.1,61.6,89.6,61.9z
										 M100.3,61.2c-0.5-0.3-1.1-0.5-1.7-0.7l0.1-0.4c0.6,0.2,1.2,0.4,1.8,0.7L100.3,61.2z M92.4,60.5l-0.1-0.4
										c0.6-0.2,1.2-0.3,1.8-0.4l0.1,0.5C93.6,60.2,93,60.4,92.4,60.5z M97.4,60.2c-0.6-0.1-1.2-0.2-1.7-0.2h0v-0.5h0
										c0.6,0,1.2,0.1,1.8,0.2L97.4,60.2z"/>
									<path class="st0" d="M123.8,36.9l0-0.4c0.6,0,1.1-0.1,1.7-0.1l0.1,0.4C125,36.8,124.4,36.9,123.8,36.9z M122.5,36.8
										c-0.6-0.1-1.2-0.1-1.7-0.3l0.1-0.4c0.6,0.1,1.1,0.2,1.7,0.2L122.5,36.8z M126.8,36.5l-0.1-0.4c0.5-0.1,1.1-0.3,1.6-0.5
										l0.2,0.4C128,36.2,127.4,36.3,126.8,36.5z M119.4,36.2c-0.6-0.2-1.1-0.4-1.6-0.6l0.2-0.4c0.5,0.2,1.1,0.4,1.6,0.6
										L119.4,36.2z M129.7,35.4l-0.2-0.4c0.5-0.3,1-0.5,1.5-0.9l0.2,0.4C130.8,34.8,130.2,35.2,129.7,35.4z M116.6,35
										c-0.5-0.3-1-0.6-1.5-1l0.3-0.3c0.4,0.4,0.9,0.7,1.4,1L116.6,35z M132.3,33.7l-0.3-0.3c0.4-0.4,0.8-0.8,1.2-1.2l0.3,0.3
										C133.2,32.9,132.7,33.3,132.3,33.7z M114.2,33.1c-0.4-0.4-0.8-0.9-1.2-1.3l0.3-0.3c0.4,0.4,0.7,0.9,1.2,1.3L114.2,33.1z
										 M134.4,31.5l-0.3-0.3c0.3-0.5,0.7-0.9,0.9-1.4l0.4,0.2C135.1,30.5,134.8,31,134.4,31.5z M112.2,30.8
										c-0.3-0.5-0.6-1-0.9-1.5l0.4-0.2c0.3,0.5,0.5,1,0.8,1.5L112.2,30.8z M136,28.9l-0.4-0.2c0.2-0.5,0.4-1,0.6-1.6l0.4,0.1
										C136.4,27.8,136.2,28.3,136,28.9z M110.8,28c-0.2-0.5-0.4-1.1-0.5-1.7l0.4-0.1c0.1,0.6,0.3,1.1,0.5,1.6L110.8,28z
										 M136.9,25.9l-0.4-0.1c0.1-0.6,0.2-1.1,0.2-1.7l0.4,0C137.1,24.8,137,25.4,136.9,25.9z M110.1,25c-0.1-0.6-0.1-1.2-0.1-1.8
										h0.4c0,0.6,0,1.1,0.1,1.7L110.1,25z M136.8,22.9c0-0.6-0.1-1.1-0.2-1.7l0.4-0.1c0.1,0.6,0.1,1.2,0.2,1.7L136.8,22.9z
										 M110.4,22.8l-0.4,0c0-0.6,0.1-1.2,0.2-1.8l0.4,0.1C110.5,21.6,110.4,22.2,110.4,22.8z M136.3,19.9
										c-0.1-0.5-0.3-1.1-0.5-1.6l0.4-0.2c0.2,0.5,0.4,1.1,0.6,1.7L136.3,19.9z M110.9,19.8l-0.4-0.1c0.1-0.6,0.3-1.1,0.6-1.7
										l0.4,0.2C111.2,18.7,111,19.3,110.9,19.8z M135.3,17.2c-0.3-0.5-0.6-1-0.9-1.5l0.4-0.3c0.3,0.5,0.6,1,0.9,1.5L135.3,17.2z
										 M112,17l-0.4-0.2c0.3-0.5,0.6-1,0.9-1.5l0.4,0.3C112.5,16.1,112.2,16.5,112,17z M133.6,14.7c-0.4-0.4-0.8-0.9-1.2-1.2
										l0.3-0.3c0.4,0.4,0.9,0.8,1.2,1.3L133.6,14.7z M113.7,14.6l-0.3-0.3c0.4-0.4,0.8-0.9,1.2-1.2l0.3,0.3
										C114.4,13.8,114,14.2,113.7,14.6z M131.4,12.7c-0.5-0.3-0.9-0.6-1.4-0.9l0.2-0.4c0.5,0.3,1,0.6,1.5,0.9L131.4,12.7z
										 M115.8,12.6l-0.2-0.4c0.5-0.3,1-0.7,1.5-0.9l0.2,0.4C116.8,11.9,116.3,12.3,115.8,12.6z M128.8,11.2
										c-0.5-0.2-1.1-0.4-1.6-0.6l0.1-0.4c0.6,0.2,1.1,0.4,1.7,0.6L128.8,11.2z M118.4,11.1l-0.2-0.4c0.5-0.2,1.1-0.4,1.7-0.6
										l0.1,0.4C119.5,10.7,119,10.9,118.4,11.1z M126,10.3c-0.6-0.1-1.1-0.2-1.7-0.2l0-0.4c0.6,0,1.2,0.1,1.7,0.2L126,10.3z
										 M121.3,10.3l-0.1-0.4c0.6-0.1,1.2-0.2,1.8-0.2l0,0.4C122.4,10.1,121.9,10.2,121.3,10.3z"/>
									<path class="st0" d="M37.9,30.8c-0.2,0-0.4,0-0.6,0l0-0.4c0.2,0,0.4,0,0.5,0c0.4,0,0.8,0,1.1-0.1l0,0.4
										C38.7,30.8,38.3,30.8,37.9,30.8z M36,30.6c-0.6-0.1-1.2-0.3-1.7-0.5l0.1-0.4c0.5,0.2,1.1,0.4,1.6,0.5L36,30.6z M40.4,30.5
										l-0.1-0.4c0.5-0.1,1.1-0.3,1.6-0.6l0.2,0.4C41.5,30.1,41,30.3,40.4,30.5z M33.1,29.6c-0.5-0.3-1-0.6-1.5-1l0.3-0.3
										c0.4,0.3,0.9,0.7,1.4,0.9L33.1,29.6z M43.3,29.3L43,28.9c0.5-0.3,0.9-0.6,1.4-1l0.3,0.3C44.2,28.6,43.8,29,43.3,29.3z
										 M30.6,27.7c-0.4-0.4-0.8-0.9-1.1-1.4l0.4-0.3c0.3,0.5,0.7,0.9,1.1,1.3L30.6,27.7z M45.6,27.3L45.3,27
										c0.4-0.4,0.7-0.9,1-1.4l0.4,0.2C46.4,26.3,46,26.8,45.6,27.3z M28.8,25.2c-0.3-0.5-0.5-1.1-0.7-1.6l0.4-0.1
										c0.2,0.5,0.4,1.1,0.6,1.6L28.8,25.2z M47.3,24.7l-0.4-0.2c0.2-0.5,0.4-1.1,0.5-1.6l0.4,0.1C47.7,23.6,47.5,24.1,47.3,24.7z
										 M27.8,22.3c-0.1-0.6-0.2-1.2-0.2-1.7h0.4c0,0.6,0,1.1,0.1,1.7L27.8,22.3z M48.1,21.7l-0.4,0c0-0.4,0.1-0.7,0.1-1.1
										c0-0.2,0-0.4,0-0.6l0.4,0c0,0.2,0,0.4,0,0.6C48.1,20.9,48.1,21.3,48.1,21.7z M28.1,20l-0.4,0c0-0.6,0.1-1.2,0.2-1.8
										l0.4,0.1C28.2,18.9,28.2,19.5,28.1,20z M47.5,18.7c-0.1-0.6-0.3-1.1-0.5-1.6l0.4-0.2c0.2,0.5,0.4,1.1,0.5,1.7L47.5,18.7z
										 M28.7,17.2L28.3,17c0.2-0.6,0.5-1.1,0.8-1.6l0.4,0.2C29.2,16.1,28.9,16.6,28.7,17.2z M46.5,15.9c-0.3-0.5-0.6-1-0.9-1.4
										l0.3-0.3c0.4,0.5,0.7,1,1,1.5L46.5,15.9z M30.2,14.6l-0.3-0.3c0.4-0.5,0.8-0.9,1.2-1.3l0.3,0.3
										C30.9,13.7,30.5,14.1,30.2,14.6z M44.8,13.5c-0.4-0.4-0.8-0.8-1.3-1.1l0.2-0.4c0.5,0.3,0.9,0.7,1.4,1.1L44.8,13.5z
										 M32.3,12.5L32,12.2c0.5-0.3,1-0.6,1.5-0.9l0.2,0.4C33.3,11.9,32.8,12.2,32.3,12.5z M42.4,11.8c-0.5-0.3-1-0.5-1.6-0.6
										l0.1-0.4c0.6,0.2,1.1,0.4,1.6,0.7L42.4,11.8z M34.9,11.2l-0.1-0.4c0.6-0.2,1.1-0.3,1.7-0.4l0.1,0.4
										C36,10.9,35.5,11,34.9,11.2z M39.6,10.9c-0.5-0.1-1.1-0.1-1.6-0.1h0v-0.4h0c0.6,0,1.2,0.1,1.7,0.1L39.6,10.9z"/>
								</g>
								<path class="st0" d="M166.3,10.8h-0.3v-0.3h0.3V10.8z M164.6,10.8h-0.4v-0.3h0.4V10.8z M162.9,10.8h-0.4v-0.3h0.4V10.8z
									 M161.2,10.8h-0.4v-0.3h0.4V10.8z M159.4,10.8H159v-0.3h0.4V10.8z M157.7,10.8h-0.4v-0.3h0.4V10.8z M156,10.8h-0.4v-0.3h0.4
									V10.8z M154.2,10.8h-0.4v-0.3h0.4V10.8z M152.5,10.8h-0.4v-0.3h0.4V10.8z M150.8,10.8h-0.4v-0.3h0.4V10.8z M149,10.8h-0.4
									v-0.3h0.4V10.8z M147.3,10.8h-0.4v-0.3h0.4V10.8z M145.6,10.8h-0.4v-0.3h0.4V10.8z M143.8,10.8h-0.4v-0.3h0.4V10.8z
									 M142.1,10.8h-0.4v-0.3h0.4V10.8z M140.4,10.8h-0.4v-0.3h0.4V10.8z M138.6,10.8h-0.4v-0.3h0.4V10.8z M136.9,10.8h-0.4v-0.3
									h0.4V10.8z M135.2,10.8h-0.4v-0.3h0.4V10.8z M133.4,10.8H133v-0.3h0.4V10.8z M114.3,10.8h-0.4v-0.3h0.4V10.8z M112.6,10.8
									h-0.4v-0.3h0.4V10.8z M110.9,10.8h-0.4v-0.3h0.4V10.8z M109.1,10.8h-0.4v-0.3h0.4V10.8z M107.4,10.8H107v-0.3h0.4V10.8z
									 M105.7,10.8h-0.4v-0.3h0.4V10.8z M103.9,10.8h-0.4v-0.3h0.4V10.8z M102.2,10.8h-0.4v-0.3h0.4V10.8z M100.5,10.8H100v-0.3
									h0.4V10.8z M98.7,10.8h-0.4v-0.3h0.4V10.8z M97,10.8h-0.4v-0.3H97V10.8z M95.3,10.8h-0.4v-0.3h0.4V10.8z M93.5,10.8h-0.4
									v-0.3h0.4V10.8z M91.8,10.8h-0.4v-0.3h0.4V10.8z M90.1,10.8h-0.4v-0.3h0.4V10.8z M88.3,10.8h-0.4v-0.3h0.4V10.8z M86.6,10.8
									h-0.4v-0.3h0.4V10.8z M84.9,10.8h-0.4v-0.3h0.4V10.8z M83.1,10.8h-0.4v-0.3h0.4V10.8z M81.4,10.8H81v-0.3h0.4V10.8z
									 M79.7,10.8h-0.4v-0.3h0.4V10.8z M77.9,10.8h-0.4v-0.3h0.4V10.8z M76.2,10.8h-0.4v-0.3h0.4V10.8z M74.5,10.8H74v-0.3h0.4
									V10.8z M72.7,10.8h-0.4v-0.3h0.4V10.8z M71,10.8h-0.4v-0.3H71V10.8z M69.3,10.8h-0.4v-0.3h0.4V10.8z M67.5,10.8h-0.4v-0.3
									h0.4V10.8z M65.8,10.8h-0.4v-0.3h0.4V10.8z M64.1,10.8h-0.4v-0.3h0.4V10.8z M62.3,10.8h-0.4v-0.3h0.4V10.8z M60.6,10.8h-0.4
									v-0.3h0.4V10.8z M58.9,10.8h-0.4v-0.3h0.4V10.8z M57.1,10.8h-0.4v-0.3h0.4V10.8z M55.4,10.8h-0.4v-0.3h0.4V10.8z M53.6,10.8
									h-0.4v-0.3h0.4V10.8z M51.9,10.8h-0.4v-0.3h0.4V10.8z M50.2,10.8h-0.4v-0.3h0.4V10.8z M48.4,10.8H48v-0.3h0.4V10.8z
									 M46.7,10.8h-0.4v-0.3h0.4V10.8z M45,10.8h-0.4v-0.3H45V10.8z M43.2,10.8h-0.4v-0.3h0.4V10.8z M41.5,10.8h-0.4v-0.3h0.4
									V10.8z M39.8,10.8h-0.4v-0.3h0.4V10.8z M38,10.8h-0.4v-0.3H38V10.8z M36.3,10.8h-0.4v-0.3h0.4V10.8z M34.6,10.8h-0.4v-0.3
									h0.4V10.8z M32.8,10.8h-0.4v-0.3h0.4V10.8z M31.1,10.8h-0.4v-0.3h0.4V10.8z M29.4,10.8h-0.4v-0.3h0.4V10.8z M27.6,10.8h-0.4
									v-0.3h0.4V10.8z M25.9,10.8h-0.4v-0.3h0.4V10.8z M24.2,10.8h-0.4v-0.3h0.4V10.8z"/>
								<path class="st0" d="M166.3,43.9h-0.3v-0.3h0.3V43.9z M164.6,43.9h-0.4v-0.3h0.4V43.9z M161.2,43.9h-0.4v-0.3h0.4V43.9z
									 M159.4,43.9H159v-0.3h0.4V43.9z M157.7,43.9h-0.4v-0.3h0.4V43.9z M156,43.9h-0.4v-0.3h0.4V43.9z M154.2,43.9h-0.4v-0.3h0.4
									V43.9z M152.5,43.9h-0.4v-0.3h0.4V43.9z M150.8,43.9h-0.4v-0.3h0.4V43.9z M149,43.9h-0.4v-0.3h0.4V43.9z M147.3,43.9h-0.4
									v-0.3h0.4V43.9z M145.6,43.9h-0.4v-0.3h0.4V43.9z M143.8,43.9h-0.4v-0.3h0.4V43.9z M142.1,43.9h-0.4v-0.3h0.4V43.9z
									 M140.4,43.9h-0.4v-0.3h0.4V43.9z M138.6,43.9h-0.4v-0.3h0.4V43.9z M136.9,43.9h-0.4v-0.3h0.4V43.9z M135.2,43.9h-0.4v-0.3
									h0.4V43.9z M133.4,43.9H133v-0.3h0.4V43.9z M131.7,43.9h-0.4v-0.3h0.4V43.9z M130,43.9h-0.4v-0.3h0.4V43.9z M128.2,43.9
									h-0.4v-0.3h0.4V43.9z M126.5,43.9H126v-0.3h0.4V43.9z M124.8,43.9h-0.4v-0.3h0.4V43.9z M123,43.9h-0.4v-0.3h0.4V43.9z
									 M121.3,43.9h-0.4v-0.3h0.4V43.9z M119.5,43.9h-0.4v-0.3h0.4V43.9z M117.8,43.9h-0.4v-0.3h0.4V43.9z M116.1,43.9h-0.4v-0.3
									h0.4V43.9z M114.3,43.9h-0.4v-0.3h0.4V43.9z M112.6,43.9h-0.4v-0.3h0.4V43.9z M110.9,43.9h-0.4v-0.3h0.4V43.9z M109.1,43.9
									h-0.4v-0.3h0.4V43.9z M107.4,43.9H107v-0.3h0.4V43.9z M105.7,43.9h-0.4v-0.3h0.4V43.9z M103.9,43.9h-0.4v-0.3h0.4V43.9z
									 M102.2,43.9h-0.4v-0.3h0.4V43.9z M100.5,43.9H100v-0.3h0.4V43.9z M98.7,43.9h-0.4v-0.3h0.4V43.9z M97,43.9h-0.4v-0.3H97
									V43.9z M95.3,43.9h-0.4v-0.3h0.4V43.9z M93.5,43.9h-0.4v-0.3h0.4V43.9z M91.8,43.9h-0.4v-0.3h0.4V43.9z M90.1,43.9h-0.4
									v-0.3h0.4V43.9z M88.3,43.9h-0.4v-0.3h0.4V43.9z M86.6,43.9h-0.4v-0.3h0.4V43.9z M84.9,43.9h-0.4v-0.3h0.4V43.9z M83.1,43.9
									h-0.4v-0.3h0.4V43.9z M81.4,43.9H81v-0.3h0.4V43.9z M79.7,43.9h-0.4v-0.3h0.4V43.9z M77.9,43.9h-0.4v-0.3h0.4V43.9z
									 M76.2,43.9h-0.4v-0.3h0.4V43.9z M74.5,43.9H74v-0.3h0.4V43.9z M72.7,43.9h-0.4v-0.3h0.4V43.9z M71,43.9h-0.4v-0.3H71V43.9z
									 M69.3,43.9h-0.4v-0.3h0.4V43.9z M67.5,43.9h-0.4v-0.3h0.4V43.9z M65.8,43.9h-0.4v-0.3h0.4V43.9z M64.1,43.9h-0.4v-0.3h0.4
									V43.9z M62.3,43.9h-0.4v-0.3h0.4V43.9z M60.6,43.9h-0.4v-0.3h0.4V43.9z M58.9,43.9h-0.4v-0.3h0.4V43.9z M57.1,43.9h-0.4
									v-0.3h0.4V43.9z M55.4,43.9h-0.4v-0.3h0.4V43.9z M53.6,43.9h-0.4v-0.3h0.4V43.9z M51.9,43.9h-0.4v-0.3h0.4V43.9z M50.2,43.9
									h-0.4v-0.3h0.4V43.9z M48.4,43.9H48v-0.3h0.4V43.9z M46.7,43.9h-0.4v-0.3h0.4V43.9z M45,43.9h-0.4v-0.3H45V43.9z M43.2,43.9
									h-0.4v-0.3h0.4V43.9z M41.5,43.9h-0.4v-0.3h0.4V43.9z M39.8,43.9h-0.4v-0.3h0.4V43.9z M38,43.9h-0.4v-0.3H38V43.9z
									 M36.3,43.9h-0.4v-0.3h0.4V43.9z M34.6,43.9h-0.4v-0.3h0.4V43.9z M32.8,43.9h-0.4v-0.3h0.4V43.9z M31.1,43.9h-0.4v-0.3h0.4
									V43.9z M29.4,43.9h-0.4v-0.3h0.4V43.9z M27.6,43.9h-0.4v-0.3h0.4V43.9z M25.9,43.9h-0.4v-0.3h0.4V43.9z M24.2,43.9h-0.4
									v-0.3h0.4V43.9z"/>
								<path class="st0" d="M86.5,94.9l-0.2-0.2l0.3-0.3l0.2,0.2L86.5,94.9z M87.7,93.6l-0.2-0.2l0.3-0.3l0.2,0.2L87.7,93.6z
									 M90.2,91.2L89.9,91l0.3-0.3l0.2,0.2L90.2,91.2z M92.6,88.7l-0.2-0.2l0.3-0.3l0.2,0.2L92.6,88.7z M93.9,87.5l-0.2-0.2
									l0.3-0.3l0.2,0.2L93.9,87.5z M95.1,86.3L94.9,86l0.3-0.3l0.2,0.2L95.1,86.3z M96.3,85.1l-0.2-0.2l0.3-0.3l0.2,0.2L96.3,85.1
									z M97.5,83.8l-0.2-0.2l0.3-0.3l0.2,0.2L97.5,83.8z M98.8,82.6l-0.2-0.2l0.3-0.3l0.2,0.2L98.8,82.6z M100,81.4l-0.2-0.2
									l0.3-0.3l0.2,0.2L100,81.4z M106.1,75.2l-0.2-0.2l0.3-0.3l0.2,0.2L106.1,75.2z M107.4,74l-0.2-0.2l0.3-0.3l0.2,0.2L107.4,74
									z M108.6,72.8l-0.2-0.2l0.3-0.3l0.2,0.2L108.6,72.8z M109.8,71.6l-0.2-0.2l0.3-0.3l0.2,0.2L109.8,71.6z M111,70.3l-0.2-0.2
									l0.3-0.3l0.2,0.2L111,70.3z M112.3,69.1l-0.2-0.2l0.3-0.3l0.2,0.2L112.3,69.1z"/>
							</g>
							<path class="st0" d="M17.5,23.1h-2.6V0H38v2.6H17.5V23.1z M15.7,22.3h0.9V1.7h20.5V0.9H15.7V22.3z"/>
							<path class="st0" d="M175.1,90.4H152v-2.6h20.5V67.3h2.6V90.4z M152.9,89.5h21.4V68.1h-0.9v20.5h-20.5V89.5z"/>
						</g>
					</g>
				</g>
			</g>
		</g>
	</g>
</g>
</svg>
