<?xml version="1.0" encoding="utf-8"?>
<!-- Generator: Adobe Illustrator 17.1.0, SVG Export Plug-In . SVG Version: 6.00 Build 0)  -->
<!DOCTYPE svg PUBLIC "-//W3C//DTD SVG 1.1//EN" "http://www.w3.org/Graphics/SVG/1.1/DTD/svg11.dtd">
<svg version="1.1" id="Capa_1" xmlns="http://www.w3.org/2000/svg" xmlns:xlink="http://www.w3.org/1999/xlink" x="0px" y="0px"
	 viewBox="0 0 70.6 70.6" enable-background="new 0 0 70.6 70.6" xml:space="preserve">
<path d="M35.3,0C15.8,0,0,15.8,0,35.3c0,19.5,15.8,35.3,35.3,35.3c19.5,0,35.3-15.8,35.3-35.3C70.6,15.8,54.8,0,35.3,0z M54.1,25.6
	c0,0.4,0,0.8,0,1.3c0,12.9-9.8,27.7-27.7,27.7c-5.5,0-10.6-1.6-14.9-4.4c0.8,0.1,1.5,0.1,2.3,0.1c4.6,0,8.7-1.6,12.1-4.2
	c-4.3-0.1-7.8-2.9-9.1-6.8c0.6,0.1,1.2,0.2,1.8,0.2c0.9,0,1.7-0.1,2.6-0.3c-4.4-0.9-7.8-4.8-7.8-9.5c0,0,0-0.1,0-0.1
	c1.3,0.7,2.8,1.2,4.4,1.2c-2.6-1.7-4.3-4.7-4.3-8.1c0-1.8,0.5-3.5,1.3-4.9c4.8,5.9,12,9.8,20,10.2c-0.2-0.7-0.3-1.5-0.3-2.2
	c0-5.4,4.4-9.7,9.7-9.7c2.8,0,5.3,1.2,7.1,3.1c2.2-0.4,4.3-1.2,6.2-2.4c-0.7,2.3-2.3,4.2-4.3,5.4c2-0.2,3.8-0.8,5.6-1.5
	C57.7,22.5,56,24.2,54.1,25.6z"/>
</svg>
