<?xml version="1.0" encoding="utf-8"?>
<!-- Generator: Adobe Illustrator 17.1.0, SVG Export Plug-In . SVG Version: 6.00 Build 0)  -->
<!DOCTYPE svg PUBLIC "-//W3C//DTD SVG 1.1//EN" "http://www.w3.org/Graphics/SVG/1.1/DTD/svg11.dtd">
<svg version="1.1" id="Capa_1" xmlns="http://www.w3.org/2000/svg" xmlns:xlink="http://www.w3.org/1999/xlink" x="0px" y="0px"
	 viewBox="0 0 70.6 70.6" enable-background="new 0 0 70.6 70.6" xml:space="preserve">
<g>
	<polygon points="31,40.9 42.8,34.8 31,28.6 	"/>
	<path d="M35.3,0C15.8,0,0,15.8,0,35.3s15.8,35.3,35.3,35.3c19.5,0,35.3-15.8,35.3-35.3S54.8,0,35.3,0z M57.4,44.3
		c0,0-0.4,3.1-1.8,4.5c-1.7,1.8-3.6,1.8-4.5,1.9c-6.3,0.5-15.8,0.5-15.8,0.5S23.6,51,20,50.7c-1-0.2-3.3-0.1-5-1.9
		c-1.4-1.4-1.8-4.5-1.8-4.5s-0.5-3.6-0.5-7.3v-3.4c0-3.6,0.5-7.3,0.5-7.3s0.4-3.1,1.8-4.5c1.7-1.8,3.6-1.8,4.5-1.9
		c6.3-0.5,15.8-0.5,15.8-0.5h0c0,0,9.5,0,15.8,0.5c0.9,0.1,2.8,0.1,4.5,1.9c1.4,1.4,1.8,4.5,1.8,4.5s0.4,3.6,0.4,7.3V37
		C57.8,40.6,57.4,44.3,57.4,44.3z"/>
</g>
</svg>
